<svg width="55" height="46" viewBox="0 0 55 46" fill="none" xmlns="http://www.w3.org/2000/svg">
<path d="M27.5 0C12.3063 0 0 10.4222 0 23.2769C0 33.5634 7.87875 42.2864 18.8031 45.3609C20.1781 45.5801 20.6823 44.8605 20.6823 44.2417C20.6823 43.6889 20.6594 42.2243 20.6479 40.2846C12.9983 41.689 11.385 37.1616 11.385 37.1616C10.1337 34.4751 8.32563 33.7574 8.32563 33.7574C5.83458 32.3142 8.51813 32.3433 8.51813 32.3433C11.2796 32.5062 12.7302 34.7408 12.7302 34.7408C15.1823 38.3002 19.1675 37.2722 20.7396 36.6767C20.9871 35.1714 21.6952 34.1453 22.4813 33.5634C16.374 32.9815 9.955 30.9797 9.955 22.0607C9.955 19.5196 11.0206 17.4441 12.7852 15.8147C12.4758 15.227 11.5477 12.8605 13.0258 9.65411C13.0258 9.65411 15.329 9.02951 20.5883 12.04C22.7883 11.5221 25.1258 11.266 27.4633 11.2544C29.8008 11.266 32.1383 11.5221 34.3383 12.04C39.5633 9.02951 41.8665 9.65411 41.8665 9.65411C43.3446 12.8605 42.4165 15.227 42.1415 15.8147C43.8946 17.4441 44.9602 19.5196 44.9602 22.0607C44.9602 31.0029 38.5321 32.9718 32.4133 33.544C33.3758 34.2423 34.2696 35.6699 34.2696 37.8502C34.2696 40.9654 34.2352 43.4677 34.2352 44.2242C34.2352 44.8352 34.7165 45.5626 36.1258 45.3299C47.1281 42.2767 55 33.5479 55 23.2769C55 10.4222 42.6869 0 27.5 0Z" fill="#1C1F63"/>
</svg>
