<?xml version="1.0" encoding="UTF-8" standalone="no"?>
<!DOCTYPE svg PUBLIC "-//W3C//DTD SVG 1.1//EN" "http://www.w3.org/Graphics/SVG/1.1/DTD/svg11.dtd">
<svg width="100%" height="100%" viewBox="0 0 358 358" version="1.1" xmlns="http://www.w3.org/2000/svg" xmlns:xlink="http://www.w3.org/1999/xlink" xml:space="preserve" xmlns:serif="http://www.serif.com/" style="fill-rule:evenodd;clip-rule:evenodd;stroke-linecap:square;stroke-linejoin:round;stroke-miterlimit:1.5;">
    <g transform="matrix(1,0,0,1,-353.951,567.036)">
        <g transform="matrix(1.46635,0,0,1.46635,-155.728,-974.063)">
            <path d="M591.398,338.532C591.398,304.891 564.086,277.579 530.444,277.579L408.538,277.579C374.897,277.579 347.585,304.891 347.585,338.532L347.585,460.439C347.585,494.08 374.897,521.392 408.538,521.392L530.444,521.392C564.086,521.392 591.398,494.08 591.398,460.439L591.398,338.532Z" style="fill:rgb(122,68,191);"/>
        </g>
        <g transform="matrix(0.52085,0,0,0.52085,462.241,-316.143)">
            <path d="M0,-275.985L229.44,-402.641C243.401,-410.701 316.588,-370.913 314.86,-343.998L313.368,-65.493C304.306,-37.496 297.023,-21.21 272.542,-7.076L39.859,126.656C39.704,126.746 39.542,126.833 39.375,126.918C24.52,134.485 -36.309,123.907 -36.309,57.468L-36.309,-213.096C-36.309,-239.04 -22.468,-263.013 0,-275.985" style="fill:rgb(54,54,65);fill-rule:nonzero;"/>
        </g>
        <g transform="matrix(0.52085,0,0,0.52085,483.236,-414.154)">
            <clipPath id="_clip1">
                <path d="M189.131,-214.464L-40.31,-87.808C-62.777,-74.837 -76.619,-50.864 -76.619,-24.921L-76.619,245.644C-76.619,312.83 -14.412,322.892 -0.451,314.831L232.233,181.1C256.713,166.966 263.996,150.681 273.058,122.684L274.551,-155.821C276.124,-180.335 215.56,-215.527 194.191,-215.522C192.098,-215.522 190.376,-215.185 189.131,-214.464Z" clip-rule="nonzero"/>
            </clipPath>
            <g clip-path="url(#_clip1)">
                <path d="M30.403,359.604C16.443,367.664 -84.532,349.843 -84.532,282.656L-84.532,20.66C-100.23,-8.06 -30.438,42.978 -10.671,51.624" style="fill:rgb(199,199,199);fill-rule:nonzero;"/>
            </g>
        </g>
        <g transform="matrix(0.52085,0,0,0.52085,487.832,-321.635)">
            <path d="M0,-216.307L234.315,-351.589C248.276,-359.649 265.727,-349.574 265.727,-333.453L265.728,-66.644C265.728,-38.377 250.646,-12.257 226.166,1.878L-4.897,135.282C-18.858,143.342 -36.309,121.21 -36.309,97.001L-36.309,-153.418C-36.309,-179.362 -22.468,-203.335 0,-216.307" style="fill:url(#_Linear2);fill-rule:nonzero;"/>
        </g>
        <g transform="matrix(105.771,-61.0668,5.87146e-15,136.861,507.777,-296.107)">
            <path d="M0.367,-0.001C0.32,-0.001 0.303,0.039 0.292,0.033C0.27,0.018 0.184,-0.06 0.16,-0.082C0.12,-0.12 0.08,-0.168 0.062,-0.212C0.044,-0.257 0.026,-0.299 0.026,-0.348C0.026,-0.398 0.03,-0.454 0.049,-0.499C0.067,-0.543 0.086,-0.585 0.121,-0.62C0.157,-0.656 0.196,-0.687 0.241,-0.705C0.287,-0.723 0.321,-0.736 0.368,-0.736C0.415,-0.736 0.46,-0.727 0.506,-0.709C0.515,-0.705 0.532,-0.697 0.551,-0.685C0.678,-0.604 0.709,-0.568 0.643,-0.586C0.605,-0.597 0.638,-0.522 0.602,-0.519C0.603,-0.517 0.603,-0.517 0.603,-0.517C0.558,-0.513 0.505,-0.524 0.45,-0.549C0.448,-0.55 0.445,-0.551 0.442,-0.553C0.417,-0.562 0.392,-0.567 0.367,-0.567C0.342,-0.567 0.317,-0.562 0.293,-0.553C0.268,-0.543 0.246,-0.528 0.227,-0.509C0.208,-0.49 0.194,-0.468 0.184,-0.444C0.174,-0.42 0.169,-0.395 0.169,-0.368C0.169,-0.341 0.174,-0.316 0.184,-0.293C0.194,-0.269 0.208,-0.247 0.227,-0.228C0.246,-0.209 0.268,-0.194 0.293,-0.185C0.317,-0.175 0.347,-0.168 0.374,-0.163C0.407,-0.159 0.446,-0.154 0.481,-0.157C0.508,-0.159 0.548,-0.179 0.574,-0.17C0.613,-0.156 0.678,-0.095 0.687,-0.085C0.704,-0.066 0.645,-0.084 0.647,-0.071C0.649,-0.059 0.679,-0.052 0.67,-0.048C0.618,-0.036 0.54,-0.041 0.506,-0.028C0.461,-0.01 0.415,-0.001 0.367,-0.001Z" style="fill:url(#_Radial3);fill-rule:nonzero;"/>
        </g>
        <g transform="matrix(105.771,-61.0668,5.87146e-15,136.861,521.925,-290.918)">
            <path d="M0.367,-0.001C0.32,-0.001 0.274,-0.01 0.229,-0.028C0.184,-0.045 0.143,-0.072 0.107,-0.108C0.072,-0.143 0.046,-0.183 0.028,-0.228C0.009,-0.272 0,-0.319 0,-0.368C0,-0.418 0.009,-0.465 0.028,-0.51C0.046,-0.554 0.072,-0.593 0.107,-0.628C0.143,-0.664 0.184,-0.691 0.229,-0.709C0.274,-0.727 0.321,-0.736 0.368,-0.736C0.415,-0.736 0.46,-0.727 0.506,-0.709C0.506,-0.709 0.506,-0.709 0.506,-0.709C0.535,-0.697 0.563,-0.674 0.579,-0.648C0.594,-0.621 0.596,-0.597 0.582,-0.583C0.574,-0.575 0.566,-0.567 0.558,-0.559C0.535,-0.536 0.491,-0.533 0.442,-0.553C0.442,-0.552 0.442,-0.552 0.442,-0.553C0.417,-0.562 0.392,-0.567 0.367,-0.567C0.342,-0.567 0.317,-0.562 0.293,-0.553C0.268,-0.543 0.246,-0.528 0.227,-0.509C0.208,-0.49 0.194,-0.468 0.184,-0.444C0.174,-0.42 0.169,-0.395 0.169,-0.368C0.169,-0.341 0.174,-0.316 0.184,-0.293C0.194,-0.269 0.208,-0.247 0.227,-0.228C0.246,-0.209 0.268,-0.194 0.293,-0.185C0.317,-0.175 0.342,-0.17 0.367,-0.17C0.392,-0.17 0.417,-0.175 0.442,-0.185C0.456,-0.19 0.47,-0.197 0.482,-0.206C0.49,-0.211 0.501,-0.212 0.514,-0.208C0.526,-0.204 0.54,-0.196 0.55,-0.186C0.55,-0.186 0.55,-0.186 0.55,-0.186C0.596,-0.139 0.607,-0.085 0.575,-0.064C0.553,-0.049 0.53,-0.037 0.506,-0.028C0.461,-0.01 0.415,-0.001 0.367,-0.001Z" style="fill:rgb(140,81,215);fill-rule:nonzero;"/>
        </g>
        <g transform="matrix(0.52085,0,0,0.52085,467.288,-516.335)">
            <clipPath id="_clip4">
                <path d="M273.759,22.225L39.444,157.505C16.976,170.478 3.135,194.451 3.135,220.396L3.135,490.959C3.135,507.079 20.585,517.155 34.546,509.095L265.609,375.692C290.09,361.557 305.171,335.435 305.171,307.169L305.171,40.361C305.171,28.135 295.137,19.386 284.198,19.387C280.712,19.387 277.132,20.276 273.759,22.225Z" clip-rule="nonzero"/>
            </clipPath>
            <g clip-path="url(#_clip4)">
                <path d="M0,240.527L0,178.073L308.55,0L309.228,62.917" style="fill:rgb(64,64,76);fill-rule:nonzero;"/>
            </g>
        </g>
        <g transform="matrix(0.691063,-0.398985,4.42963e-17,0.921417,247.635,-633.137)">
            <ellipse cx="379.757" cy="378.244" rx="9.549" ry="8.27" style="fill:rgb(47,47,54);"/>
            <clipPath id="_clip5">
                <ellipse cx="379.757" cy="378.244" rx="9.549" ry="8.27"/>
            </clipPath>
            <g clip-path="url(#_clip5)">
                <g transform="matrix(1.20723,0.765353,-5.99032e-17,0.934545,-255.548,-216.032)">
                    <path d="M496.619,170.423C497.203,166.632 499.084,161.45 501.24,158.47C506.667,150.966 515.676,146.053 525.864,146.053C542.431,146.053 555.881,159.045 555.881,175.047C555.881,182.186 552.433,189.57 546.872,195.492C542.013,200.667 530.59,207.408 521.588,207.611" style="fill:none;stroke:white;stroke-width:8.5px;"/>
                </g>
            </g>
        </g>
        <g transform="matrix(0.691063,-0.398985,4.42963e-17,0.921417,313.411,-671.112)">
            <ellipse cx="379.757" cy="378.244" rx="9.549" ry="8.27" style="fill:rgb(47,47,54);"/>
            <clipPath id="_clip6">
                <ellipse cx="379.757" cy="378.244" rx="9.549" ry="8.27"/>
            </clipPath>
            <g clip-path="url(#_clip6)">
                <g transform="matrix(1.20723,0.765353,-5.99032e-17,0.934545,-255.548,-216.032)">
                    <path d="M496.619,170.423C497.203,166.632 499.084,161.45 501.24,158.47C506.667,150.966 515.676,146.053 525.864,146.053C542.431,146.053 555.881,159.045 555.881,175.047C555.881,182.186 552.433,189.57 546.872,195.492C542.013,200.667 530.59,207.408 521.588,207.611" style="fill:none;stroke:white;stroke-width:8.5px;"/>
                </g>
            </g>
        </g>
        <g transform="matrix(0.834271,0.223542,0,0.861106,71.0351,-730.233)">
            <path d="M496.619,170.423C497.203,166.632 499.084,161.45 501.24,158.47C506.667,150.966 515.676,146.053 525.864,146.053C542.431,146.053 555.881,159.045 555.881,175.047C555.881,182.186 552.433,189.57 546.872,195.492C543.347,199.246 536.368,203.824 529.365,206.132" style="fill:none;stroke:url(#_Linear7);stroke-width:8.5px;stroke-linecap:round;"/>
        </g>
        <g transform="matrix(0.834271,0.223542,0,0.861106,136.811,-768.208)">
            <path d="M495.109,174.329C494.143,170.621 499.084,161.45 501.24,158.47C506.667,150.966 515.676,146.053 525.864,146.053C542.431,146.053 555.881,159.045 555.881,175.047C555.881,182.186 552.433,189.57 546.872,195.492C543.347,199.246 536.368,203.824 529.365,206.132" style="fill:none;stroke:url(#_Linear8);stroke-width:8.5px;stroke-linecap:round;"/>
        </g>
        <g transform="matrix(0.52085,0,0,0.52085,459.803,-314.735)">
            <path d="M164.052,-366.709L182.56,-376.958C182.56,-376.958 187.89,-362.59 170.659,-361.018" style="fill:rgb(54,54,65);fill-rule:nonzero;"/>
        </g>
        <g transform="matrix(0.52085,0,0,0.52085,462.241,-316.143)">
            <path d="M32.326,-293.831L68.063,-313.4L56.42,-295.959L46.98,-290.468" style="fill:rgb(54,54,65);fill-rule:nonzero;"/>
        </g>
    </g>
    <defs>
        <linearGradient id="_Linear2" x1="0" y1="0" x2="1" y2="0" gradientUnits="userSpaceOnUse" gradientTransform="matrix(856,-1157.95,1157.95,856,-5.32618,67.3459)"><stop offset="0" style="stop-color:rgb(247,247,247);stop-opacity:1"/><stop offset="0.47" style="stop-color:rgb(227,227,227);stop-opacity:1"/><stop offset="1" style="stop-color:rgb(172,172,172);stop-opacity:1"/></linearGradient>
        <radialGradient id="_Radial3" cx="0" cy="0" r="1" gradientUnits="userSpaceOnUse" gradientTransform="matrix(0.821245,0.466422,-0.686577,0.350009,0.0259345,-0.348439)"><stop offset="0" style="stop-color:rgb(118,57,208);stop-opacity:1"/><stop offset="1" style="stop-color:rgb(67,11,150);stop-opacity:1"/></radialGradient>
        <linearGradient id="_Linear7" x1="0" y1="0" x2="1" y2="0" gradientUnits="userSpaceOnUse" gradientTransform="matrix(-121.613,-190.674,229.393,-177.374,540.276,229.96)"><stop offset="0" style="stop-color:white;stop-opacity:1"/><stop offset="0.49" style="stop-color:rgb(235,235,235);stop-opacity:1"/><stop offset="1" style="stop-color:rgb(179,179,179);stop-opacity:1"/></linearGradient>
        <linearGradient id="_Linear8" x1="0" y1="0" x2="1" y2="0" gradientUnits="userSpaceOnUse" gradientTransform="matrix(-121.613,-190.674,229.393,-177.374,461.433,294.529)"><stop offset="0" style="stop-color:white;stop-opacity:1"/><stop offset="0.49" style="stop-color:rgb(235,235,235);stop-opacity:1"/><stop offset="1" style="stop-color:rgb(179,179,179);stop-opacity:1"/></linearGradient>
    </defs>
</svg>
