<svg width="95" height="16" viewBox="0 0 95 16" fill="none" xmlns="http://www.w3.org/2000/svg">
<path d="M8.22967 14.8852L0.995215 7.65072L8.22967 0.416268L9.89474 2.06699L5.52392 6.4378H15.7656V8.86364H5.52392L9.89474 13.2273L8.22967 14.8852ZM24.238 15V0.301436H30.1232C31.2045 0.301436 32.1065 0.461723 32.8289 0.782297C33.5514 1.10287 34.0945 1.54785 34.4581 2.11722C34.8218 2.68182 35.0036 3.33254 35.0036 4.06938C35.0036 4.64354 34.8888 5.14833 34.6591 5.58373C34.4294 6.01435 34.1136 6.36842 33.7117 6.64593C33.3146 6.91866 32.86 7.11244 32.3481 7.22727V7.37081C32.9079 7.39474 33.4318 7.55263 33.9199 7.8445C34.4127 8.13636 34.8122 8.54545 35.1184 9.07177C35.4246 9.5933 35.5778 10.2153 35.5778 10.9378C35.5778 11.7177 35.384 12.4139 34.9964 13.0263C34.6136 13.634 34.0466 14.1148 33.2955 14.4689C32.5443 14.823 31.6184 15 30.5179 15H24.238ZM27.3457 12.4593H29.8792C30.7452 12.4593 31.3768 12.2943 31.7739 11.9641C32.1711 11.6292 32.3696 11.1842 32.3696 10.6292C32.3696 10.2225 32.2715 9.86364 32.0754 9.55263C31.8792 9.24163 31.5993 8.99761 31.2356 8.82057C30.8768 8.64354 30.4486 8.55502 29.951 8.55502H27.3457V12.4593ZM27.3457 6.45215H29.6495C30.0754 6.45215 30.4533 6.37799 30.7835 6.22967C31.1184 6.07656 31.3816 5.86124 31.573 5.58373C31.7691 5.30622 31.8672 4.97368 31.8672 4.58613C31.8672 4.05502 31.6782 3.62679 31.3002 3.30144C30.927 2.97608 30.3959 2.8134 29.7069 2.8134H27.3457V6.45215ZM44.811 15H41.4809L46.555 0.301436H50.5598L55.6268 15H52.2967L48.6148 3.66029H48.5L44.811 15ZM44.6029 9.22249H52.4689V11.6483H44.6029V9.22249ZM75.0425 5.44737H71.8989C71.8415 5.04067 71.7243 4.67943 71.5472 4.36364C71.3702 4.04306 71.1429 3.77033 70.8654 3.54545C70.5879 3.32057 70.2673 3.14833 69.9037 3.02871C69.5449 2.90909 69.1549 2.84928 68.7338 2.84928C67.9731 2.84928 67.3104 3.03828 66.7458 3.41627C66.1812 3.78947 65.7434 4.33493 65.4324 5.05263C65.1214 5.76555 64.9659 6.63158 64.9659 7.65072C64.9659 8.69856 65.1214 9.57895 65.4324 10.2919C65.7482 11.0048 66.1884 11.5431 66.753 11.9067C67.3176 12.2703 67.9707 12.4522 68.7123 12.4522C69.1286 12.4522 69.5138 12.3971 69.8678 12.2871C70.2267 12.177 70.5449 12.0167 70.8224 11.8062C71.0999 11.5909 71.3295 11.3301 71.5114 11.0239C71.698 10.7177 71.8272 10.3684 71.8989 9.97608L75.0425 9.99043C74.9611 10.6651 74.7578 11.3158 74.4324 11.9426C74.1118 12.5646 73.6788 13.122 73.1334 13.6148C72.5927 14.1029 71.9468 14.4904 71.1956 14.7775C70.4492 15.0598 69.6047 15.201 68.6621 15.201C67.3511 15.201 66.1788 14.9043 65.1453 14.311C64.1166 13.7177 63.3032 12.8589 62.7051 11.7344C62.1118 10.61 61.8152 9.2488 61.8152 7.65072C61.8152 6.04785 62.1166 4.68421 62.7195 3.55981C63.3224 2.43541 64.1405 1.57895 65.174 0.990431C66.2075 0.397129 67.3702 0.100479 68.6621 0.100479C69.5138 0.100479 70.3032 0.220096 71.0305 0.45933C71.7626 0.698565 72.4109 1.04785 72.9755 1.50718C73.5401 1.96172 73.9994 2.51914 74.3535 3.17943C74.7123 3.83971 74.942 4.59569 75.0425 5.44737ZM81.9486 15V0.301436H85.0562V6.7823H85.25L90.5395 0.301436H94.2644L88.8098 6.88278L94.3289 15H90.6112L86.5849 8.95694L85.0562 10.823V15H81.9486Z" fill="#9453E6"/>
</svg>
