<?xml version="1.0" encoding="UTF-8" standalone="no"?>
<!DOCTYPE svg PUBLIC "-//W3C//DTD SVG 1.1//EN" "http://www.w3.org/Graphics/SVG/1.1/DTD/svg11.dtd">
<svg width="100%" height="100%" viewBox="0 0 615 276" version="1.1" xmlns="http://www.w3.org/2000/svg" xmlns:xlink="http://www.w3.org/1999/xlink" xml:space="preserve" xmlns:serif="http://www.serif.com/" style="fill-rule:evenodd;clip-rule:evenodd;stroke-linecap:round;stroke-linejoin:round;stroke-miterlimit:1.5;">
    <defs>
        <style>
            @import url("https://fonts.googleapis.com/css2?family=Poppins");
            @import url("https://fonts.googleapis.com/css?family=Roboto");
            @import url("https://fonts.googleapis.com/css?family=Rubik");
        </style>
    </defs>
    <g transform="matrix(1,0,0,1,-2108.07,-1770.3)">
        <g transform="matrix(1,0,0,1,195.284,-871.739)">
            <g transform="matrix(0.175965,0,0,0.208277,1899.55,2694.29)">
                <path d="M570.838,105.026C570.838,103.939 569.793,103.055 568.505,103.055L146.572,103.055C145.285,103.055 144.239,103.939 144.239,105.026L144.239,164.738C144.239,165.825 145.285,166.709 146.572,166.709L568.505,166.709C569.793,166.709 570.838,165.825 570.838,164.738L570.838,105.026Z" style="fill:rgb(242,242,242);"/>
            </g>
            <g transform="matrix(0.187042,0,0,0.208277,1996.16,2694.29)">
                <path d="M570.838,105.026C570.838,103.939 569.855,103.055 568.643,103.055L146.434,103.055C145.223,103.055 144.239,103.939 144.239,105.026L144.239,164.738C144.239,165.825 145.223,166.709 146.434,166.709L568.643,166.709C569.855,166.709 570.838,165.825 570.838,164.738L570.838,105.026Z" style="fill:rgb(242,242,242);"/>
            </g>
            <g transform="matrix(0.134013,0,0,0.208277,2089.75,2694.29)">
                <path d="M570.838,105.026C570.838,103.939 569.465,103.055 567.775,103.055L147.303,103.055C145.612,103.055 144.239,103.939 144.239,105.026L144.239,164.738C144.239,165.825 145.612,166.709 147.303,166.709L567.775,166.709C569.465,166.709 570.838,165.825 570.838,164.738L570.838,105.026Z" style="fill:rgb(146,84,222);"/>
            </g>
            <g transform="matrix(0.335483,0,0,1.0781,1974.74,2628.8)">
                <path d="M570.838,105.026C570.838,103.939 568,103.055 564.504,103.055L150.573,103.055C147.078,103.055 144.239,103.939 144.239,105.026L144.239,164.738C144.239,165.825 147.078,166.709 150.573,166.709L564.504,166.709C568,166.709 570.838,165.825 570.838,164.738L570.838,105.026Z" style="fill:rgb(242,242,242);"/>
            </g>
            <g transform="matrix(0.335483,0,0,0.379439,1974.74,2779.65)">
                <path d="M570.838,105.026C570.838,103.939 569.839,103.055 568.609,103.055L146.469,103.055C145.238,103.055 144.239,103.939 144.239,105.026L144.239,164.738C144.239,165.825 145.238,166.709 146.469,166.709L568.609,166.709C569.839,166.709 570.838,165.825 570.838,164.738L570.838,105.026Z" style="fill:rgb(242,242,242);"/>
            </g>
            <g transform="matrix(0.146539,0,0,0.165738,2261.25,2697.95)">
                <path d="M570.838,118.51C570.838,109.98 563.006,103.055 553.358,103.055L161.719,103.055C152.072,103.055 144.239,109.98 144.239,118.51L144.239,151.254C144.239,159.784 152.072,166.709 161.719,166.709L553.358,166.709C563.006,166.709 570.838,159.784 570.838,151.254L570.838,118.51Z" style="fill:rgb(242,242,242);stroke:rgb(242,242,242);stroke-width:4.81px;"/>
            </g>
            <g transform="matrix(0.146539,0,0,0.165738,2261.25,2717.77)">
                <path d="M570.838,118.51C570.838,109.98 563.006,103.055 553.358,103.055L161.719,103.055C152.072,103.055 144.239,109.98 144.239,118.51L144.239,151.254C144.239,159.784 152.072,166.709 161.719,166.709L553.358,166.709C563.006,166.709 570.838,159.784 570.838,151.254L570.838,118.51Z" style="fill:rgb(242,242,242);stroke:rgb(242,242,242);stroke-width:4.81px;"/>
            </g>
            <g transform="matrix(0.146539,0,0,0.165738,2435,2768.96)">
                <path d="M570.838,118.51C570.838,109.98 563.006,103.055 553.358,103.055L161.719,103.055C152.072,103.055 144.239,109.98 144.239,118.51L144.239,151.254C144.239,159.784 152.072,166.709 161.719,166.709L553.358,166.709C563.006,166.709 570.838,159.784 570.838,151.254L570.838,118.51Z" style="fill:rgb(242,242,242);stroke:rgb(242,242,242);stroke-width:4.81px;"/>
            </g>
            <g transform="matrix(0.146539,0,0,0.165738,2347.34,2768.96)">
                <path d="M570.838,118.51C570.838,109.98 563.006,103.055 553.358,103.055L161.719,103.055C152.072,103.055 144.239,109.98 144.239,118.51L144.239,151.254C144.239,159.784 152.072,166.709 161.719,166.709L553.358,166.709C563.006,166.709 570.838,159.784 570.838,151.254L570.838,118.51Z" style="fill:rgb(146,84,222);"/>
            </g>
            <g transform="matrix(0.146539,0,0,0.165738,2347.34,2841.76)">
                <path d="M570.838,118.51C570.838,109.98 563.006,103.055 553.358,103.055L161.719,103.055C152.072,103.055 144.239,109.98 144.239,118.51L144.239,151.254C144.239,159.784 152.072,166.709 161.719,166.709L553.358,166.709C563.006,166.709 570.838,159.784 570.838,151.254L570.838,118.51Z" style="fill:rgb(242,242,242);stroke:rgb(242,242,242);stroke-width:4.81px;"/>
            </g>
            <g transform="matrix(0.335483,0,0,0.379439,1974.74,2813.69)">
                <path d="M570.838,105.026C570.838,103.939 569.839,103.055 568.609,103.055L146.469,103.055C145.238,103.055 144.239,103.939 144.239,105.026L144.239,164.738C144.239,165.825 145.238,166.709 146.469,166.709L568.609,166.709C569.839,166.709 570.838,165.825 570.838,164.738L570.838,105.026Z" style="fill:rgb(242,242,242);"/>
            </g>
            <g transform="matrix(0.335483,0,0,0.379439,1974.74,2845.81)">
                <path d="M570.838,105.026C570.838,103.939 569.839,103.055 568.609,103.055L146.469,103.055C145.238,103.055 144.239,103.939 144.239,105.026L144.239,164.738C144.239,165.825 145.238,166.709 146.469,166.709L568.609,166.709C569.839,166.709 570.838,165.825 570.838,164.738L570.838,105.026Z" style="fill:rgb(242,242,242);"/>
            </g>
            <g transform="matrix(0.145875,0,0,0.208277,1903.89,2716.17)">
                <path d="M570.838,105.026C570.838,103.939 569.577,103.055 568.024,103.055L147.054,103.055C145.5,103.055 144.239,103.939 144.239,105.026L144.239,164.738C144.239,165.825 145.5,166.709 147.054,166.709L568.024,166.709C569.577,166.709 570.838,165.825 570.838,164.738L570.838,105.026Z" style="fill:rgb(242,242,242);"/>
            </g>
            <g transform="matrix(0.145875,0,0,0.208277,1903.89,2738.05)">
                <path d="M570.838,105.026C570.838,103.939 569.577,103.055 568.024,103.055L147.054,103.055C145.5,103.055 144.239,103.939 144.239,105.026L144.239,164.738C144.239,165.825 145.5,166.709 147.054,166.709L568.024,166.709C569.577,166.709 570.838,165.825 570.838,164.738L570.838,105.026Z" style="fill:rgb(242,242,242);"/>
            </g>
            <g transform="matrix(0.145875,0,0,0.208277,1903.89,2759.93)">
                <path d="M570.838,105.026C570.838,103.939 569.577,103.055 568.024,103.055L147.054,103.055C145.5,103.055 144.239,103.939 144.239,105.026L144.239,164.738C144.239,165.825 145.5,166.709 147.054,166.709L568.024,166.709C569.577,166.709 570.838,165.825 570.838,164.738L570.838,105.026Z" style="fill:rgb(242,242,242);"/>
            </g>
            <g transform="matrix(0.175965,0,0,0.208277,1899.55,2783.43)">
                <path d="M570.838,105.026C570.838,103.939 569.793,103.055 568.505,103.055L146.572,103.055C145.285,103.055 144.239,103.939 144.239,105.026L144.239,164.738C144.239,165.825 145.285,166.709 146.572,166.709L568.505,166.709C569.793,166.709 570.838,165.825 570.838,164.738L570.838,105.026Z" style="fill:rgb(242,242,242);"/>
            </g>
            <g transform="matrix(0.175965,0,0,0.208277,1899.55,2871.1)">
                <path d="M570.838,105.026C570.838,103.939 569.793,103.055 568.505,103.055L146.572,103.055C145.285,103.055 144.239,103.939 144.239,105.026L144.239,164.738C144.239,165.825 145.285,166.709 146.572,166.709L568.505,166.709C569.793,166.709 570.838,165.825 570.838,164.738L570.838,105.026Z" style="fill:rgb(242,242,242);"/>
            </g>
            <g transform="matrix(0.145875,0,0,0.208277,1903.89,2805.32)">
                <path d="M570.838,105.026C570.838,103.939 569.577,103.055 568.024,103.055L147.054,103.055C145.5,103.055 144.239,103.939 144.239,105.026L144.239,164.738C144.239,165.825 145.5,166.709 147.054,166.709L568.024,166.709C569.577,166.709 570.838,165.825 570.838,164.738L570.838,105.026Z" style="fill:rgb(242,242,242);"/>
            </g>
            <g transform="matrix(0.145875,0,0,0.208277,1903.89,2827.2)">
                <path d="M570.838,105.026C570.838,103.939 569.577,103.055 568.024,103.055L147.054,103.055C145.5,103.055 144.239,103.939 144.239,105.026L144.239,164.738C144.239,165.825 145.5,166.709 147.054,166.709L568.024,166.709C569.577,166.709 570.838,165.825 570.838,164.738L570.838,105.026Z" style="fill:rgb(242,242,242);"/>
            </g>
            <g transform="matrix(0.145875,0,0,0.208277,1903.89,2849.08)">
                <path d="M570.838,105.026C570.838,103.939 569.577,103.055 568.024,103.055L147.054,103.055C145.5,103.055 144.239,103.939 144.239,105.026L144.239,164.738C144.239,165.825 145.5,166.709 147.054,166.709L568.024,166.709C569.577,166.709 570.838,165.825 570.838,164.738L570.838,105.026Z" style="fill:rgb(242,242,242);"/>
            </g>
            <g transform="matrix(0.471593,0,0,0.518838,2003.44,2372.96)">
                <path d="M739.384,654.995C739.384,647.13 732.359,640.745 723.706,640.745L590.749,640.745C582.097,640.745 575.072,647.13 575.072,654.995L575.072,747.712C575.072,755.577 582.097,761.962 590.749,761.962L723.706,761.962C732.359,761.962 739.384,755.577 739.384,747.712L739.384,654.995Z" style="fill:none;stroke:rgb(235,235,235);stroke-width:3.03px;"/>
            </g>
            <g transform="matrix(0.8818,0,0,1,65.4028,871.739)">
                <path d="M2205.47,1842.16C2205.47,1835.26 2199.11,1829.65 2191.28,1829.65L2111.43,1829.65C2103.6,1829.65 2097.24,1835.26 2097.24,1842.16L2097.24,2032.78C2097.24,2039.69 2103.6,2045.29 2111.43,2045.29L2191.28,2045.29C2199.11,2045.29 2205.47,2039.69 2205.47,2032.78L2205.47,1842.16Z" style="fill:none;stroke:rgb(242,242,242);stroke-width:1.59px;"/>
            </g>
            <g transform="matrix(0.471593,0,0,0.518838,2089.66,2372.96)">
                <path d="M739.384,654.995C739.384,647.13 732.359,640.745 723.706,640.745L590.749,640.745C582.097,640.745 575.072,647.13 575.072,654.995L575.072,747.712C575.072,755.577 582.097,761.962 590.749,761.962L723.706,761.962C732.359,761.962 739.384,755.577 739.384,747.712L739.384,654.995Z" style="fill:none;stroke:rgb(235,235,235);stroke-width:3.03px;"/>
            </g>
            <g transform="matrix(0.471593,0,0,0.518838,2177.45,2372.96)">
                <path d="M739.384,654.995C739.384,647.13 732.359,640.745 723.706,640.745L590.749,640.745C582.097,640.745 575.072,647.13 575.072,654.995L575.072,747.712C575.072,755.577 582.097,761.962 590.749,761.962L723.706,761.962C732.359,761.962 739.384,755.577 739.384,747.712L739.384,654.995Z" style="fill:none;stroke:rgb(235,235,235);stroke-width:3.03px;"/>
            </g>
            <g transform="matrix(0.471593,0,0,0.518838,2003.44,2445.86)">
                <path d="M739.384,654.995C739.384,647.13 732.359,640.745 723.706,640.745L590.749,640.745C582.097,640.745 575.072,647.13 575.072,654.995L575.072,747.712C575.072,755.577 582.097,761.962 590.749,761.962L723.706,761.962C732.359,761.962 739.384,755.577 739.384,747.712L739.384,654.995Z" style="fill:none;stroke:rgb(235,235,235);stroke-width:3.03px;"/>
            </g>
            <g transform="matrix(0.471593,0,0,0.518838,2003.44,2518.26)">
                <path d="M739.384,654.995C739.384,647.13 732.359,640.745 723.706,640.745L590.749,640.745C582.097,640.745 575.072,647.13 575.072,654.995L575.072,747.712C575.072,755.577 582.097,761.962 590.749,761.962L723.706,761.962C732.359,761.962 739.384,755.577 739.384,747.712L739.384,654.995Z" style="fill:none;stroke:rgb(235,235,235);stroke-width:3.03px;"/>
            </g>
            <g transform="matrix(0.518838,0,0,0.518838,1859.46,2269.03)">
                <circle cx="146.123" cy="762.296" r="40.751" style="fill:none;stroke:rgb(239,233,233);stroke-width:5.2px;"/>
            </g>
            <g transform="matrix(0.471593,0,0,0.518838,2089.66,2445.86)">
                <path d="M739.384,654.995C739.384,647.13 732.359,640.745 723.706,640.745L590.749,640.745C582.097,640.745 575.072,647.13 575.072,654.995L575.072,747.712C575.072,755.577 582.097,761.962 590.749,761.962L723.706,761.962C732.359,761.962 739.384,755.577 739.384,747.712L739.384,654.995Z" style="fill:none;stroke:rgb(235,235,235);stroke-width:3.03px;"/>
            </g>
            <g transform="matrix(0.471593,0,0,0.518838,2089.66,2518.26)">
                <path d="M739.384,654.995C739.384,647.13 732.359,640.745 723.706,640.745L590.749,640.745C582.097,640.745 575.072,647.13 575.072,654.995L575.072,747.712C575.072,755.577 582.097,761.962 590.749,761.962L723.706,761.962C732.359,761.962 739.384,755.577 739.384,747.712L739.384,654.995Z" style="fill:none;stroke:rgb(235,235,235);stroke-width:3.03px;"/>
            </g>
            <g transform="matrix(0.471593,0,0,0.518838,2177.45,2445.86)">
                <path d="M739.384,654.995C739.384,647.13 732.359,640.745 723.706,640.745L590.749,640.745C582.097,640.745 575.072,647.13 575.072,654.995L575.072,747.712C575.072,755.577 582.097,761.962 590.749,761.962L723.706,761.962C732.359,761.962 739.384,755.577 739.384,747.712L739.384,654.995Z" style="fill:none;stroke:rgb(235,235,235);stroke-width:3.03px;"/>
            </g>
            <g transform="matrix(0.471593,0,0,0.518838,2177.45,2518.26)">
                <path d="M739.384,654.995C739.384,647.13 732.359,640.745 723.706,640.745L590.749,640.745C582.097,640.745 575.072,647.13 575.072,654.995L575.072,747.712C575.072,755.577 582.097,761.962 590.749,761.962L723.706,761.962C732.359,761.962 739.384,755.577 739.384,747.712L739.384,654.995Z" style="fill:none;stroke:rgb(235,235,235);stroke-width:3.03px;"/>
            </g>
            <g transform="matrix(0.518838,0,0,0.518838,1921.27,2604.36)">
                <g transform="matrix(1.92739,-0,-0,1.92739,-16.3497,72.6355)">
                    <path d="M491.398,128.679L486.814,144.002L477.306,131.141C481.444,134.048 488.49,132.818 491.398,128.679Z" style="fill:rgb(225,225,225);"/>
                    <path d="M432.109,78.259C432.109,78.259 472.864,79.093 484.844,132.728" style="fill:none;stroke:rgb(225,225,225);stroke-width:1.88px;"/>
                </g>
            </g>
            <g transform="matrix(0.190169,0,0,0.190169,1917.61,2523.16)">
                <text x="57.782px" y="795.885px" style="font-family:'Poppins', 'Roboto';font-size:156.746px;fill:rgb(217,217,217);stroke:rgb(169,169,169);stroke-width:1px;stroke-linecap:butt;stroke-miterlimit:2;">1</text>
            </g>
            <g transform="matrix(0.410572,0,0,0.368868,1938.4,2646.64)">
                <text x="476.864px" y="215.252px" style="font-family:'Roboto';font-size:30.107px;fill:white;">+</text>
            </g>
            <g transform="matrix(0.165743,0,0,0.165743,1945.17,2537.08)">
                <text x="152.238px" y="780.341px" style="font-family:'Rubik', 'Roboto';font-size:156.746px;fill:rgb(170,170,170);">Course Selector</text>
            </g>
            <g transform="matrix(0.169567,0,0,0.169567,1945.12,2551.45)">
                <text x="152.238px" y="780.341px" style="font-family:'Poppins', 'Roboto';font-size:62.607px;fill:rgb(170,170,170);">Select your courses</text>
            </g>
            <g transform="matrix(0.518838,0,0,0.518838,2216.19,2271.13)">
                <circle cx="146.123" cy="762.296" r="40.751" style="fill:none;stroke:rgb(239,233,233);stroke-width:5.2px;"/>
            </g>
            <g transform="matrix(0.190169,0,0,0.190169,2270.57,2523.16)">
                <text x="68.782px" y="803.885px" style="font-family:'Poppins', 'Roboto';font-size:156.746px;fill:rgb(217,217,217);stroke:rgb(169,169,169);stroke-width:1px;stroke-linecap:butt;stroke-miterlimit:2;">2</text>
            </g>
            <g transform="matrix(0.165743,0,0,0.165743,2301.9,2539.18)">
                <text x="152.238px" y="780.341px" style="font-family:'Poppins', 'Roboto';font-size:156.746px;fill:rgb(170,170,170);">Term Planner</text>
            </g>
            <g transform="matrix(0.169567,0,0,0.169567,2305.93,2553.32)">
                <text x="152.238px" y="780.341px" style="font-family:'Poppins', 'Roboto';font-size:62.607px;fill:rgb(170,170,170);">Plan your Terms</text>
            </g>
        </g>
    </g>
</svg>
