<svg width="879" height="867" viewBox="0 0 879 867" fill="none" xmlns="http://www.w3.org/2000/svg">
<g clip-path="url(#clip0_1015_612)">
<path d="M680.789 459.569C685.035 457.167 689.691 455.211 695.361 453.6C700.622 452.222 705.473 451.31 709.533 451.31L725.725 450.63V423.982L709.533 424.661C705.473 424.661 700.622 425.583 695.361 426.952C689.691 428.553 685.035 430.518 680.789 432.92C677.549 434.764 675.929 436.365 674.709 437.967V464.615C675.929 463.014 677.54 461.403 680.789 459.569Z" fill="#8037F4"/>
<path d="M799.609 458.265C798.399 467.446 790.503 475.817 776.946 483.498C757.914 494.281 734.236 500.361 706.702 501.05L692.94 501.506L692.084 496.19C695.473 495.668 698.844 495.026 702.252 494.197C708.323 492.595 716.423 490.072 726.34 486.515C737.476 482.726 742.327 482.037 743.956 481.813C744.189 481.813 744.366 481.804 744.534 481.804C744.943 481.804 745.251 481.86 745.977 482.269C746.368 482.493 746.601 482.716 746.601 483.089V456.44C746.601 456.068 746.377 455.844 745.977 455.621C745.251 455.211 744.943 455.155 744.534 455.155C744.366 455.155 744.189 455.165 743.956 455.165C742.327 455.397 737.476 456.077 726.34 459.867C716.423 463.424 708.332 465.947 702.252 467.548C695.166 469.271 688.285 470.193 681.004 470.872C679.309 470.975 677.614 471.022 675.91 471.022C669.858 471.022 663.768 470.379 657.921 469.038C651.245 467.548 644.765 465.025 638.284 461.357C631.803 457.688 627.353 453.787 624.317 449.541C622.753 446.393 621.691 443.181 621.691 439.922V466.571C621.691 469.83 622.753 473.042 624.317 476.189C627.362 480.435 631.813 484.336 638.284 488.005C644.765 491.674 651.236 494.197 657.921 495.687C658.396 495.799 658.871 495.892 659.346 495.994L644.969 504.141V530.79L672.698 515.082V497.614C673.769 497.652 674.83 497.679 675.901 497.679C677.605 497.679 679.309 497.633 680.994 497.53C683.387 497.307 685.743 497.046 688.071 496.758V498.108L692.931 528.164L706.693 527.708C734.226 527.019 757.904 520.939 776.937 510.156C790.494 502.475 798.39 494.095 799.6 484.923C799.861 483.703 799.991 482.474 799.991 481.264V454.615C799.991 455.826 799.861 457.055 799.6 458.275L799.609 458.265Z" fill="#8037F4"/>
<path d="M576.346 523.807C581.207 521.051 586.672 519.561 592.333 519.104C596.393 519.104 599.829 519.449 603.674 520.482V493.834C599.829 492.81 596.393 492.456 592.333 492.456C586.672 492.912 581.207 494.402 576.346 497.158C571.7 499.793 568.655 503.126 567.435 507.251C567.156 508.033 567.026 508.825 567.026 509.598V536.246C567.026 535.473 567.156 534.691 567.435 533.9C568.655 529.775 571.691 526.442 576.346 523.807Z" fill="#8037F4"/>
<path d="M597.594 531.004V557.653L642.129 532.419V534.486C642.129 534.635 642.129 534.794 642.129 534.943V508.294C642.129 508.145 642.129 507.996 642.129 507.838V505.771L597.594 531.004Z" fill="#8037F4"/>
<path d="M661.971 544.3C644.969 553.938 624.922 559.096 603.469 559.329C602.538 559.347 601.607 559.357 600.685 559.357C579.549 559.357 560.619 554.319 543.552 544.645C526.671 535.082 517.974 524.375 517.974 512.643V539.291C517.974 551.032 526.68 561.731 543.552 571.294C557.491 579.189 572.668 584.003 589.288 585.493L552.872 606.127L380.616 508.499V535.148L527.574 618.436C526.811 619.767 525.935 621.099 524.939 622.412C521.699 627.002 516.233 631.481 509.352 635.373C500.246 640.531 490.73 644.545 480.609 647.301C468.662 650.634 456.725 652.347 444.574 652.347C423.121 652.114 402.674 646.267 384.052 635.252C374.536 629.637 367.45 622.868 362.999 615.522C360.541 611.192 359.284 606.797 359.284 602.402V628.045L351.872 632.393C343.315 637.245 341.574 641.23 341.574 644.088V670.737C341.574 667.878 343.315 663.893 351.872 659.042L363.819 652.04V643.464C368.297 650.317 375.104 656.621 384.052 661.91C402.674 672.925 423.121 678.772 444.574 679.005C456.725 679.005 468.672 677.283 480.609 673.958C490.73 671.202 500.246 667.189 509.352 662.031C516.233 658.129 521.699 653.66 524.939 649.07C527.974 645.057 530.004 640.922 530.6 636.909C530.786 635.755 530.861 634.665 530.861 633.65V620.308L552.863 632.775L597.399 607.542V585.949C598.488 585.977 599.577 585.996 600.685 585.996C601.607 585.996 602.538 585.987 603.469 585.968C624.922 585.735 644.969 580.577 661.971 570.94C678.974 561.303 687.875 549.152 688.685 535.148V508.499C687.875 522.503 678.974 534.654 661.971 544.291V544.3Z" fill="#8037F4"/>
<path d="M443.159 611.909C448.42 611.453 452.265 611.564 452.88 611.453L463.811 612.132V585.484L452.88 584.804C452.265 584.916 448.42 584.804 443.159 585.26C435.878 586.173 430.207 587.774 425.952 590.186C421.306 592.83 418.875 596.266 418.875 600.624V627.272C418.875 622.915 421.306 619.469 425.952 616.834C430.198 614.423 435.878 612.821 443.159 611.909Z" fill="#8037F4"/>
<path d="M477.368 600.894C477.368 600.121 477.266 599.544 477.163 599.255L473.932 592.83V619.479L477.163 625.903C477.266 626.192 477.368 626.769 477.368 627.542V600.894Z" fill="#8037F4"/>
<path d="M243.993 648.353V675.001L337.068 727.758L309.981 743.112L206.134 684.266C211.507 680.877 214.198 676.621 214.198 672.376V645.727C214.198 650.289 211.106 654.843 204.933 658.344C198.76 661.845 190.715 663.595 182.67 663.595C174.625 663.595 166.58 661.845 160.398 658.344C154.299 654.889 151.217 650.308 151.217 645.718V672.366C151.217 676.957 154.299 681.547 160.398 684.992C166.571 688.493 174.625 690.244 182.67 690.244C186.301 690.244 189.933 689.871 193.396 689.154V703.698L285.298 755.776C284.534 757.107 283.659 758.439 282.672 759.752C279.432 764.342 273.966 768.821 267.085 772.713C257.979 777.88 248.463 781.894 238.341 784.64C226.395 787.974 214.458 789.687 202.316 789.687C180.854 789.454 160.416 783.607 141.785 772.592C132.278 766.977 125.192 760.208 120.732 752.861C118.274 748.532 117.017 744.146 117.017 739.742V766.39C117.017 770.795 118.274 775.171 120.732 779.51C125.192 786.856 132.269 793.626 141.785 799.24C160.416 810.255 180.854 816.103 202.316 816.335C214.458 816.335 226.404 814.613 238.341 811.289C248.463 808.542 257.979 804.529 267.085 799.361C273.966 795.46 279.432 790.99 282.672 786.4C285.707 782.387 287.737 778.253 288.333 774.24C288.519 773.085 288.594 772.005 288.594 770.99V757.647L309.991 769.77L354.321 744.649V737.544L361.202 741.446L406.138 715.98V689.331L361.202 714.797L244.012 648.371L243.993 648.353Z" fill="#8037F4"/>
<path d="M200.873 749.221C206.134 748.764 209.979 748.876 210.594 748.764L221.525 749.453V722.805L210.594 722.116C209.979 722.228 206.134 722.116 200.873 722.572C193.592 723.485 187.931 725.095 183.666 727.498C179.02 730.142 176.59 733.587 176.59 737.936V764.584C176.59 760.236 179.02 756.781 183.666 754.146C187.921 751.744 193.592 750.133 200.873 749.221Z" fill="#8037F4"/>
<path d="M235.092 738.206C235.092 737.433 234.989 736.855 234.887 736.567L231.656 730.142V756.791L234.887 763.215C234.989 763.504 235.092 764.081 235.092 764.854V738.206Z" fill="#8037F4"/>
<path d="M680.789 433.013C685.035 430.611 689.691 428.656 695.361 427.045C700.622 425.667 705.473 424.754 709.533 424.754L725.725 424.075V397.426L709.533 398.106C705.473 398.106 700.622 399.028 695.361 400.396C689.691 401.998 685.035 403.963 680.789 406.365C677.549 408.208 675.929 409.81 674.709 411.411V438.06C675.929 436.459 677.54 434.848 680.789 433.013Z" fill="#DB2CBA"/>
<path d="M799.609 431.719C798.399 440.9 790.503 449.271 776.946 456.952C757.914 467.735 734.236 473.815 706.702 474.504L692.94 474.96L692.084 469.643C695.473 469.122 698.844 468.48 702.252 467.651C708.323 466.049 716.423 463.526 726.34 459.969C737.476 456.18 742.327 455.491 743.956 455.267C744.189 455.267 744.366 455.258 744.534 455.258C744.943 455.258 745.251 455.314 745.977 455.723C746.368 455.947 746.601 456.17 746.601 456.543V429.894C746.601 429.522 746.377 429.298 745.977 429.075C745.251 428.665 744.943 428.609 744.534 428.609C744.366 428.609 744.189 428.618 743.956 428.618C742.327 428.851 737.476 429.531 726.34 433.321C716.423 436.877 708.332 439.401 702.252 441.002C695.166 442.725 688.285 443.647 681.004 444.326C679.309 444.429 677.614 444.475 675.91 444.475C669.858 444.475 663.768 443.833 657.921 442.492C651.245 441.002 644.765 438.479 638.284 434.81C631.803 431.142 627.353 427.24 624.317 422.995C622.753 419.847 621.691 416.635 621.691 413.376V440.025C621.691 443.284 622.753 446.496 624.317 449.643C627.362 453.889 631.813 457.79 638.284 461.459C644.765 465.128 651.236 467.651 657.921 469.141C658.396 469.252 658.871 469.346 659.346 469.448L644.969 477.595V504.244L672.698 488.536V471.068C673.769 471.105 674.83 471.133 675.901 471.133C677.605 471.133 679.309 471.087 680.994 470.984C683.387 470.761 685.743 470.5 688.071 470.211V471.562L692.931 501.618L706.693 501.162C734.226 500.473 757.904 494.393 776.937 483.61C790.494 475.929 798.39 467.548 799.6 458.377C799.861 457.157 799.991 455.928 799.991 454.718V428.069C799.991 429.28 799.861 430.509 799.6 431.728L799.609 431.719Z" fill="#DB2CBA"/>
<path d="M576.346 497.26C581.207 494.504 586.672 493.015 592.333 492.558C596.393 492.558 599.829 492.903 603.674 493.936V467.288C599.829 466.264 596.393 465.91 592.333 465.91C586.672 466.366 581.207 467.856 576.346 470.612C571.7 473.247 568.655 476.58 567.435 480.705C567.156 481.487 567.026 482.279 567.026 483.052V509.7C567.026 508.927 567.156 508.145 567.435 507.354C568.655 503.229 571.691 499.896 576.346 497.26Z" fill="#DB2CBA"/>
<path d="M597.594 504.449V531.097L642.129 505.864V507.931C642.129 508.08 642.129 508.238 642.129 508.387V481.739C642.129 481.59 642.129 481.441 642.129 481.282V479.215L597.594 504.449Z" fill="#DB2CBA"/>
<path d="M661.971 517.754C644.969 527.391 624.922 532.55 603.469 532.783C602.538 532.801 601.607 532.81 600.685 532.81C579.549 532.81 560.619 527.773 543.552 518.099C526.671 508.536 517.974 497.828 517.974 486.096V512.745C517.974 524.486 526.68 535.185 543.552 544.747C557.491 552.643 572.668 557.457 589.288 558.947L552.872 579.58L380.616 481.953V508.601L527.574 591.89C526.811 593.221 525.935 594.553 524.939 595.866C521.699 600.456 516.233 604.935 509.352 608.827C500.246 613.985 490.73 617.998 480.609 620.754C468.662 624.088 456.725 625.801 444.574 625.801C423.121 625.568 402.674 619.721 384.052 608.706C374.536 603.091 367.45 596.322 362.999 588.975C360.541 584.646 359.284 580.251 359.284 575.856V601.499L351.872 605.847C343.315 610.698 341.574 614.684 341.574 617.542V644.191C341.574 641.332 343.315 637.347 351.872 632.496L363.819 625.494V616.918C368.297 623.771 375.104 630.075 384.052 635.364C402.674 646.379 423.121 652.226 444.574 652.459C456.725 652.459 468.672 650.736 480.609 647.412C490.73 644.656 500.246 640.643 509.352 635.485C516.233 631.583 521.699 627.114 524.939 622.523C527.974 618.51 530.004 614.376 530.6 610.363C530.786 609.209 530.861 608.119 530.861 607.104V593.761L552.863 606.229L597.399 580.996V559.403C598.488 559.431 599.577 559.45 600.685 559.45C601.607 559.45 602.538 559.44 603.469 559.422C624.922 559.189 644.969 554.031 661.971 544.394C678.974 534.757 687.875 522.605 688.685 508.601V481.953C687.875 495.957 678.974 508.108 661.971 517.745V517.754Z" fill="#DB2CBA"/>
<path d="M443.159 585.363C448.42 584.906 452.265 585.018 452.88 584.906L463.811 585.586V558.938L452.88 558.258C452.265 558.37 448.42 558.258 443.159 558.714C435.878 559.627 430.207 561.228 425.952 563.64C421.306 566.284 418.875 569.72 418.875 574.078V600.726C418.875 596.369 421.306 592.923 425.952 590.288C430.198 587.877 435.878 586.275 443.159 585.363Z" fill="#DB2CBA"/>
<path d="M477.368 574.338C477.368 573.565 477.266 572.988 477.163 572.7L473.932 566.275V592.923L477.163 599.348C477.266 599.637 477.368 600.214 477.368 600.987V574.338Z" fill="#DB2CBA"/>
<path d="M243.993 621.797V648.446L337.068 701.203L309.981 716.557L206.134 657.71C211.507 654.321 214.198 650.066 214.198 645.82V619.172C214.198 623.734 211.106 628.287 204.933 631.788C198.76 635.289 190.715 637.04 182.67 637.04C174.625 637.04 166.58 635.289 160.398 631.788C154.299 628.334 151.217 623.753 151.217 619.162V645.811C151.217 650.401 154.299 654.992 160.398 658.437C166.571 661.938 174.625 663.688 182.67 663.688C186.301 663.688 189.933 663.316 193.396 662.599V677.143L285.298 729.22C284.534 730.552 283.659 731.883 282.672 733.196C279.432 737.787 273.966 742.265 267.085 746.157C257.979 751.325 248.463 755.338 238.341 758.085C226.395 761.418 214.458 763.132 202.316 763.132C180.854 762.899 160.416 757.051 141.785 746.036C132.278 740.422 125.192 733.652 120.732 726.306C118.274 721.976 117.017 717.591 117.017 713.187V739.835C117.017 744.239 118.274 748.615 120.732 752.954C125.192 760.301 132.269 767.07 141.785 772.685C160.416 783.7 180.854 789.547 202.316 789.78C214.458 789.78 226.404 788.058 238.341 784.733C248.463 781.987 257.979 777.974 267.085 772.806C273.966 768.904 279.432 764.435 282.672 759.845C285.707 755.832 287.737 751.697 288.333 747.684C288.519 746.53 288.594 745.45 288.594 744.435V731.092L309.991 743.215L354.321 718.093V710.989L361.202 714.89L406.138 689.424V662.776L361.202 688.242L244.012 621.816L243.993 621.797Z" fill="#DB2CBA"/>
<path d="M200.873 722.674C206.134 722.218 209.979 722.33 210.594 722.218L221.525 722.907V696.259L210.594 695.57C209.979 695.681 206.134 695.57 200.873 696.026C193.592 696.938 187.931 698.549 183.666 700.952C179.02 703.596 176.59 707.041 176.59 711.389V738.038C176.59 733.69 179.02 730.235 183.666 727.6C187.921 725.198 193.592 723.587 200.873 722.674Z" fill="#DB2CBA"/>
<path d="M235.092 711.65C235.092 710.877 234.989 710.3 234.887 710.011L231.656 703.587V730.235L234.887 736.66C234.989 736.949 235.092 737.526 235.092 738.299V711.65Z" fill="#DB2CBA"/>
<path d="M680.789 406.393C685.035 403.991 689.691 402.035 695.361 400.424C700.622 399.046 705.473 398.134 709.533 398.134L725.725 397.454V370.806L709.533 371.485C705.473 371.485 700.622 372.407 695.361 373.776C689.691 375.377 685.035 377.342 680.789 379.744C677.549 381.588 675.929 383.189 674.709 384.791V411.439C675.929 409.838 677.54 408.227 680.789 406.393Z" fill="#CB5FCE"/>
<path d="M799.609 405.089C798.399 414.27 790.503 422.641 776.946 430.323C757.914 441.105 734.236 447.185 706.702 447.874L692.94 448.33L692.084 443.014C695.473 442.492 698.844 441.85 702.252 441.021C708.323 439.42 716.423 436.896 726.34 433.339C737.476 429.55 742.327 428.861 743.956 428.637C744.189 428.637 744.366 428.628 744.534 428.628C744.943 428.628 745.251 428.684 745.977 429.094C746.368 429.317 746.601 429.54 746.601 429.913V403.264C746.601 402.892 746.377 402.668 745.977 402.445C745.251 402.035 744.943 401.979 744.534 401.979C744.366 401.979 744.189 401.989 743.956 401.989C742.327 402.221 737.476 402.901 726.34 406.691C716.423 410.248 708.332 412.771 702.252 414.373C695.166 416.095 688.285 417.017 681.004 417.697C679.309 417.799 677.614 417.846 675.91 417.846C669.858 417.846 663.768 417.203 657.921 415.862C651.245 414.373 644.765 411.849 638.284 408.181C631.803 404.512 627.353 400.611 624.317 396.365C622.753 393.218 621.691 390.005 621.691 386.746V413.395C621.691 416.654 622.753 419.866 624.317 423.013C627.362 427.259 631.813 431.161 638.284 434.829C644.765 438.498 651.236 441.021 657.921 442.511C658.396 442.623 658.871 442.716 659.346 442.818L644.969 450.965V477.614L672.698 461.906V444.438C673.769 444.476 674.83 444.503 675.901 444.503C677.605 444.503 679.309 444.457 680.994 444.355C683.387 444.131 685.743 443.87 688.071 443.582V444.932L692.931 474.988L706.693 474.532C734.226 473.843 757.904 467.763 776.937 456.98C790.494 449.299 798.39 440.919 799.6 431.747C799.861 430.527 799.991 429.298 799.991 428.088V401.439C799.991 402.65 799.861 403.879 799.6 405.099L799.609 405.089Z" fill="#CB5FCE"/>
<path d="M576.346 470.631C581.207 467.875 586.672 466.385 592.333 465.928C596.393 465.928 599.829 466.273 603.674 467.307V440.658C599.829 439.634 596.393 439.28 592.333 439.28C586.672 439.736 581.207 441.226 576.346 443.982C571.7 446.617 568.655 449.951 567.435 454.075C567.156 454.858 567.026 455.649 567.026 456.422V483.07C567.026 482.298 567.156 481.515 567.435 480.724C568.655 476.599 571.691 473.266 576.346 470.631Z" fill="#CB5FCE"/>
<path d="M597.594 477.828V504.477L642.129 479.243V481.311C642.129 481.459 642.129 481.618 642.129 481.767V455.118C642.129 454.969 642.129 454.82 642.129 454.662V452.595L597.594 477.828Z" fill="#CB5FCE"/>
<path d="M661.971 491.124C644.969 500.762 624.922 505.92 603.469 506.153C602.538 506.171 601.607 506.181 600.685 506.181C579.549 506.181 560.619 501.143 543.552 491.469C526.671 481.906 517.974 471.199 517.974 459.467V486.115C517.974 497.856 526.68 508.555 543.552 518.118C557.491 526.014 572.668 530.827 589.288 532.317L552.872 552.951L380.616 455.323V481.972L527.574 565.26C526.811 566.591 525.935 567.923 524.939 569.236C521.699 573.826 516.233 578.305 509.352 582.197C500.246 587.355 490.73 591.368 480.609 594.125C468.662 597.458 456.725 599.171 444.574 599.171C423.121 598.939 402.674 593.091 384.052 582.076C374.536 576.461 367.45 569.692 362.999 562.346C360.541 558.016 359.284 553.621 359.284 549.226V574.869L351.872 579.218C343.315 584.069 341.574 588.054 341.574 590.912V617.561C341.574 614.702 343.315 610.717 351.872 605.866L363.819 598.864V590.288C368.297 597.141 375.104 603.445 384.052 608.734C402.674 619.749 423.121 625.596 444.574 625.829C456.725 625.829 468.672 624.107 480.609 620.782C490.73 618.026 500.246 614.013 509.352 608.855C516.233 604.954 521.699 600.484 524.939 595.894C527.974 591.881 530.004 587.747 530.6 583.733C530.786 582.579 530.861 581.489 530.861 580.475V567.132L552.863 579.599L597.399 554.366V532.773C598.488 532.801 599.577 532.82 600.685 532.82C601.607 532.82 602.538 532.811 603.469 532.792C624.922 532.559 644.969 527.401 661.971 517.764C678.974 508.127 687.875 495.976 688.685 481.972V455.323C687.875 469.327 678.974 481.478 661.971 491.115V491.124Z" fill="#CB5FCE"/>
<path d="M443.159 558.733C448.42 558.277 452.265 558.388 452.88 558.277L463.811 558.956V532.308L452.88 531.628C452.265 531.74 448.42 531.628 443.159 532.084C435.878 532.997 430.207 534.598 425.952 537.01C421.306 539.654 418.875 543.09 418.875 547.448V574.096C418.875 569.739 421.306 566.294 425.952 563.658C430.198 561.247 435.878 559.645 443.159 558.733Z" fill="#CB5FCE"/>
<path d="M477.368 547.718C477.368 546.945 477.266 546.368 477.163 546.079L473.932 539.654V566.303L477.163 572.728C477.266 573.016 477.368 573.593 477.368 574.366V547.718Z" fill="#CB5FCE"/>
<path d="M243.993 595.177V621.825L337.068 674.582L309.981 689.937L206.134 631.09C211.507 627.701 214.198 623.446 214.198 619.2V592.551C214.198 597.114 211.106 601.667 204.933 605.168C198.76 608.669 190.715 610.419 182.67 610.419C174.625 610.419 166.58 608.669 160.398 605.168C154.299 601.713 151.217 597.132 151.217 592.542V619.19C151.217 623.781 154.299 628.371 160.398 631.816C166.571 635.317 174.625 637.068 182.67 637.068C186.301 637.068 189.933 636.695 193.396 635.978V650.522L285.298 702.6C284.534 703.931 283.659 705.263 282.672 706.576C279.432 711.166 273.966 715.645 267.085 719.537C257.979 724.704 248.463 728.718 238.341 731.464C226.395 734.798 214.458 736.511 202.316 736.511C180.854 736.278 160.416 730.431 141.785 719.416C132.278 713.801 125.192 707.032 120.732 699.685C118.274 695.356 117.017 690.97 117.017 686.566V713.214C117.017 717.619 118.274 721.995 120.732 726.334C125.192 733.681 132.269 740.45 141.785 746.064C160.416 757.079 180.854 762.927 202.316 763.16C214.458 763.16 226.404 761.437 238.341 758.113C248.463 755.366 257.979 751.353 267.085 746.185C273.966 742.284 279.432 737.815 282.672 733.224C285.707 729.211 287.737 725.077 288.333 721.064C288.519 719.909 288.594 718.829 288.594 717.814V704.471L309.991 716.594L354.321 691.473V684.368L361.202 688.27L406.138 662.804V636.155L361.202 661.621L244.012 595.195L243.993 595.177Z" fill="#CB5FCE"/>
<path d="M200.873 696.045C206.134 695.588 209.979 695.7 210.594 695.589L221.525 696.278V669.629L210.594 668.94C209.979 669.052 206.134 668.94 200.873 669.396C193.592 670.309 187.931 671.919 183.666 674.322C179.02 676.966 176.59 680.411 176.59 684.76V711.408C176.59 707.06 179.02 703.605 183.666 700.97C187.921 698.568 193.592 696.957 200.873 696.045Z" fill="#CB5FCE"/>
<path d="M235.092 685.03C235.092 684.257 234.989 683.68 234.887 683.391L231.656 676.966V703.615L234.887 710.039C234.989 710.328 235.092 710.905 235.092 711.678V685.03Z" fill="#CB5FCE"/>
<path d="M680.789 379.828C685.035 377.426 689.691 375.471 695.361 373.86C700.622 372.482 705.473 371.569 709.533 371.569L725.725 370.889V344.241L709.533 344.921C705.473 344.921 700.622 345.842 695.361 347.211C689.691 348.813 685.035 350.777 680.789 353.18C677.549 355.023 675.929 356.625 674.709 358.226V384.875C675.929 383.273 677.54 381.662 680.789 379.828Z" fill="#F492F4"/>
<path d="M799.609 378.534C798.399 387.715 790.503 396.085 776.946 403.767C757.914 414.549 734.236 420.63 706.702 421.319L692.94 421.775L692.084 416.458C695.473 415.937 698.844 415.294 702.252 414.466C708.323 412.864 716.423 410.341 726.34 406.784C737.476 402.994 742.327 402.305 743.956 402.082C744.189 402.082 744.366 402.072 744.534 402.072C744.943 402.072 745.251 402.128 745.977 402.538C746.368 402.761 746.601 402.985 746.601 403.357V376.709C746.601 376.336 746.377 376.113 745.977 375.889C745.251 375.48 744.943 375.424 744.534 375.424C744.366 375.424 744.189 375.433 743.956 375.433C742.327 375.666 737.476 376.346 726.34 380.135C716.423 383.692 708.332 386.216 702.252 387.817C695.166 389.54 688.285 390.461 681.004 391.141C679.309 391.244 677.614 391.29 675.91 391.29C669.858 391.29 663.768 390.648 657.921 389.307C651.245 387.817 644.765 385.294 638.284 381.625C631.803 377.957 627.353 374.055 624.317 369.809C622.753 366.662 621.691 363.45 621.691 360.191V386.839C621.691 390.098 622.753 393.311 624.317 396.458C627.362 400.704 631.813 404.605 638.284 408.274C644.765 411.942 651.236 414.466 657.921 415.955C658.396 416.067 658.871 416.16 659.346 416.263L644.969 424.41V451.059L672.698 435.351V417.883C673.769 417.92 674.83 417.948 675.901 417.948C677.605 417.948 679.309 417.901 680.994 417.799C683.387 417.576 685.743 417.315 688.071 417.026V418.376L692.931 448.433L706.693 447.977C734.226 447.287 757.904 441.207 776.937 430.425C790.494 422.743 798.39 414.363 799.6 405.192C799.861 403.972 799.991 402.743 799.991 401.532V374.884C799.991 376.094 799.861 377.323 799.6 378.543L799.609 378.534Z" fill="#F492F4"/>
<path d="M576.346 444.075C581.207 441.319 586.672 439.829 592.333 439.373C596.393 439.373 599.829 439.718 603.674 440.751V414.103C599.829 413.078 596.393 412.724 592.333 412.724C586.672 413.181 581.207 414.671 576.346 417.427C571.7 420.062 568.655 423.395 567.435 427.52C567.156 428.302 567.026 429.094 567.026 429.866V456.515C567.026 455.742 567.156 454.96 567.435 454.169C568.655 450.044 571.691 446.71 576.346 444.075Z" fill="#F492F4"/>
<path d="M597.594 451.263V477.912L642.129 452.679V454.746C642.129 454.895 642.129 455.053 642.129 455.202V428.553C642.129 428.404 642.129 428.255 642.129 428.097V426.03L597.594 451.263Z" fill="#F492F4"/>
<path d="M661.971 464.569C644.969 474.206 624.922 479.364 603.469 479.597C602.538 479.616 601.607 479.625 600.685 479.625C579.549 479.625 560.619 474.588 543.552 464.914C526.671 455.351 517.974 444.643 517.974 432.911V459.56C517.974 471.301 526.68 482 543.552 491.562C557.491 499.458 572.668 504.272 589.288 505.762L552.872 526.395L380.616 428.768V455.416L527.574 538.705C526.811 540.036 525.935 541.368 524.939 542.68C521.699 547.271 516.233 551.749 509.352 555.642C500.246 560.8 490.73 564.813 480.609 567.569C468.662 570.903 456.725 572.616 444.574 572.616C423.121 572.383 402.674 566.536 384.052 555.521C374.536 549.906 367.45 543.137 362.999 535.79C360.541 531.461 359.284 527.066 359.284 522.671V548.314L351.872 552.662C343.315 557.513 341.574 561.498 341.574 564.357V591.005C341.574 588.147 343.315 584.162 351.872 579.311L363.819 572.309V563.733C368.297 570.586 375.104 576.89 384.052 582.178C402.674 593.194 423.121 599.041 444.574 599.274C456.725 599.274 468.672 597.551 480.609 594.227C490.73 591.471 500.246 587.458 509.352 582.299C516.233 578.398 521.699 573.929 524.939 569.338C527.974 565.325 530.004 561.191 530.6 557.178C530.786 556.023 530.861 554.934 530.861 553.919V540.576L552.863 553.044L597.399 527.81V506.218C598.488 506.246 599.577 506.264 600.685 506.264C601.607 506.264 602.538 506.255 603.469 506.237C624.922 506.004 644.969 500.845 661.971 491.208C678.974 481.571 687.875 469.42 688.685 455.416V428.768C687.875 442.772 678.974 454.923 661.971 464.56V464.569Z" fill="#F492F4"/>
<path d="M443.159 532.177C448.42 531.721 452.265 531.833 452.88 531.721L463.811 532.401V505.752L452.88 505.073C452.265 505.184 448.42 505.073 443.159 505.529C435.878 506.441 430.207 508.043 425.952 510.454C421.306 513.099 418.875 516.535 418.875 520.892V547.541C418.875 543.183 421.306 539.738 425.952 537.103C430.198 534.691 435.878 533.09 443.159 532.177Z" fill="#F492F4"/>
<path d="M477.368 521.153C477.368 520.38 477.266 519.803 477.163 519.514L473.932 513.09V539.738L477.163 546.163C477.266 546.452 477.368 547.029 477.368 547.802V521.153Z" fill="#F492F4"/>
<path d="M243.993 568.612V595.261L337.068 648.018L309.981 663.372L206.134 604.525C211.507 601.136 214.198 596.881 214.198 592.635V565.986C214.198 570.549 211.106 575.102 204.933 578.603C198.76 582.104 190.715 583.854 182.67 583.854C174.625 583.854 166.58 582.104 160.398 578.603C154.299 575.148 151.217 570.567 151.217 565.977V592.625C151.217 597.216 154.299 601.806 160.398 605.251C166.571 608.752 174.625 610.503 182.67 610.503C186.301 610.503 189.933 610.131 193.396 609.414V623.958L285.298 676.035C284.534 677.367 283.659 678.698 282.672 680.011C279.432 684.601 273.966 689.08 267.085 692.972C257.979 698.14 248.463 702.153 238.341 704.9C226.395 708.233 214.458 709.946 202.316 709.946C180.854 709.713 160.416 703.866 141.785 692.851C132.278 687.236 125.192 680.467 120.732 673.121C118.274 668.791 117.017 664.405 117.017 660.001V686.65C117.017 691.054 118.274 695.43 120.732 699.769C125.192 707.116 132.269 713.885 141.785 719.499C160.416 730.515 180.854 736.362 202.316 736.595C214.458 736.595 226.404 734.872 238.341 731.548C248.463 728.801 257.979 724.788 267.085 719.621C273.966 715.719 279.432 711.25 282.672 706.659C285.707 702.646 287.737 698.512 288.333 694.499C288.519 693.344 288.594 692.264 288.594 691.249V677.907L309.991 690.03L354.321 664.908V657.804L361.202 661.705L406.138 636.239V609.591L361.202 635.057L244.012 568.631L243.993 568.612Z" fill="#F492F4"/>
<path d="M200.873 669.48C206.134 669.024 209.979 669.135 210.594 669.024L221.525 669.713V643.064L210.594 642.375C209.979 642.487 206.134 642.375 200.873 642.831C193.592 643.744 187.931 645.355 183.666 647.757C179.02 650.401 176.59 653.846 176.59 658.195V684.843C176.59 680.495 179.02 677.041 183.666 674.406C187.921 672.003 193.592 670.392 200.873 669.48Z" fill="#F492F4"/>
<path d="M235.092 658.465C235.092 657.692 234.989 657.115 234.887 656.826L231.656 650.401V677.05L234.887 683.475C234.989 683.763 235.092 684.341 235.092 685.113V658.465Z" fill="#F492F4"/>
<path d="M716.824 316.019L725.734 345.163L709.542 345.842C705.483 345.842 700.631 346.764 695.371 348.133C689.7 349.734 685.045 351.699 680.799 354.101C677.558 355.945 675.938 357.546 674.718 359.148C674.923 359.492 675.119 359.604 675.733 359.958C676.422 360.349 676.841 360.47 677.223 360.47C677.4 360.47 677.568 360.442 677.754 360.414C679.169 360.303 684.84 359.39 701.637 353.533C717.224 348.133 730.79 345.274 743.547 344.697C744.608 344.65 745.67 344.632 746.722 344.632C759.916 344.632 772.374 347.956 783.622 354.325C789.702 357.77 794.348 361.56 797.179 365.917C799.609 370.042 800.624 374.753 799.609 379.446C798.399 388.627 790.503 396.998 776.946 404.68C757.914 415.462 734.236 421.542 706.702 422.231L692.94 422.687L688.08 392.631L702.652 392.175C710.958 391.839 718.639 390.918 724.915 389.428C731.191 387.929 736.256 385.983 740.707 383.459C743.947 381.625 746.172 379.903 746.377 378.413C746.778 377.491 746.582 377.156 745.968 376.811C745.241 376.402 744.934 376.346 744.524 376.346C744.357 376.346 744.18 376.355 743.947 376.355C742.318 376.588 737.466 377.267 726.33 381.057C716.414 384.614 708.323 387.137 702.242 388.739C695.157 390.461 688.276 391.383 680.994 392.063C679.3 392.165 677.605 392.212 675.901 392.212C669.849 392.212 663.759 391.569 657.912 390.229C651.236 388.739 644.755 386.216 638.275 382.547C631.794 378.878 627.343 374.977 624.308 370.731C622.083 366.252 620.872 361.662 622.287 356.96C624.513 348.124 631.999 339.986 644.755 332.76C652.446 328.402 661.562 324.836 671.879 321.745C682.205 318.877 692.931 317.155 703.658 316.577L716.814 316L716.824 316.019Z" fill="#DBF3FD"/>
<path d="M644.969 425.35L688.685 426.272V429.708C687.875 443.712 678.974 455.863 661.972 465.5C644.969 475.137 624.922 480.296 603.469 480.528C602.538 480.547 601.607 480.556 600.685 480.556C579.549 480.556 560.619 475.519 543.552 465.845C525.749 455.751 517.034 444.392 518.049 431.887C519.064 419.382 527.155 408.6 542.537 399.884C558.124 391.048 576.756 386.225 596.793 385.424C598.441 385.359 600.08 385.331 601.7 385.331C620.546 385.331 637.362 389.605 652.456 398.162L672.698 409.633L644.969 425.341V425.35ZM628.768 446.692C637.874 441.533 642.334 435.788 642.129 429.028V426.961L597.594 452.194C599.838 452.53 602.082 452.707 604.373 452.707C606.002 452.707 607.65 452.613 609.335 452.427C617.026 451.738 623.302 449.783 628.768 446.682M567.435 428.442C566.634 430.732 567.035 433.032 568.45 434.978L603.674 415.015C599.829 413.991 596.393 413.637 592.333 413.637C586.672 414.093 581.206 415.583 576.346 418.339C571.7 420.974 568.655 424.308 567.435 428.432" fill="#DBF3FD"/>
<path d="M425.142 404.465L597.408 502.093L552.873 527.336L380.616 429.708L425.142 404.465Z" fill="#DBF3FD"/>
<path d="M442.526 475.538C445.329 475.538 448.234 475.593 451.251 475.705L458.746 476.282L463.811 506.674L452.88 505.994C452.265 506.106 448.42 505.994 443.159 506.451C435.878 507.363 430.207 508.965 425.952 511.376C421.306 514.021 418.876 517.456 418.876 521.814C419.481 526.06 422.721 529.961 428.187 533.062C433.652 536.153 441.139 538.332 448.02 538.565C448.913 538.602 449.77 538.621 450.589 538.621C459.454 538.621 464.268 536.47 467.052 534.896C472.312 531.907 475.953 528.239 476.968 524.915C477.573 522.736 477.368 521.013 477.173 520.436L473.942 514.011L486.288 514.356L526.978 515.38L528.598 518.825C528.803 518.937 529.008 519.281 529.213 519.849C529.418 520.417 529.818 521.339 530.228 522.494C530.628 524.561 531.243 527.652 530.628 531.442C530.023 535.455 527.993 539.589 524.967 543.602C521.727 548.193 516.261 552.671 509.38 556.563C500.274 561.722 490.758 565.735 480.637 568.491C468.69 571.824 456.753 573.538 444.602 573.538C423.149 573.305 402.702 567.457 384.08 556.442C374.564 550.828 367.478 544.058 363.027 536.712C359.387 530.287 358.381 523.751 360.197 517.205C363.027 506.655 372.543 495.985 385.7 488.527L386.11 488.294C395.626 483.136 403.317 480.147 412.218 478.312C421.027 476.459 430.896 475.5 442.545 475.5L442.526 475.538Z" fill="#DBF3FD"/>
<path d="M204.924 554.282C217.279 561.284 217.279 572.532 204.924 579.515C198.75 583.016 190.705 584.767 182.66 584.767C174.616 584.767 166.571 583.016 160.388 579.515C148.246 572.634 148.042 561.275 160.388 554.282C166.534 550.8 174.597 549.077 182.633 549.077C190.743 549.077 198.825 550.828 204.924 554.282Z" fill="#DBF3FD"/>
<path d="M324.349 524.235L363.819 546.6L351.872 553.602C341.546 559.45 341.146 564.04 341.751 566.908C342.962 572.178 352.273 579.981 361.994 585.493L406.119 610.503L361.184 635.969L243.993 569.543L288.929 544.077L296.825 548.323C297.84 540.176 304.516 535.483 312.812 530.548L324.349 524.235Z" fill="#DBF3FD"/>
<path d="M237.717 573.1L354.303 639.172L309.972 664.294L193.387 598.221L237.717 573.1Z" fill="#DBF3FD"/>
<path d="M200.287 612.849C203.08 612.849 205.976 612.905 208.974 613.017L216.46 613.594L221.525 643.995L210.594 643.306C209.98 643.418 206.134 643.306 200.873 643.762C193.592 644.675 187.931 646.286 183.666 648.688C179.02 651.332 176.59 654.778 176.59 659.126C177.195 663.372 180.435 667.282 185.901 670.374C191.366 673.474 198.853 675.653 205.734 675.886C206.609 675.923 207.456 675.942 208.257 675.942C217.149 675.942 221.972 673.782 224.756 672.208C230.017 669.228 233.667 665.55 234.673 662.226C235.287 660.048 235.082 658.325 234.878 657.748L231.647 651.323L243.993 651.668L284.683 652.701L286.303 656.137C286.508 656.249 286.703 656.593 286.908 657.161C287.113 657.738 287.523 658.66 287.923 659.806C288.324 661.873 288.938 664.973 288.324 668.754C287.718 672.767 285.689 676.901 282.663 680.914C279.422 685.504 273.957 689.983 267.076 693.875C257.969 699.043 248.453 703.056 238.332 705.803C226.386 709.136 214.449 710.849 202.307 710.849C180.845 710.617 160.407 704.769 141.775 693.754C132.268 688.139 125.183 681.37 120.723 674.024C117.073 667.599 116.076 661.072 117.892 654.526C120.723 643.977 130.248 633.306 143.405 625.838L143.805 625.606C153.321 620.447 161.012 617.458 169.914 615.624C178.731 613.771 188.61 612.821 200.287 612.821V612.849Z" fill="#DBF3FD"/>
<path d="M716.823 316.019L725.734 345.163L709.542 345.842C705.483 345.842 700.631 346.764 695.371 348.133C689.7 349.734 685.045 351.699 680.799 354.101C677.558 355.945 675.938 357.546 674.718 359.148C674.923 359.492 675.119 359.604 675.733 359.958C676.422 360.349 676.841 360.47 677.223 360.47C677.4 360.47 677.568 360.442 677.754 360.414C679.169 360.303 684.84 359.39 701.637 353.533C717.224 348.133 730.79 345.274 743.546 344.697C744.608 344.65 745.67 344.632 746.722 344.632C759.916 344.632 772.374 347.956 783.622 354.325C789.702 357.77 794.348 361.56 797.179 365.917C799.609 370.042 800.624 374.753 799.609 379.446C798.399 388.627 790.503 396.998 776.946 404.68C757.914 415.462 734.235 421.542 706.702 422.231L692.94 422.687L688.08 392.631L702.652 392.175C710.957 391.839 718.639 390.918 724.915 389.428C731.191 387.929 736.256 385.983 740.707 383.459C743.947 381.625 746.172 379.903 746.377 378.413C746.777 377.491 746.582 377.156 745.967 376.811C745.241 376.402 744.934 376.346 744.524 376.346C744.357 376.346 744.18 376.355 743.947 376.355C742.318 376.588 737.466 377.267 726.33 381.057C716.414 384.614 708.322 387.137 702.242 388.739C695.156 390.461 688.275 391.383 680.994 392.063C679.299 392.165 677.605 392.212 675.901 392.212C669.849 392.212 663.759 391.569 657.912 390.229C651.236 388.739 644.755 386.216 638.275 382.547C631.794 378.878 627.343 374.977 624.308 370.731C622.082 366.252 620.872 361.662 622.287 356.96C624.513 348.124 631.999 339.986 644.755 332.76C652.446 328.402 661.562 324.836 671.878 321.745C682.205 318.877 692.931 317.155 703.658 316.577L716.814 316L716.823 316.019ZM672.698 409.633L652.455 398.162C637.362 389.605 620.546 385.331 601.7 385.331C600.08 385.331 598.451 385.359 596.793 385.424C576.756 386.234 558.124 391.048 542.537 399.884C527.155 408.6 519.064 419.382 518.049 431.887C517.034 444.392 525.74 455.751 543.552 465.845C560.619 475.519 579.549 480.556 600.685 480.556C601.607 480.556 602.538 480.547 603.469 480.528C624.922 480.296 644.969 475.137 661.971 465.5C678.974 455.863 687.875 443.712 688.685 429.708V426.272L644.969 425.35L672.698 409.642V409.633ZM628.768 446.682C623.302 449.783 617.026 451.729 609.335 452.427C607.65 452.613 606.002 452.707 604.373 452.707C602.091 452.707 599.838 452.53 597.594 452.194L642.129 426.961V429.028C642.343 435.788 637.884 441.533 628.768 446.692M567.435 428.451C568.655 424.326 571.69 420.993 576.346 418.358C581.206 415.602 586.672 414.112 592.333 413.656C596.393 413.656 599.829 414 603.674 415.034L568.45 434.997C567.035 433.051 566.634 430.751 567.435 428.46M380.607 429.717L552.863 527.345L597.399 502.112L425.142 404.484L380.607 429.717ZM412.19 478.359C403.279 480.193 395.588 483.182 386.082 488.34L385.672 488.573C372.515 496.022 362.999 506.693 360.169 517.252C358.353 523.788 359.359 530.334 362.999 536.758C367.45 544.105 374.536 550.874 384.052 556.489C402.674 567.504 423.121 573.351 444.574 573.584C456.725 573.584 468.672 571.862 480.609 568.537C490.73 565.781 500.246 561.768 509.352 556.61C516.233 552.709 521.699 548.239 524.939 543.649C527.974 539.636 530.004 535.502 530.6 531.488C531.215 527.699 530.6 524.607 530.2 522.54C529.79 521.386 529.39 520.473 529.185 519.896C528.98 519.319 528.784 518.983 528.57 518.872L526.95 515.427L486.26 514.402L473.914 514.058L477.145 520.483C477.35 521.06 477.545 522.773 476.94 524.961C475.925 528.285 472.284 531.954 467.024 534.943C464.24 536.516 459.426 538.667 450.561 538.667C449.742 538.667 448.885 538.649 447.991 538.611C441.111 538.379 433.624 536.2 428.159 533.109C422.693 530.008 419.453 526.106 418.848 521.861C418.848 517.503 421.278 514.058 425.924 511.423C430.17 509.011 435.85 507.41 443.131 506.497C448.392 506.041 452.237 506.153 452.852 506.041L463.783 506.721L458.718 476.329L451.223 475.752C448.206 475.64 445.301 475.584 442.498 475.584C430.84 475.584 420.98 476.543 412.171 478.396L412.19 478.359ZM182.632 549.096C174.597 549.096 166.543 550.818 160.388 554.301C148.041 561.303 148.246 572.662 160.388 579.534C166.561 583.035 174.616 584.786 182.66 584.786C190.705 584.786 198.75 583.035 204.923 579.534C217.279 572.541 217.279 561.293 204.923 554.301C198.825 550.846 190.743 549.096 182.632 549.096ZM312.803 530.557C304.506 535.492 297.83 540.194 296.815 548.332L288.92 544.086L243.984 569.552L361.174 635.978L406.11 610.512L361.984 585.503C352.263 579.99 342.952 572.197 341.742 566.917C341.137 564.05 341.537 559.459 351.863 553.612L363.809 546.61L324.339 524.244L312.803 530.557ZM193.378 598.24L309.972 664.312L354.303 639.191L237.708 573.119L193.378 598.24ZM169.904 615.671C160.993 617.505 153.302 620.494 143.796 625.652L143.395 625.885C130.239 633.343 120.723 644.014 117.883 654.573C116.067 661.109 117.073 667.646 120.713 674.07C125.173 681.417 132.25 688.186 141.766 693.801C160.397 704.816 180.835 710.663 202.298 710.896C214.439 710.896 226.386 709.173 238.323 705.849C248.444 703.103 257.96 699.089 267.066 693.922C273.947 690.02 279.413 685.551 282.653 680.961C285.689 676.947 287.718 672.813 288.314 668.8C288.929 665.02 288.314 661.919 287.914 659.852C287.514 658.707 287.104 657.785 286.899 657.208C286.694 656.64 286.499 656.295 286.294 656.184L284.674 652.748L243.984 651.714L231.637 651.37L234.868 657.794C235.073 658.372 235.278 660.085 234.663 662.273C233.658 665.597 230.017 669.275 224.747 672.255C221.963 673.828 217.14 675.988 208.248 675.988C207.437 675.988 206.599 675.97 205.724 675.933C198.843 675.7 191.357 673.521 185.891 670.42C180.426 667.329 177.185 663.418 176.58 659.172C176.58 654.824 179.01 651.37 183.657 648.735C187.912 646.332 193.582 644.722 200.864 643.809C206.125 643.353 209.97 643.465 210.585 643.353L221.516 644.042L216.451 613.641L208.965 613.064C205.957 612.952 203.061 612.896 200.277 612.896C188.601 612.896 178.722 613.846 169.904 615.699V615.671Z" fill="url(#paint0_linear_1015_612)"/>
<path d="M573.717 793.995L492.674 840.741L411.63 793.995L492.674 747.162L573.717 793.995Z" fill="#D46BED"/>
<path d="M553.24 746.298L491.032 782.243L428.824 746.298L491.032 710.353L553.24 746.298Z" fill="#F4C3E7"/>
<path d="M701.416 185.65L671.867 202.758L642.232 185.65L671.867 168.541L701.416 185.65Z" fill="#F4649F"/>
<path d="M125.128 151.126L95.5793 168.235L65.9441 151.126L95.5793 134.017L125.128 151.126Z" fill="#8E24F9"/>
<path d="M657.352 213.3L627.803 230.409L598.168 213.3L627.803 196.192L657.352 213.3Z" fill="#8E24F9"/>
<path d="M678.52 141.409L616.312 177.355L554.104 141.409L616.312 105.464L678.52 141.409Z" fill="#DFFFD7"/>
<path d="M491.55 316.336L83.5696 551.882C71.9056 558.622 57.304 550.154 57.304 536.761V257.839C57.304 251.617 60.6736 245.828 66.0304 242.717L474.011 7.08538C485.675 0.345625 500.277 8.72711 500.277 22.2066V301.129C500.277 307.436 496.907 313.226 491.55 316.336Z" fill="#DCB5E5" stroke="#CF7DD3" stroke-width="11" stroke-miterlimit="10"/>
<path d="M500.363 324.891L102.923 554.388C91.6049 560.955 77.3489 552.746 77.3489 539.612V267.948C77.3489 261.9 80.6321 256.283 85.9025 253.173L483.342 23.6755C494.661 17.1086 508.917 25.3173 508.917 38.4511V310.115C508.83 316.25 505.634 321.866 500.363 324.891Z" fill="#CFB1D7" stroke="#CF7DD3" stroke-width="11" stroke-miterlimit="10"/>
<path d="M401.521 280.65L457.854 248.075V272.701L401.521 305.276V280.65Z" fill="white"/>
<path d="M399.707 236.064L456.04 203.489V228.115L399.707 260.69V236.064Z" fill="#FCFCFC"/>
<path d="M211.269 438.689L241.336 421.321V434.455L211.269 451.823V438.689Z" fill="#EDB4E1"/>
<path d="M309.246 383.993L339.314 366.625V379.759L309.246 397.127V383.993Z" fill="#EDB4E1"/>
<path d="M395.733 338.975L425.8 321.607V334.741L395.733 352.109V338.975Z" fill="#EDB4E1"/>
<path d="M446.53 188.065C458.913 166.616 458.935 143.445 446.579 136.311C434.224 129.176 414.169 140.78 401.787 162.229C389.404 183.677 389.382 206.848 401.738 213.983C414.093 221.117 434.148 209.513 446.53 188.065Z" fill="white"/>
<path d="M431.927 170.581C436.746 162.233 436.767 153.222 431.974 150.454C427.18 147.686 419.387 152.21 414.568 160.558C409.749 168.906 409.727 177.917 414.521 180.685C419.314 183.453 427.107 178.929 431.927 170.581Z" fill="#D8CED6"/>
<g clip-path="url(#clip1_1015_612)">
<path d="M166.376 256.103L257.045 206.06C262.562 202.876 291.483 218.596 290.8 229.231L290.211 339.27C286.63 350.332 283.752 356.767 274.077 362.351L182.128 415.19C182.066 415.225 182.002 415.26 181.936 415.293C176.066 418.283 152.028 414.104 152.028 387.853V280.951C152.028 270.7 157.498 261.228 166.376 256.103Z" fill="#363641"/>
<mask id="mask0_1015_612" style="mask-type:luminance" maskUnits="userSpaceOnUse" x="152" y="205" width="139" height="212">
<path d="M257.045 206.06L166.377 256.103C157.498 261.228 152.028 270.7 152.028 280.95V387.853C152.028 414.398 176.611 418.374 182.128 415.189L274.078 362.351C283.752 356.766 286.63 350.332 290.211 339.27L290.801 229.231C291.422 219.545 267.489 205.64 259.045 205.642C258.218 205.642 257.537 205.776 257.045 206.06Z" fill="white"/>
</mask>
<g mask="url(#mask0_1015_612)">
<path d="M194.32 432.879C188.804 436.064 148.901 429.023 148.901 402.477V298.96C142.698 287.612 170.278 307.778 178.089 311.194" fill="#C7C7C7"/>
</g>
<path d="M185.793 275.516L278.387 222.065C283.904 218.88 290.8 222.861 290.8 229.231L290.801 334.649C290.801 345.817 284.841 356.138 275.167 361.723L183.857 414.432C178.34 417.616 171.444 408.872 171.444 399.306V300.364C171.444 290.113 176.914 280.641 185.793 275.516Z" fill="url(#paint1_linear_1015_612)"/>
<path d="M230.376 363.242C226.605 365.419 225.24 370.359 224.358 370.246C222.592 369.708 215.691 365.593 213.765 364.42C210.555 362.328 207.345 359.197 205.9 355.463C204.456 351.624 203.011 348.097 203.011 343.01C203.011 337.819 203.332 331.819 204.857 326.267C206.302 320.865 207.826 315.625 210.635 310.369C213.524 304.964 216.654 299.939 220.265 295.986C223.956 291.986 226.685 289.062 230.457 286.885C234.228 284.708 237.839 283.558 241.531 283.296C242.253 283.294 243.617 283.337 245.142 283.703C255.334 286.23 257.821 288.532 252.525 289.72C249.476 290.338 252.124 296.597 249.235 298.576C249.315 298.737 249.315 298.737 249.315 298.737C245.704 301.237 241.451 302.55 237.037 302.502C236.876 302.49 236.636 302.526 236.395 302.457C234.389 302.681 232.383 303.319 230.376 304.477C228.37 305.635 226.364 307.313 224.438 309.359C222.432 311.555 220.666 314.131 219.141 316.984C217.617 319.837 216.493 322.769 215.691 325.724C214.888 328.679 214.487 331.507 214.487 334.31C214.487 337.113 214.888 339.477 215.691 341.402C216.493 343.43 217.617 345.066 219.141 346.159C220.666 347.251 222.432 347.79 224.438 347.566C226.364 347.492 228.771 346.83 230.938 346.098C233.586 344.985 236.716 343.697 239.525 341.765C241.691 340.307 244.901 336.377 246.988 336.107C250.118 335.754 255.334 339.077 256.056 339.698C257.42 340.883 252.685 341.747 252.846 343.005C253.006 344.158 255.414 343.495 254.692 344.327C250.519 347.982 244.259 351.076 241.531 354C237.92 357.953 234.228 361.019 230.376 363.242Z" fill="url(#paint2_radial_1015_612)"/>
<path d="M241.11 367.179C237.339 369.356 233.647 370.552 230.036 370.768C226.425 371.087 223.135 370.183 220.246 368.113C217.437 366.1 215.351 363.152 213.906 359.313C212.381 355.625 211.659 351.162 211.659 346.075C211.659 340.884 212.381 335.587 213.906 330.035C215.351 324.633 217.437 319.379 220.246 314.124C223.135 308.719 226.425 304.017 230.036 300.064C233.647 296.11 237.419 292.999 241.191 290.822C244.962 288.645 248.574 287.495 252.265 287.233C254.592 287.135 256.839 288.226 258.123 290.185C259.327 292.293 259.487 294.692 258.364 296.794C257.722 297.996 257.08 299.197 256.438 300.398C254.592 303.851 251.061 306.201 247.129 306.394C247.129 306.498 247.129 306.498 247.129 306.394C245.123 306.617 243.117 307.256 241.11 308.414C239.104 309.572 237.098 311.25 235.172 313.296C233.166 315.492 231.4 318.068 229.876 320.921C228.351 323.774 227.227 326.706 226.425 329.661C225.622 332.616 225.221 335.443 225.221 338.247C225.221 341.05 225.622 343.414 226.425 345.339C227.227 347.367 228.351 349.003 229.876 350.096C231.4 351.188 233.166 351.726 235.172 351.503C237.098 351.429 239.104 350.791 241.11 349.632C243.117 348.474 245.123 346.797 247.129 344.601C248.253 343.434 249.376 341.954 250.419 340.418C250.981 339.575 251.864 339.065 252.907 338.878C253.87 338.738 254.913 338.966 255.796 339.495C259.487 342.14 260.37 347.341 257.722 351.05C256.037 353.58 254.191 355.891 252.265 357.937C248.654 361.89 244.962 364.955 241.11 367.179Z" fill="#8C51D7"/>
<mask id="mask1_1015_612" style="mask-type:luminance" maskUnits="userSpaceOnUse" x="171" y="219" width="120" height="196">
<path d="M278.388 221.065L185.793 274.515C176.914 279.641 171.445 289.113 171.445 299.364V406.266C171.445 412.635 178.341 416.616 183.858 413.431L275.167 360.723C284.841 355.138 290.801 344.817 290.801 333.649V228.231C290.801 223.4 286.836 219.943 282.513 219.944C281.135 219.944 279.721 220.295 278.388 221.065Z" fill="white"/>
</mask>
<g mask="url(#mask1_1015_612)">
<path d="M170.206 307.318V282.642L292.136 212.284L292.404 237.143" fill="#40404C"/>
</g>
<path d="M202.665 279.905C205.43 278.309 207.672 274.427 207.672 271.235C207.672 268.042 205.43 266.748 202.665 268.344C199.9 269.94 197.658 273.822 197.658 277.015C197.658 280.207 199.9 281.502 202.665 279.905Z" fill="#2F2F36"/>
<mask id="mask2_1015_612" style="mask-type:luminance" maskUnits="userSpaceOnUse" x="197" y="267" width="11" height="14">
<path d="M202.665 279.906C205.43 278.311 207.672 274.429 207.672 271.236C207.672 268.044 205.43 266.749 202.665 268.344C199.9 269.94 197.658 273.822 197.658 277.015C197.658 280.207 199.9 281.502 202.665 279.906Z" fill="white"/>
</mask>
<g mask="url(#mask2_1015_612)">
<path d="M183.91 246.563C184.279 244.186 185.47 241.12 186.835 239.54C190.27 235.559 195.972 233.878 202.421 235.606C212.907 238.416 221.421 249.184 221.421 259.636C221.421 264.299 219.238 268.537 215.718 271.462C212.643 274.018 205.412 276.483 199.714 275.089" stroke="white" stroke-width="10.868" stroke-miterlimit="1.5" stroke-linecap="square" stroke-linejoin="round"/>
</g>
<path d="M252.57 251.097C255.335 249.501 257.576 245.619 257.576 242.427C257.576 239.234 255.335 237.94 252.57 239.536C249.805 241.132 247.563 245.014 247.563 248.206C247.563 251.399 249.805 252.693 252.57 251.097Z" fill="#2F2F36"/>
<mask id="mask3_1015_612" style="mask-type:luminance" maskUnits="userSpaceOnUse" x="247" y="238" width="11" height="14">
<path d="M252.57 251.098C255.335 249.503 257.576 245.621 257.576 242.428C257.576 239.235 255.335 237.941 252.57 239.536C249.805 241.132 247.563 245.014 247.563 248.206C247.563 251.399 249.805 252.694 252.57 251.098Z" fill="white"/>
</mask>
<g mask="url(#mask3_1015_612)">
<path d="M233.814 217.755C234.184 215.378 235.374 212.312 236.739 210.731C240.174 206.751 245.876 205.07 252.325 206.798C262.811 209.608 271.325 220.376 271.325 230.828C271.325 235.491 269.142 239.729 265.622 242.654C262.547 245.21 255.316 247.675 249.619 246.281" stroke="white" stroke-width="10.868" stroke-miterlimit="1.5" stroke-linecap="square" stroke-linejoin="round"/>
</g>
<path d="M183.908 246.563C184.278 244.186 185.468 241.12 186.833 239.539C190.268 235.557 195.971 233.875 202.419 235.603C212.906 238.412 221.419 249.179 221.419 259.632C221.419 264.296 219.236 268.534 215.717 271.46C213.485 273.315 209.068 275.122 204.635 275.442" stroke="url(#paint3_linear_1015_612)" stroke-width="9.24379" stroke-miterlimit="1.5" stroke-linecap="round" stroke-linejoin="round"/>
<path d="M232.857 220.051C232.246 217.465 235.373 212.312 236.738 210.731C240.173 206.749 245.875 205.067 252.324 206.795C262.81 209.604 271.324 220.371 271.324 230.824C271.324 235.488 269.141 239.727 265.621 242.652C263.39 244.507 258.973 246.314 254.54 246.634" stroke="url(#paint4_linear_1015_612)" stroke-width="9.24379" stroke-miterlimit="1.5" stroke-linecap="round" stroke-linejoin="round"/>
<path d="M229.355 221.325L236.669 217.276C236.669 217.276 238.775 222.952 231.966 223.574" fill="#363641"/>
<path d="M179.151 249.052L193.273 241.32L188.672 248.211L184.941 250.381" fill="#363641"/>
</g>
</g>
<path d="M878.872 291.46L816.664 327.405L754.456 291.46L816.664 255.514L878.872 291.46Z" fill="#C13EA5"/>
<path opacity="0.3" d="M875.416 262.945L813.208 298.891L751 262.945L813.208 227L875.416 262.945Z" fill="#F4C3E7"/>
<path d="M652.293 819C654.44 820.278 656.816 821.057 659.08 822.116C661.208 823.089 663.367 823.986 665.533 824.896C665.798 824.968 666.029 825.133 666.183 825.362C666.337 825.591 666.403 825.868 666.37 826.143C666.407 829.259 666.432 829.259 663.516 830.561C659.703 832.223 655.881 833.886 652.051 835.548V830.219C652.338 829.78 652.783 829.469 653.292 829.352C654.973 828.667 656.673 828.006 658.671 827.277C656.897 826.56 655.383 825.956 653.863 825.376C653.206 825.208 652.59 824.909 652.051 824.497C652.051 822.827 652.051 821.156 652.051 819.511C652.064 819.33 651.822 819 652.293 819Z" fill="white"/>
<path d="M722.864 819.474C725.678 819.299 728.45 820.223 730.601 822.054C731.221 822.565 731.37 822.914 730.743 823.544C729.794 824.503 728.882 825.532 728.051 826.579C727.604 827.127 727.343 827.053 726.872 826.579C725.153 824.958 723.094 824.89 720.947 825.451C720.234 825.638 719.564 826.043 719.495 826.853C719.427 827.663 720.19 828.05 720.866 828.349C721.705 828.716 722.594 828.955 723.503 829.059C724.532 829.174 725.546 829.394 726.531 829.714C729.924 830.854 731.494 832.861 731.686 836.233C731.879 840.104 730.607 842.466 727.157 843.787C724.864 844.747 722.355 845.066 719.897 844.709C717.438 844.353 715.121 843.334 713.192 841.762C712.572 841.275 712.429 840.914 713.062 840.284C714.048 839.3 714.923 838.234 715.841 837.168C716.182 836.763 716.381 836.775 716.772 837.118C717.699 837.916 718.798 838.487 719.982 838.785C721.167 839.084 722.404 839.102 723.596 838.838C724.03 838.766 724.449 838.622 724.837 838.415C725.132 838.284 725.379 838.065 725.544 837.787C725.708 837.508 725.782 837.185 725.755 836.863C725.718 836.567 725.592 836.29 725.395 836.068C725.198 835.845 724.939 835.688 724.651 835.616C723.79 835.303 722.89 835.108 721.977 835.037C720.022 834.866 718.123 834.297 716.393 833.366C715.733 833.034 715.154 832.558 714.7 831.972C714.246 831.387 713.928 830.707 713.769 829.982C712.286 823.787 715.903 820.328 721.313 819.486C721.829 819.441 722.348 819.437 722.864 819.474Z" fill="white"/>
<path d="M777.206 819.474C780.14 819.258 783.04 820.22 785.271 822.147C785.811 822.615 785.891 822.914 785.377 823.463C784.409 824.46 783.484 825.507 782.597 826.579C782.163 827.109 781.908 827.065 781.425 826.579C779.712 824.952 777.646 824.896 775.506 825.444C775.146 825.493 774.81 825.654 774.547 825.906C774.284 826.158 774.107 826.488 774.042 826.847C773.955 827.732 774.737 828.006 775.388 828.311C776.666 828.935 778.081 828.935 779.433 829.259C782.473 829.932 785.153 831.079 785.96 834.532C787.132 839.568 785.066 843.126 780.022 844.323C775.587 845.37 771.424 844.66 767.745 841.761C767.05 841.213 766.982 840.845 767.639 840.197C768.576 839.281 769.414 838.265 770.263 837.261C770.623 836.838 770.828 836.638 771.368 837.131C773.372 838.863 775.748 839.256 778.298 838.782C778.854 838.707 779.372 838.453 779.774 838.059C779.959 837.905 780.101 837.705 780.186 837.479C780.272 837.254 780.297 837.009 780.26 836.771C780.223 836.532 780.125 836.307 779.976 836.118C779.827 835.929 779.631 835.781 779.408 835.691C778.464 835.262 777.447 835.021 776.412 834.98C774.463 834.814 772.568 834.254 770.84 833.335C770.17 832.983 769.587 832.485 769.134 831.876C768.681 831.268 768.369 830.565 768.222 829.82C766.777 823.363 770.952 820.19 775.884 819.48C776.324 819.44 776.766 819.438 777.206 819.474Z" fill="white"/>
<path d="M685.181 832.257C684.803 825.177 688.606 822.185 692.452 820.558C697.322 818.489 703.458 819.623 707.032 823.145C707.596 823.693 707.571 823.949 706.945 824.391C705.704 825.251 704.507 826.18 703.309 827.109C703.235 827.195 703.143 827.263 703.039 827.311C702.936 827.358 702.824 827.382 702.711 827.382C702.597 827.382 702.485 827.358 702.382 827.311C702.278 827.263 702.186 827.195 702.112 827.109C699.047 824.647 695.777 824.734 693.352 827.283C692.149 828.551 691.463 830.226 691.428 831.977C691.394 833.729 692.014 835.429 693.166 836.744C694.236 837.955 695.741 838.688 697.35 838.784C698.959 838.88 700.54 838.33 701.746 837.255C702.577 836.57 702.987 836.701 703.712 837.255C704.736 838.14 705.853 838.944 706.957 839.711C707.497 840.085 707.627 840.334 707.094 840.858C701.82 846.274 691.515 845.551 687.067 839.443C685.62 837.343 684.952 834.8 685.181 832.257Z" fill="white"/>
<path d="M820.752 832.394C820.752 826.161 822.942 822.665 827.955 820.552C832.837 818.533 838.899 819.623 842.534 823.101C843.124 823.668 843.155 823.955 842.454 824.422C841.213 825.258 840.071 826.155 838.917 827.065C838.836 827.159 838.736 827.234 838.624 827.285C838.512 827.337 838.389 827.364 838.266 827.364C838.142 827.364 838.02 827.337 837.908 827.285C837.795 827.234 837.695 827.159 837.614 827.065C834.438 824.497 830.852 824.796 828.464 827.776C827.362 829.205 826.849 831.005 827.03 832.804C827.211 834.603 828.073 836.263 829.438 837.442C830.553 838.335 831.945 838.809 833.371 838.78C834.797 838.752 836.169 838.223 837.248 837.286C838.105 836.588 838.589 836.701 839.327 837.318C840.363 838.19 841.467 838.975 842.572 839.755C843.086 840.116 843.155 840.34 842.683 840.833C837.416 846.299 826.999 845.557 822.576 839.393C821.174 837.345 820.528 834.869 820.752 832.394Z" fill="white"/>
<path d="M839.122 859.25C839.563 857.517 840.053 855.803 840.419 854.058C840.667 852.887 841.535 853.161 842.187 853.273C843.086 853.429 842.485 854.089 842.385 854.52C841.765 857.013 841.064 859.506 840.419 861.999C840.257 862.622 840.047 863.027 839.246 862.99C838.446 862.952 838.123 862.809 837.937 862.005C837.503 860.079 836.882 858.184 836.262 855.947C835.642 858.172 835.121 860.054 834.643 861.955C834.632 862.109 834.589 862.258 834.518 862.395C834.447 862.531 834.349 862.652 834.23 862.749C834.11 862.846 833.973 862.917 833.825 862.958C833.677 863 833.523 863.01 833.371 862.99C832.54 862.99 832.291 862.647 832.13 861.943C831.51 859.4 830.778 856.875 830.145 854.333C830.058 853.996 829.456 853.329 830.362 853.267C830.982 853.229 831.839 852.793 832.093 853.94C832.459 855.567 832.906 857.175 833.334 858.789C833.423 859.054 833.526 859.314 833.644 859.568C834.134 857.698 834.624 856.053 835.009 854.351C835.019 854.178 835.065 854.009 835.144 853.854C835.223 853.7 835.333 853.564 835.467 853.455C835.602 853.346 835.757 853.266 835.924 853.221C836.091 853.175 836.265 853.166 836.436 853.192C837.354 853.192 837.459 853.684 837.615 854.339C838.018 855.984 838.458 857.617 838.855 859.256L839.122 859.25Z" fill="#DDC8F7"/>
<path d="M668.299 844.828C666.234 844.828 664.168 844.828 662.095 844.828C661.388 844.828 661.084 844.66 661.14 843.905C661.196 843.032 661.196 842.155 661.14 841.282C661.109 840.658 661.363 840.471 661.971 840.478C666.314 840.478 670.657 840.478 674.963 840.478C675.689 840.478 675.831 840.77 675.8 841.4C675.754 842.23 675.754 843.063 675.8 843.893C675.85 844.635 675.558 844.84 674.845 844.828C672.673 844.803 670.483 844.828 668.299 844.828Z" fill="#DDC8F7"/>
<path d="M812.755 857.305C812.755 858.901 812.717 860.478 812.755 862.048C812.755 862.821 812.469 862.983 811.774 862.971C811.08 862.958 810.757 862.89 810.769 862.08C810.819 859.418 810.769 856.751 810.769 854.083C810.769 853.797 810.614 853.398 811.042 853.273C811.47 853.148 811.619 853.454 811.843 853.678L817.426 859.287C817.426 857.349 817.457 855.741 817.426 854.133C817.426 853.404 817.631 853.167 818.369 853.173C819.108 853.18 819.43 853.335 819.412 854.164C819.362 856.713 819.412 859.256 819.381 861.805C819.381 862.167 819.616 862.659 819.132 862.865C818.648 863.071 818.425 862.616 818.152 862.348C816.682 860.895 815.224 859.425 813.753 857.985C813.536 857.742 813.35 857.343 812.755 857.305Z" fill="#DDC8F7"/>
<path d="M808.48 856.869C808.48 857.623 808.48 858.378 808.48 859.132C808.48 861.344 806.973 862.803 804.621 862.946C802.27 863.089 800.279 861.7 800.142 859.612C800.006 857.742 800.105 855.797 800.092 853.89C800.092 853.036 800.713 853.267 801.197 853.229C801.681 853.192 802.14 853.279 802.14 853.965C802.115 855.552 802.115 857.141 802.14 858.733C802.14 860.216 802.903 860.97 804.311 860.989C805.719 861.008 806.532 860.235 806.551 858.689C806.569 857.144 806.594 855.666 806.551 854.158C806.551 853.404 806.824 853.211 807.525 853.211C808.226 853.211 808.573 853.342 808.524 854.127C808.437 855.037 808.48 855.953 808.48 856.869Z" fill="#DDC8F7"/>
<path d="M824.611 862.946C823.754 862.942 822.912 862.717 822.166 862.292C821.807 862.049 820.963 861.943 821.366 861.276C821.664 860.783 822.079 859.948 823.029 860.652C823.678 861.064 824.462 861.203 825.213 861.039C825.758 860.964 826.23 860.746 826.298 860.123C826.366 859.499 825.914 859.101 825.337 858.945C824.76 858.789 824.232 858.789 823.705 858.633C822.601 858.303 821.602 857.842 821.515 856.458C821.431 855.859 821.559 855.25 821.876 854.736C822.193 854.222 822.681 853.837 823.252 853.647C823.957 853.316 824.736 853.175 825.511 853.239C826.287 853.302 827.033 853.567 827.676 854.008C827.936 854.171 828.476 854.407 828.042 854.794C827.607 855.18 827.508 856.04 826.701 855.535C826.386 855.326 826.031 855.184 825.659 855.117C825.286 855.051 824.904 855.062 824.536 855.149C824.315 855.166 824.107 855.26 823.947 855.415C823.788 855.57 823.687 855.775 823.662 855.997C823.612 856.564 824.015 856.757 824.437 856.9C824.779 857.005 825.127 857.089 825.479 857.15C827.676 857.623 828.668 858.677 828.451 860.328C828.265 861.799 826.652 862.946 824.611 862.946Z" fill="#DDC8F7"/>
<path d="M744.684 834.525C747.228 834.588 749.778 834.525 752.328 834.525H757.911C760.951 834.525 760.945 834.525 760.846 831.459C760.492 820.434 750.262 817.392 742.959 820.864C738.139 823.145 735.595 828.505 736.513 834.07C737.407 839.48 740.732 843.139 745.919 844.198C749.1 844.84 752.397 844.584 755.442 843.457C756.561 843.046 757.585 842.41 758.451 841.587C759.015 841.057 759.171 840.677 758.488 840.085C757.535 839.239 756.632 838.338 755.783 837.386C755.711 837.271 755.613 837.174 755.498 837.102C755.383 837.03 755.253 836.985 755.118 836.971C754.983 836.957 754.847 836.973 754.719 837.019C754.592 837.065 754.476 837.139 754.381 837.237C752.888 838.174 751.177 838.703 749.418 838.77C746.893 838.951 744.616 837.642 743.896 835.654C743.654 834.862 743.704 834.501 744.684 834.525ZM744.027 828.629C744.399 826.859 746.037 825.6 748.369 825.345C750.702 825.089 753.06 826.367 753.699 828.287C753.978 829.122 753.996 829.627 752.842 829.533C751.533 829.44 750.218 829.533 748.903 829.533C747.588 829.533 746.111 829.502 744.721 829.533C743.971 829.595 743.89 829.284 744.027 828.629Z" fill="white"/>
<path d="M803.616 819.293C796.314 819.293 790.848 824.703 790.842 832.014C790.8 833.694 791.098 835.365 791.716 836.926C792.334 838.488 793.26 839.908 794.438 841.1C795.616 842.293 797.022 843.235 798.572 843.868C800.121 844.501 801.782 844.812 803.454 844.784C810.775 844.828 816.278 839.399 816.297 832.12C816.315 824.84 810.906 819.312 803.616 819.293ZM803.56 838.683C799.838 838.683 797.176 835.953 797.157 832.138C797.157 828.212 799.775 825.426 803.51 825.42C807.245 825.413 809.863 828.106 809.901 831.97C809.938 835.834 807.326 838.683 803.56 838.683Z" fill="white"/>
<path d="M148.176 830.945L85.968 866.891L23.76 830.945L85.968 795L148.176 830.945Z" fill="#FCFFD8"/>
<path d="M38.448 855.658L19.2672 865.422L0 855.658L19.2672 845.894L38.448 855.658Z" fill="#B9D1FF"/>
<defs>
<linearGradient id="paint0_linear_1015_612" x1="121.263" y1="475.659" x2="799.963" y2="552.103" gradientUnits="userSpaceOnUse">
<stop offset="0.13" stop-color="#DBF3FD"/>
<stop offset="0.64" stop-color="#D6D1FE"/>
<stop offset="1" stop-color="#D4BFFF"/>
</linearGradient>
<linearGradient id="paint1_linear_1015_612" x1="183.688" y1="387.589" x2="521.884" y2="-69.9782" gradientUnits="userSpaceOnUse">
<stop stop-color="#F7F7F7"/>
<stop offset="0.47" stop-color="#E3E3E3"/>
<stop offset="1" stop-color="#ACACAC"/>
</linearGradient>
<radialGradient id="paint2_radial_1015_612" cx="0" cy="0" r="1" gradientUnits="userSpaceOnUse" gradientTransform="translate(203.006 342.968) rotate(8.95544) scale(66.7172 75.8879)">
<stop stop-color="#7639D0"/>
<stop offset="1" stop-color="#430B96"/>
</radialGradient>
<linearGradient id="paint3_linear_1015_612" x1="211.542" y1="292.858" x2="134.577" y2="147.675" gradientUnits="userSpaceOnUse">
<stop stop-color="white"/>
<stop offset="0.49" stop-color="#EBEBEB"/>
<stop offset="1" stop-color="#B3B3B3"/>
</linearGradient>
<linearGradient id="paint4_linear_1015_612" x1="211.541" y1="292.861" x2="134.577" y2="147.678" gradientUnits="userSpaceOnUse">
<stop stop-color="white"/>
<stop offset="0.49" stop-color="#EBEBEB"/>
<stop offset="1" stop-color="#B3B3B3"/>
</linearGradient>
<clipPath id="clip0_1015_612">
<rect width="810" height="841" fill="white" transform="translate(37)"/>
</clipPath>
<clipPath id="clip1_1015_612">
<rect width="145" height="231" fill="white" transform="translate(148 203)"/>
</clipPath>
</defs>
</svg>
