<?xml version="1.0" standalone="no"?>
<!DOCTYPE svg PUBLIC "-//W3C//DTD SVG 20010904//EN"
 "http://www.w3.org/TR/2001/REC-SVG-20010904/DTD/svg10.dtd">
<svg version="1.0" xmlns="http://www.w3.org/2000/svg"
 width="2040.000000pt" height="2040.000000pt" viewBox="0 0 2040.000000 2040.000000"
 preserveAspectRatio="xMidYMid meet">
<metadata>
Created by potrace 1.14, written by Peter Selinger 2001-2017
</metadata>
<g transform="translate(0.000000,2040.000000) scale(0.100000,-0.100000)"
fill="#000000" stroke="none">
<path d="M13488 20159 c-21 -6 -38 -14 -38 -17 0 -4 30 -23 67 -42 37 -19 122
-72 190 -116 665 -442 1129 -1179 1203 -1913 40 -399 -55 -771 -277 -1084 -75
-106 -268 -299 -360 -360 -348 -231 -867 -365 -1270 -327 -96 9 -303 49 -397
77 -17 5 -18 12 -11 75 3 39 15 103 25 143 22 86 88 235 104 235 6 -1 38 -7
71 -15 252 -60 676 6 990 156 292 138 520 402 618 714 39 124 51 229 44 394
-9 230 -60 425 -172 658 -254 531 -745 951 -1268 1087 l-97 25 -637 -351
c-351 -193 -780 -429 -953 -525 -173 -96 -772 -427 -1330 -735 -558 -308
-1026 -567 -1038 -575 -23 -14 -21 -16 80 -67 521 -261 968 -715 1232 -1251
127 -257 203 -507 236 -778 20 -154 8 -436 -23 -567 -77 -323 -245 -606 -487
-820 -106 -93 -193 -149 -344 -220 -277 -131 -548 -197 -856 -206 -182 -6
-283 5 -487 53 l-116 27 6 87 c6 91 44 225 92 318 l24 49 58 -14 c85 -21 291
-29 413 -15 209 24 408 79 588 162 300 139 544 422 636 743 89 304 36 683
-144 1051 -283 577 -845 1011 -1425 1100 l-90 13 -535 -296 c-294 -162 -663
-366 -820 -452 -795 -437 -1554 -858 -1630 -903 -122 -74 -299 -210 -418 -322
-339 -321 -601 -768 -711 -1215 -42 -170 -59 -277 -72 -444 -7 -97 -9 -1683
-7 -5026 4 -5345 -1 -4915 58 -5223 140 -734 573 -1316 1211 -1629 235 -116
471 -189 714 -223 168 -24 449 -16 554 14 62 18 151 56 151 64 0 1 -42 2 -93
3 -102 1 -164 20 -271 82 -77 44 -235 203 -303 303 -155 227 -262 533 -293
838 -7 70 -10 1411 -10 4181 l0 4077 198 113 c108 63 1174 674 2367 1360 1194
686 2915 1674 3825 2197 910 523 2053 1179 2540 1459 487 279 993 569 1124
645 l239 137 116 -93 116 -93 8 226 c4 125 6 430 5 677 l-3 450 -28 80 c-99
281 -357 589 -756 904 -636 502 -1532 930 -1981 946 -65 3 -131 0 -152 -6z"/>
<path d="M11887 13294 c-372 -57 -794 -250 -1112 -507 -161 -130 -489 -463
-701 -712 -329 -387 -766 -1123 -961 -1615 -77 -196 -176 -502 -254 -783 -136
-492 -178 -769 -201 -1336 -22 -545 14 -777 199 -1271 78 -210 141 -334 231
-455 86 -117 251 -280 379 -377 148 -111 731 -456 942 -556 348 -166 870 -132
1360 86 391 176 816 495 1189 894 264 282 510 602 594 770 93 187 92 447 -2
640 -70 144 -167 243 -337 346 -218 132 -445 220 -592 229 -155 10 -205 -19
-540 -325 -160 -146 -311 -249 -517 -354 -278 -141 -628 -275 -734 -281 -31
-2 -36 2 -57 43 -83 167 -128 345 -145 572 -36 483 93 1055 358 1588 185 371
366 624 625 875 314 304 626 468 949 500 337 33 607 196 782 475 56 88 225
410 244 465 26 74 30 242 9 325 -29 114 -71 188 -149 265 -40 39 -94 81 -122
95 -27 14 -71 44 -98 68 -62 54 -213 128 -370 182 -160 54 -460 136 -570 155
-107 18 -279 18 -399 -1z"/>
<path d="M15004 6374 c-18 -14 -18 -15 4 -4 12 6 22 13 22 15 0 8 -5 6 -26
-11z"/>
<path d="M14893 6312 c-45 -26 -85 -51 -90 -56 -10 -11 -9 -11 95 49 45 26 82
49 82 51 0 6 -1 6 -87 -44z"/>
<path d="M14758 6234 c-38 -20 -36 -28 2 -9 17 9 30 18 30 20 0 7 -1 6 -32
-11z"/>
<path d="M14688 6194 c-38 -20 -36 -28 2 -9 17 9 30 18 30 20 0 7 -1 6 -32
-11z"/>
<path d="M14618 6154 c-38 -20 -36 -28 2 -9 17 9 30 18 30 20 0 7 -1 6 -32
-11z"/>
<path d="M14554 6114 c-18 -14 -18 -15 4 -4 12 6 22 13 22 15 0 8 -5 6 -26
-11z"/>
<path d="M14498 6084 c-38 -20 -36 -28 2 -9 17 9 30 18 30 20 0 7 -1 6 -32
-11z"/>
<path d="M14428 6044 c-38 -20 -36 -28 2 -9 17 9 30 18 30 20 0 7 -1 6 -32
-11z"/>
<path d="M14358 6004 c-38 -20 -36 -28 2 -9 17 9 30 18 30 20 0 7 -1 6 -32
-11z"/>
<path d="M14294 5964 c-18 -14 -18 -15 4 -4 12 6 22 13 22 15 0 8 -5 6 -26
-11z"/>
<path d="M14224 5924 c-18 -14 -18 -15 4 -4 12 6 22 13 22 15 0 8 -5 6 -26
-11z"/>
<path d="M14154 5884 c-18 -14 -18 -15 4 -4 12 6 22 13 22 15 0 8 -5 6 -26
-11z"/>
<path d="M14034 5814 c-18 -14 -18 -15 4 -4 12 6 22 13 22 15 0 8 -5 6 -26
-11z"/>
<path d="M13964 5774 c-18 -14 -18 -15 4 -4 12 6 22 13 22 15 0 8 -5 6 -26
-11z"/>
<path d="M13894 5734 c-18 -14 -18 -15 4 -4 12 6 22 13 22 15 0 8 -5 6 -26
-11z"/>
</g>
</svg>
