<?xml version="1.0" encoding="UTF-8" standalone="no"?>
<!DOCTYPE svg PUBLIC "-//W3C//DTD SVG 1.1//EN" "http://www.w3.org/Graphics/SVG/1.1/DTD/svg11.dtd">
<svg width="100%" height="100%" viewBox="0 0 615 276" version="1.1" xmlns="http://www.w3.org/2000/svg" xmlns:xlink="http://www.w3.org/1999/xlink" xml:space="preserve" xmlns:serif="http://www.serif.com/" style="fill-rule:evenodd;clip-rule:evenodd;stroke-linecap:round;stroke-linejoin:round;stroke-miterlimit:1.5;">
    <g transform="matrix(1,0,0,1,-2108.07,-1770.3)">
        <g transform="matrix(1,0,0,1,195.284,-871.739)">
            <g transform="matrix(0.175965,0,0,0.208277,1899.55,2694.29)">
                <path d="M570.838,105.026C570.838,103.939 569.793,103.055 568.505,103.055L146.572,103.055C145.285,103.055 144.239,103.939 144.239,105.026L144.239,164.738C144.239,165.825 145.285,166.709 146.572,166.709L568.505,166.709C569.793,166.709 570.838,165.825 570.838,164.738L570.838,105.026Z" style="fill:rgb(242,242,242);"/>
            </g>
            <g transform="matrix(0.187042,0,0,0.208277,1996.16,2694.29)">
                <path d="M570.838,105.026C570.838,103.939 569.855,103.055 568.643,103.055L146.434,103.055C145.223,103.055 144.239,103.939 144.239,105.026L144.239,164.738C144.239,165.825 145.223,166.709 146.434,166.709L568.643,166.709C569.855,166.709 570.838,165.825 570.838,164.738L570.838,105.026Z" style="fill:rgb(242,242,242);"/>
            </g>
            <g transform="matrix(0.134013,0,0,0.208277,2089.75,2694.29)">
                <path d="M570.838,105.026C570.838,103.939 569.465,103.055 567.775,103.055L147.303,103.055C145.612,103.055 144.239,103.939 144.239,105.026L144.239,164.738C144.239,165.825 145.612,166.709 147.303,166.709L567.775,166.709C569.465,166.709 570.838,165.825 570.838,164.738L570.838,105.026Z" style="fill:rgb(146,84,222);"/>
            </g>
            <g transform="matrix(0.335483,0,0,1.0781,1974.74,2628.8)">
                <path d="M570.838,105.026C570.838,103.939 568,103.055 564.504,103.055L150.573,103.055C147.078,103.055 144.239,103.939 144.239,105.026L144.239,164.738C144.239,165.825 147.078,166.709 150.573,166.709L564.504,166.709C568,166.709 570.838,165.825 570.838,164.738L570.838,105.026Z" style="fill:rgb(242,242,242);"/>
            </g>
            <g transform="matrix(0.335483,0,0,0.379439,1974.74,2779.65)">
                <path d="M570.838,105.026C570.838,103.939 569.839,103.055 568.609,103.055L146.469,103.055C145.238,103.055 144.239,103.939 144.239,105.026L144.239,164.738C144.239,165.825 145.238,166.709 146.469,166.709L568.609,166.709C569.839,166.709 570.838,165.825 570.838,164.738L570.838,105.026Z" style="fill:rgb(242,242,242);"/>
            </g>
            <g transform="matrix(0.146539,0,0,0.165738,2261.25,2697.95)">
                <path d="M570.838,118.51C570.838,109.98 563.006,103.055 553.358,103.055L161.719,103.055C152.072,103.055 144.239,109.98 144.239,118.51L144.239,151.254C144.239,159.784 152.072,166.709 161.719,166.709L553.358,166.709C563.006,166.709 570.838,159.784 570.838,151.254L570.838,118.51Z" style="fill:rgb(242,242,242);stroke:rgb(242,242,242);stroke-width:4.81px;"/>
            </g>
            <g transform="matrix(0.146539,0,0,0.165738,2261.25,2717.77)">
                <path d="M570.838,118.51C570.838,109.98 563.006,103.055 553.358,103.055L161.719,103.055C152.072,103.055 144.239,109.98 144.239,118.51L144.239,151.254C144.239,159.784 152.072,166.709 161.719,166.709L553.358,166.709C563.006,166.709 570.838,159.784 570.838,151.254L570.838,118.51Z" style="fill:rgb(242,242,242);stroke:rgb(242,242,242);stroke-width:4.81px;"/>
            </g>
            <g transform="matrix(0.146539,0,0,0.165738,2435,2768.96)">
                <path d="M570.838,118.51C570.838,109.98 563.006,103.055 553.358,103.055L161.719,103.055C152.072,103.055 144.239,109.98 144.239,118.51L144.239,151.254C144.239,159.784 152.072,166.709 161.719,166.709L553.358,166.709C563.006,166.709 570.838,159.784 570.838,151.254L570.838,118.51Z" style="fill:rgb(242,242,242);stroke:rgb(242,242,242);stroke-width:4.81px;"/>
            </g>
            <g transform="matrix(0.146539,0,0,0.165738,2347.34,2768.96)">
                <path d="M570.838,118.51C570.838,109.98 563.006,103.055 553.358,103.055L161.719,103.055C152.072,103.055 144.239,109.98 144.239,118.51L144.239,151.254C144.239,159.784 152.072,166.709 161.719,166.709L553.358,166.709C563.006,166.709 570.838,159.784 570.838,151.254L570.838,118.51Z" style="fill:rgb(146,84,222);"/>
            </g>
            <g transform="matrix(0.146539,0,0,0.165738,2347.34,2841.76)">
                <path d="M570.838,118.51C570.838,109.98 563.006,103.055 553.358,103.055L161.719,103.055C152.072,103.055 144.239,109.98 144.239,118.51L144.239,151.254C144.239,159.784 152.072,166.709 161.719,166.709L553.358,166.709C563.006,166.709 570.838,159.784 570.838,151.254L570.838,118.51Z" style="fill:rgb(242,242,242);stroke:rgb(242,242,242);stroke-width:4.81px;"/>
            </g>
            <g transform="matrix(0.335483,0,0,0.379439,1974.74,2813.69)">
                <path d="M570.838,105.026C570.838,103.939 569.839,103.055 568.609,103.055L146.469,103.055C145.238,103.055 144.239,103.939 144.239,105.026L144.239,164.738C144.239,165.825 145.238,166.709 146.469,166.709L568.609,166.709C569.839,166.709 570.838,165.825 570.838,164.738L570.838,105.026Z" style="fill:rgb(242,242,242);"/>
            </g>
            <g transform="matrix(0.335483,0,0,0.379439,1974.74,2845.81)">
                <path d="M570.838,105.026C570.838,103.939 569.839,103.055 568.609,103.055L146.469,103.055C145.238,103.055 144.239,103.939 144.239,105.026L144.239,164.738C144.239,165.825 145.238,166.709 146.469,166.709L568.609,166.709C569.839,166.709 570.838,165.825 570.838,164.738L570.838,105.026Z" style="fill:rgb(242,242,242);"/>
            </g>
            <g transform="matrix(0.145875,0,0,0.208277,1903.89,2716.17)">
                <path d="M570.838,105.026C570.838,103.939 569.577,103.055 568.024,103.055L147.054,103.055C145.5,103.055 144.239,103.939 144.239,105.026L144.239,164.738C144.239,165.825 145.5,166.709 147.054,166.709L568.024,166.709C569.577,166.709 570.838,165.825 570.838,164.738L570.838,105.026Z" style="fill:rgb(242,242,242);"/>
            </g>
            <g transform="matrix(0.145875,0,0,0.208277,1903.89,2738.05)">
                <path d="M570.838,105.026C570.838,103.939 569.577,103.055 568.024,103.055L147.054,103.055C145.5,103.055 144.239,103.939 144.239,105.026L144.239,164.738C144.239,165.825 145.5,166.709 147.054,166.709L568.024,166.709C569.577,166.709 570.838,165.825 570.838,164.738L570.838,105.026Z" style="fill:rgb(242,242,242);"/>
            </g>
            <g transform="matrix(0.145875,0,0,0.208277,1903.89,2759.93)">
                <path d="M570.838,105.026C570.838,103.939 569.577,103.055 568.024,103.055L147.054,103.055C145.5,103.055 144.239,103.939 144.239,105.026L144.239,164.738C144.239,165.825 145.5,166.709 147.054,166.709L568.024,166.709C569.577,166.709 570.838,165.825 570.838,164.738L570.838,105.026Z" style="fill:rgb(242,242,242);"/>
            </g>
            <g transform="matrix(0.175965,0,0,0.208277,1899.55,2783.43)">
                <path d="M570.838,105.026C570.838,103.939 569.793,103.055 568.505,103.055L146.572,103.055C145.285,103.055 144.239,103.939 144.239,105.026L144.239,164.738C144.239,165.825 145.285,166.709 146.572,166.709L568.505,166.709C569.793,166.709 570.838,165.825 570.838,164.738L570.838,105.026Z" style="fill:rgb(242,242,242);"/>
            </g>
            <g transform="matrix(0.175965,0,0,0.208277,1899.55,2871.1)">
                <path d="M570.838,105.026C570.838,103.939 569.793,103.055 568.505,103.055L146.572,103.055C145.285,103.055 144.239,103.939 144.239,105.026L144.239,164.738C144.239,165.825 145.285,166.709 146.572,166.709L568.505,166.709C569.793,166.709 570.838,165.825 570.838,164.738L570.838,105.026Z" style="fill:rgb(242,242,242);"/>
            </g>
            <g transform="matrix(0.145875,0,0,0.208277,1903.89,2805.32)">
                <path d="M570.838,105.026C570.838,103.939 569.577,103.055 568.024,103.055L147.054,103.055C145.5,103.055 144.239,103.939 144.239,105.026L144.239,164.738C144.239,165.825 145.5,166.709 147.054,166.709L568.024,166.709C569.577,166.709 570.838,165.825 570.838,164.738L570.838,105.026Z" style="fill:rgb(242,242,242);"/>
            </g>
            <g transform="matrix(0.145875,0,0,0.208277,1903.89,2827.2)">
                <path d="M570.838,105.026C570.838,103.939 569.577,103.055 568.024,103.055L147.054,103.055C145.5,103.055 144.239,103.939 144.239,105.026L144.239,164.738C144.239,165.825 145.5,166.709 147.054,166.709L568.024,166.709C569.577,166.709 570.838,165.825 570.838,164.738L570.838,105.026Z" style="fill:rgb(242,242,242);"/>
            </g>
            <g transform="matrix(0.145875,0,0,0.208277,1903.89,2849.08)">
                <path d="M570.838,105.026C570.838,103.939 569.577,103.055 568.024,103.055L147.054,103.055C145.5,103.055 144.239,103.939 144.239,105.026L144.239,164.738C144.239,165.825 145.5,166.709 147.054,166.709L568.024,166.709C569.577,166.709 570.838,165.825 570.838,164.738L570.838,105.026Z" style="fill:rgb(242,242,242);"/>
            </g>
            <g transform="matrix(0.471593,0,0,0.518838,2003.44,2372.96)">
                <path d="M739.384,654.995C739.384,647.13 732.359,640.745 723.706,640.745L590.749,640.745C582.097,640.745 575.072,647.13 575.072,654.995L575.072,747.712C575.072,755.577 582.097,761.962 590.749,761.962L723.706,761.962C732.359,761.962 739.384,755.577 739.384,747.712L739.384,654.995Z" style="fill:none;stroke:rgb(235,235,235);stroke-width:3.03px;"/>
            </g>
            <g transform="matrix(0.8818,0,0,1,65.4028,871.739)">
                <path d="M2205.47,1842.16C2205.47,1835.26 2199.11,1829.65 2191.28,1829.65L2111.43,1829.65C2103.6,1829.65 2097.24,1835.26 2097.24,1842.16L2097.24,2032.78C2097.24,2039.69 2103.6,2045.29 2111.43,2045.29L2191.28,2045.29C2199.11,2045.29 2205.47,2039.69 2205.47,2032.78L2205.47,1842.16Z" style="fill:none;stroke:rgb(242,242,242);stroke-width:1.59px;"/>
            </g>
            <g transform="matrix(0.471593,0,0,0.518838,2089.66,2372.96)">
                <path d="M739.384,654.995C739.384,647.13 732.359,640.745 723.706,640.745L590.749,640.745C582.097,640.745 575.072,647.13 575.072,654.995L575.072,747.712C575.072,755.577 582.097,761.962 590.749,761.962L723.706,761.962C732.359,761.962 739.384,755.577 739.384,747.712L739.384,654.995Z" style="fill:none;stroke:rgb(235,235,235);stroke-width:3.03px;"/>
            </g>
            <g transform="matrix(0.471593,0,0,0.518838,2177.45,2372.96)">
                <path d="M739.384,654.995C739.384,647.13 732.359,640.745 723.706,640.745L590.749,640.745C582.097,640.745 575.072,647.13 575.072,654.995L575.072,747.712C575.072,755.577 582.097,761.962 590.749,761.962L723.706,761.962C732.359,761.962 739.384,755.577 739.384,747.712L739.384,654.995Z" style="fill:none;stroke:rgb(235,235,235);stroke-width:3.03px;"/>
            </g>
            <g transform="matrix(0.471593,0,0,0.518838,2003.44,2445.86)">
                <path d="M739.384,654.995C739.384,647.13 732.359,640.745 723.706,640.745L590.749,640.745C582.097,640.745 575.072,647.13 575.072,654.995L575.072,747.712C575.072,755.577 582.097,761.962 590.749,761.962L723.706,761.962C732.359,761.962 739.384,755.577 739.384,747.712L739.384,654.995Z" style="fill:none;stroke:rgb(235,235,235);stroke-width:3.03px;"/>
            </g>
            <g transform="matrix(0.471593,0,0,0.518838,2003.44,2518.26)">
                <path d="M739.384,654.995C739.384,647.13 732.359,640.745 723.706,640.745L590.749,640.745C582.097,640.745 575.072,647.13 575.072,654.995L575.072,747.712C575.072,755.577 582.097,761.962 590.749,761.962L723.706,761.962C732.359,761.962 739.384,755.577 739.384,747.712L739.384,654.995Z" style="fill:none;stroke:rgb(235,235,235);stroke-width:3.03px;"/>
            </g>
            <g transform="matrix(0.518838,0,0,0.518838,1859.46,2269.03)">
                <circle cx="146.123" cy="762.296" r="40.751" style="fill:none;stroke:rgb(239,233,233);stroke-width:5.2px;"/>
            </g>
            <g transform="matrix(0.471593,0,0,0.518838,2089.66,2445.86)">
                <path d="M739.384,654.995C739.384,647.13 732.359,640.745 723.706,640.745L590.749,640.745C582.097,640.745 575.072,647.13 575.072,654.995L575.072,747.712C575.072,755.577 582.097,761.962 590.749,761.962L723.706,761.962C732.359,761.962 739.384,755.577 739.384,747.712L739.384,654.995Z" style="fill:none;stroke:rgb(235,235,235);stroke-width:3.03px;"/>
            </g>
            <g transform="matrix(0.471593,0,0,0.518838,2089.66,2518.26)">
                <path d="M739.384,654.995C739.384,647.13 732.359,640.745 723.706,640.745L590.749,640.745C582.097,640.745 575.072,647.13 575.072,654.995L575.072,747.712C575.072,755.577 582.097,761.962 590.749,761.962L723.706,761.962C732.359,761.962 739.384,755.577 739.384,747.712L739.384,654.995Z" style="fill:none;stroke:rgb(235,235,235);stroke-width:3.03px;"/>
            </g>
            <g transform="matrix(0.471593,0,0,0.518838,2177.45,2445.86)">
                <path d="M739.384,654.995C739.384,647.13 732.359,640.745 723.706,640.745L590.749,640.745C582.097,640.745 575.072,647.13 575.072,654.995L575.072,747.712C575.072,755.577 582.097,761.962 590.749,761.962L723.706,761.962C732.359,761.962 739.384,755.577 739.384,747.712L739.384,654.995Z" style="fill:none;stroke:rgb(235,235,235);stroke-width:3.03px;"/>
            </g>
            <g transform="matrix(0.471593,0,0,0.518838,2177.45,2518.26)">
                <path d="M739.384,654.995C739.384,647.13 732.359,640.745 723.706,640.745L590.749,640.745C582.097,640.745 575.072,647.13 575.072,654.995L575.072,747.712C575.072,755.577 582.097,761.962 590.749,761.962L723.706,761.962C732.359,761.962 739.384,755.577 739.384,747.712L739.384,654.995Z" style="fill:none;stroke:rgb(235,235,235);stroke-width:3.03px;"/>
            </g>
            <g transform="matrix(0.518838,0,0,0.518838,1921.27,2604.36)">
                <g transform="matrix(1.92739,-0,-0,1.92739,-16.3497,72.6355)">
                    <path d="M491.398,128.679L486.814,144.002L477.306,131.141C481.444,134.048 488.49,132.818 491.398,128.679Z" style="fill:rgb(225,225,225);"/>
                    <path d="M432.109,78.259C432.109,78.259 472.864,79.093 484.844,132.728" style="fill:none;stroke:rgb(225,225,225);stroke-width:1.88px;"/>
                </g>
            </g>
            <g transform="matrix(0.190169,0,0,0.190169,1917.61,2523.16)">
                <path d="M74.738,703.567L74.738,690.557L104.207,690.557L104.207,803.885L89.786,803.885L89.786,703.567L74.738,703.567Z" style="fill:rgb(217,217,217);fill-rule:nonzero;stroke:rgb(169,169,169);stroke-width:1px;stroke-linecap:butt;stroke-miterlimit:2;"/>
            </g>
            <g transform="matrix(0.410572,0,0,0.368868,1938.4,2646.64)">
                <g transform="matrix(30.1071,0,0,30.1071,476.864,215.252)">
                    <path d="M0.327,-0.381L0.525,-0.381L0.525,-0.296L0.327,-0.296L0.327,-0.071L0.236,-0.071L0.236,-0.296L0.038,-0.296L0.038,-0.381L0.236,-0.381L0.236,-0.589L0.327,-0.589L0.327,-0.381Z" style="fill:white;fill-rule:nonzero;"/>
                </g>
            </g>
            <g transform="matrix(0.165743,0,0,0.165743,1945.17,2537.08)">
                <g transform="matrix(156.746,0,0,156.746,152.238,780.341)">
                    <path d="M0.043,-0.349C0.043,-0.417 0.058,-0.478 0.089,-0.533C0.12,-0.587 0.162,-0.629 0.215,-0.66C0.268,-0.691 0.326,-0.706 0.391,-0.706C0.467,-0.706 0.533,-0.688 0.59,-0.651C0.647,-0.614 0.688,-0.562 0.714,-0.495L0.605,-0.495C0.586,-0.537 0.558,-0.569 0.522,-0.592C0.485,-0.615 0.442,-0.626 0.391,-0.626C0.342,-0.626 0.299,-0.615 0.26,-0.592C0.221,-0.569 0.191,-0.537 0.169,-0.496C0.147,-0.454 0.136,-0.405 0.136,-0.349C0.136,-0.294 0.147,-0.245 0.169,-0.204C0.191,-0.162 0.221,-0.13 0.26,-0.107C0.299,-0.084 0.342,-0.073 0.391,-0.073C0.442,-0.073 0.485,-0.084 0.522,-0.107C0.558,-0.129 0.586,-0.161 0.605,-0.203L0.714,-0.203C0.688,-0.136 0.647,-0.085 0.59,-0.049C0.533,-0.012 0.467,0.006 0.391,0.006C0.326,0.006 0.268,-0.009 0.215,-0.04C0.162,-0.07 0.12,-0.112 0.089,-0.166C0.058,-0.22 0.043,-0.281 0.043,-0.349Z" style="fill:rgb(170,170,170);fill-rule:nonzero;"/>
                </g>
                <g transform="matrix(156.746,0,0,156.746,273.246,780.341)">
                    <path d="M0.316,0.009C0.265,0.009 0.218,-0.003 0.177,-0.026C0.135,-0.049 0.102,-0.083 0.079,-0.126C0.055,-0.169 0.043,-0.218 0.043,-0.275C0.043,-0.331 0.055,-0.381 0.08,-0.424C0.104,-0.466 0.137,-0.5 0.179,-0.523C0.221,-0.546 0.268,-0.557 0.32,-0.557C0.372,-0.557 0.419,-0.546 0.461,-0.523C0.503,-0.5 0.536,-0.467 0.561,-0.424C0.585,-0.381 0.597,-0.332 0.597,-0.275C0.597,-0.218 0.584,-0.169 0.56,-0.126C0.535,-0.083 0.501,-0.049 0.458,-0.026C0.415,-0.003 0.368,0.009 0.316,0.009ZM0.316,-0.071C0.349,-0.071 0.379,-0.079 0.408,-0.094C0.437,-0.109 0.46,-0.132 0.478,-0.163C0.495,-0.194 0.504,-0.231 0.504,-0.275C0.504,-0.319 0.495,-0.356 0.478,-0.387C0.461,-0.418 0.438,-0.44 0.41,-0.456C0.382,-0.471 0.352,-0.478 0.319,-0.478C0.286,-0.478 0.255,-0.471 0.228,-0.456C0.2,-0.44 0.178,-0.418 0.161,-0.387C0.144,-0.356 0.136,-0.319 0.136,-0.275C0.136,-0.23 0.144,-0.193 0.161,-0.162C0.177,-0.131 0.199,-0.109 0.226,-0.094C0.253,-0.079 0.283,-0.071 0.316,-0.071Z" style="fill:rgb(170,170,170);fill-rule:nonzero;"/>
                </g>
                <g transform="matrix(156.746,0,0,156.746,373.564,780.341)">
                    <path d="M0.563,-0.548L0.563,-0L0.472,-0L0.472,-0.081C0.455,-0.053 0.431,-0.031 0.4,-0.016C0.369,0 0.334,0.008 0.297,0.008C0.254,0.008 0.216,-0.001 0.182,-0.019C0.148,-0.036 0.121,-0.063 0.102,-0.098C0.082,-0.133 0.072,-0.176 0.072,-0.227L0.072,-0.548L0.162,-0.548L0.162,-0.239C0.162,-0.185 0.176,-0.143 0.203,-0.115C0.23,-0.086 0.268,-0.071 0.315,-0.071C0.364,-0.071 0.402,-0.086 0.43,-0.116C0.458,-0.146 0.472,-0.19 0.472,-0.247L0.472,-0.548L0.563,-0.548Z" style="fill:rgb(170,170,170);fill-rule:nonzero;"/>
                </g>
                <g transform="matrix(156.746,0,0,156.746,473.882,780.341)">
                    <path d="M0.168,-0.459C0.184,-0.49 0.207,-0.515 0.237,-0.532C0.266,-0.549 0.302,-0.558 0.345,-0.558L0.345,-0.464L0.321,-0.464C0.219,-0.464 0.168,-0.409 0.168,-0.298L0.168,-0L0.077,-0L0.077,-0.548L0.168,-0.548L0.168,-0.459Z" style="fill:rgb(170,170,170);fill-rule:nonzero;"/>
                </g>
                <g transform="matrix(156.746,0,0,156.746,532.348,780.341)">
                    <path d="M0.271,0.009C0.229,0.009 0.191,0.002 0.158,-0.013C0.125,-0.027 0.098,-0.047 0.079,-0.073C0.06,-0.098 0.049,-0.128 0.047,-0.161L0.141,-0.161C0.144,-0.134 0.157,-0.111 0.18,-0.094C0.202,-0.077 0.233,-0.068 0.27,-0.068C0.305,-0.068 0.332,-0.076 0.352,-0.091C0.372,-0.106 0.382,-0.126 0.382,-0.149C0.382,-0.173 0.371,-0.191 0.35,-0.203C0.329,-0.214 0.296,-0.226 0.251,-0.237C0.21,-0.248 0.177,-0.259 0.152,-0.27C0.126,-0.281 0.104,-0.297 0.086,-0.319C0.067,-0.34 0.058,-0.369 0.058,-0.404C0.058,-0.432 0.066,-0.458 0.083,-0.481C0.1,-0.504 0.123,-0.523 0.154,-0.537C0.185,-0.55 0.22,-0.557 0.259,-0.557C0.32,-0.557 0.369,-0.542 0.406,-0.511C0.443,-0.48 0.463,-0.438 0.466,-0.385L0.375,-0.385C0.373,-0.414 0.362,-0.437 0.341,-0.454C0.32,-0.471 0.291,-0.48 0.256,-0.48C0.223,-0.48 0.197,-0.473 0.178,-0.459C0.159,-0.445 0.149,-0.427 0.149,-0.404C0.149,-0.386 0.155,-0.371 0.167,-0.36C0.178,-0.348 0.193,-0.339 0.211,-0.332C0.228,-0.325 0.253,-0.317 0.284,-0.308C0.323,-0.297 0.355,-0.287 0.38,-0.277C0.405,-0.266 0.426,-0.251 0.444,-0.23C0.461,-0.209 0.47,-0.182 0.471,-0.149C0.471,-0.119 0.463,-0.092 0.446,-0.068C0.429,-0.044 0.406,-0.025 0.376,-0.012C0.345,0.002 0.31,0.009 0.271,0.009Z" style="fill:rgb(170,170,170);fill-rule:nonzero;"/>
                </g>
                <g transform="matrix(156.746,0,0,156.746,614.17,780.341)">
                    <path d="M0.577,-0.295C0.577,-0.278 0.576,-0.259 0.574,-0.24L0.136,-0.24C0.139,-0.186 0.158,-0.144 0.192,-0.114C0.225,-0.083 0.266,-0.068 0.314,-0.068C0.353,-0.068 0.386,-0.077 0.413,-0.096C0.439,-0.114 0.457,-0.138 0.468,-0.169L0.566,-0.169C0.551,-0.116 0.522,-0.074 0.478,-0.041C0.434,-0.008 0.379,0.009 0.314,0.009C0.262,0.009 0.216,-0.003 0.175,-0.026C0.134,-0.049 0.101,-0.083 0.078,-0.126C0.055,-0.169 0.043,-0.218 0.043,-0.275C0.043,-0.332 0.054,-0.381 0.077,-0.424C0.1,-0.467 0.132,-0.5 0.173,-0.523C0.214,-0.546 0.261,-0.557 0.314,-0.557C0.366,-0.557 0.412,-0.546 0.452,-0.523C0.492,-0.5 0.523,-0.469 0.545,-0.43C0.566,-0.39 0.577,-0.345 0.577,-0.295ZM0.483,-0.314C0.483,-0.349 0.475,-0.379 0.46,-0.404C0.445,-0.429 0.424,-0.448 0.398,-0.461C0.371,-0.474 0.342,-0.48 0.31,-0.48C0.264,-0.48 0.225,-0.465 0.193,-0.436C0.16,-0.407 0.142,-0.366 0.137,-0.314L0.483,-0.314Z" style="fill:rgb(170,170,170);fill-rule:nonzero;"/>
                </g>
                <g transform="matrix(156.746,0,0,156.746,753.204,780.341)">
                    <path d="M0.298,0.007C0.252,0.007 0.211,-0.001 0.175,-0.018C0.138,-0.034 0.11,-0.057 0.089,-0.086C0.068,-0.115 0.058,-0.148 0.057,-0.186L0.154,-0.186C0.157,-0.153 0.171,-0.126 0.195,-0.104C0.218,-0.081 0.253,-0.07 0.298,-0.07C0.341,-0.07 0.376,-0.081 0.401,-0.103C0.426,-0.124 0.438,-0.152 0.438,-0.186C0.438,-0.213 0.431,-0.234 0.416,-0.251C0.401,-0.268 0.383,-0.28 0.361,-0.289C0.339,-0.298 0.309,-0.307 0.272,-0.317C0.226,-0.329 0.189,-0.341 0.162,-0.353C0.134,-0.365 0.11,-0.384 0.091,-0.41C0.071,-0.435 0.061,-0.47 0.061,-0.513C0.061,-0.551 0.071,-0.585 0.09,-0.614C0.109,-0.643 0.137,-0.666 0.172,-0.682C0.207,-0.698 0.247,-0.706 0.292,-0.706C0.357,-0.706 0.411,-0.69 0.453,-0.657C0.494,-0.624 0.518,-0.581 0.523,-0.527L0.423,-0.527C0.42,-0.554 0.406,-0.577 0.381,-0.598C0.356,-0.618 0.324,-0.628 0.283,-0.628C0.245,-0.628 0.214,-0.618 0.19,-0.599C0.166,-0.579 0.154,-0.551 0.154,-0.516C0.154,-0.491 0.161,-0.47 0.176,-0.454C0.19,-0.438 0.208,-0.426 0.229,-0.418C0.25,-0.409 0.279,-0.4 0.317,-0.389C0.363,-0.376 0.4,-0.364 0.428,-0.352C0.456,-0.339 0.48,-0.32 0.5,-0.295C0.52,-0.269 0.53,-0.234 0.53,-0.19C0.53,-0.156 0.521,-0.124 0.503,-0.094C0.485,-0.064 0.458,-0.04 0.423,-0.021C0.388,-0.002 0.346,0.007 0.298,0.007Z" style="fill:rgb(170,170,170);fill-rule:nonzero;"/>
                </g>
                <g transform="matrix(156.746,0,0,156.746,845.214,780.341)">
                    <path d="M0.577,-0.295C0.577,-0.278 0.576,-0.259 0.574,-0.24L0.136,-0.24C0.139,-0.186 0.158,-0.144 0.192,-0.114C0.225,-0.083 0.266,-0.068 0.314,-0.068C0.353,-0.068 0.386,-0.077 0.413,-0.096C0.439,-0.114 0.457,-0.138 0.468,-0.169L0.566,-0.169C0.551,-0.116 0.522,-0.074 0.478,-0.041C0.434,-0.008 0.379,0.009 0.314,0.009C0.262,0.009 0.216,-0.003 0.175,-0.026C0.134,-0.049 0.101,-0.083 0.078,-0.126C0.055,-0.169 0.043,-0.218 0.043,-0.275C0.043,-0.332 0.054,-0.381 0.077,-0.424C0.1,-0.467 0.132,-0.5 0.173,-0.523C0.214,-0.546 0.261,-0.557 0.314,-0.557C0.366,-0.557 0.412,-0.546 0.452,-0.523C0.492,-0.5 0.523,-0.469 0.545,-0.43C0.566,-0.39 0.577,-0.345 0.577,-0.295ZM0.483,-0.314C0.483,-0.349 0.475,-0.379 0.46,-0.404C0.445,-0.429 0.424,-0.448 0.398,-0.461C0.371,-0.474 0.342,-0.48 0.31,-0.48C0.264,-0.48 0.225,-0.465 0.193,-0.436C0.16,-0.407 0.142,-0.366 0.137,-0.314L0.483,-0.314Z" style="fill:rgb(170,170,170);fill-rule:nonzero;"/>
                </g>
                <g transform="matrix(156.746,0,0,156.746,942.397,780.341)">
                    <rect x="0.077" y="-0.74" width="0.091" height="0.74" style="fill:rgb(170,170,170);fill-rule:nonzero;"/>
                </g>
                <g transform="matrix(156.746,0,0,156.746,980.956,780.341)">
                    <path d="M0.577,-0.295C0.577,-0.278 0.576,-0.259 0.574,-0.24L0.136,-0.24C0.139,-0.186 0.158,-0.144 0.192,-0.114C0.225,-0.083 0.266,-0.068 0.314,-0.068C0.353,-0.068 0.386,-0.077 0.413,-0.096C0.439,-0.114 0.457,-0.138 0.468,-0.169L0.566,-0.169C0.551,-0.116 0.522,-0.074 0.478,-0.041C0.434,-0.008 0.379,0.009 0.314,0.009C0.262,0.009 0.216,-0.003 0.175,-0.026C0.134,-0.049 0.101,-0.083 0.078,-0.126C0.055,-0.169 0.043,-0.218 0.043,-0.275C0.043,-0.332 0.054,-0.381 0.077,-0.424C0.1,-0.467 0.132,-0.5 0.173,-0.523C0.214,-0.546 0.261,-0.557 0.314,-0.557C0.366,-0.557 0.412,-0.546 0.452,-0.523C0.492,-0.5 0.523,-0.469 0.545,-0.43C0.566,-0.39 0.577,-0.345 0.577,-0.295ZM0.483,-0.314C0.483,-0.349 0.475,-0.379 0.46,-0.404C0.445,-0.429 0.424,-0.448 0.398,-0.461C0.371,-0.474 0.342,-0.48 0.31,-0.48C0.264,-0.48 0.225,-0.465 0.193,-0.436C0.16,-0.407 0.142,-0.366 0.137,-0.314L0.483,-0.314Z" style="fill:rgb(170,170,170);fill-rule:nonzero;"/>
                </g>
                <g transform="matrix(156.746,0,0,156.746,1078.14,780.341)">
                    <path d="M0.043,-0.275C0.043,-0.332 0.054,-0.381 0.077,-0.424C0.1,-0.466 0.131,-0.499 0.172,-0.522C0.212,-0.545 0.258,-0.557 0.31,-0.557C0.377,-0.557 0.433,-0.541 0.477,-0.508C0.52,-0.475 0.549,-0.43 0.563,-0.372L0.465,-0.372C0.456,-0.405 0.438,-0.432 0.411,-0.451C0.384,-0.47 0.35,-0.48 0.31,-0.48C0.258,-0.48 0.216,-0.462 0.184,-0.427C0.152,-0.391 0.136,-0.34 0.136,-0.275C0.136,-0.209 0.152,-0.158 0.184,-0.122C0.216,-0.086 0.258,-0.068 0.31,-0.068C0.35,-0.068 0.383,-0.077 0.41,-0.096C0.437,-0.115 0.455,-0.141 0.465,-0.176L0.563,-0.176C0.548,-0.12 0.519,-0.075 0.475,-0.042C0.431,-0.008 0.376,0.009 0.31,0.009C0.258,0.009 0.212,-0.003 0.172,-0.026C0.131,-0.049 0.1,-0.082 0.077,-0.125C0.054,-0.168 0.043,-0.218 0.043,-0.275Z" style="fill:rgb(170,170,170);fill-rule:nonzero;"/>
                </g>
                <g transform="matrix(156.746,0,0,156.746,1173.28,780.341)">
                    <path d="M0.188,-0.473L0.188,-0.15C0.188,-0.123 0.194,-0.105 0.205,-0.094C0.216,-0.083 0.236,-0.077 0.264,-0.077L0.331,-0.077L0.331,-0L0.249,-0C0.198,-0 0.16,-0.012 0.135,-0.035C0.11,-0.058 0.097,-0.097 0.097,-0.15L0.097,-0.473L0.026,-0.473L0.026,-0.548L0.097,-0.548L0.097,-0.686L0.188,-0.686L0.188,-0.548L0.331,-0.548L0.331,-0.473L0.188,-0.473Z" style="fill:rgb(170,170,170);fill-rule:nonzero;"/>
                </g>
                <g transform="matrix(156.746,0,0,156.746,1230.34,780.341)">
                    <path d="M0.316,0.009C0.265,0.009 0.218,-0.003 0.177,-0.026C0.135,-0.049 0.102,-0.083 0.079,-0.126C0.055,-0.169 0.043,-0.218 0.043,-0.275C0.043,-0.331 0.055,-0.381 0.08,-0.424C0.104,-0.466 0.137,-0.5 0.179,-0.523C0.221,-0.546 0.268,-0.557 0.32,-0.557C0.372,-0.557 0.419,-0.546 0.461,-0.523C0.503,-0.5 0.536,-0.467 0.561,-0.424C0.585,-0.381 0.597,-0.332 0.597,-0.275C0.597,-0.218 0.584,-0.169 0.56,-0.126C0.535,-0.083 0.501,-0.049 0.458,-0.026C0.415,-0.003 0.368,0.009 0.316,0.009ZM0.316,-0.071C0.349,-0.071 0.379,-0.079 0.408,-0.094C0.437,-0.109 0.46,-0.132 0.478,-0.163C0.495,-0.194 0.504,-0.231 0.504,-0.275C0.504,-0.319 0.495,-0.356 0.478,-0.387C0.461,-0.418 0.438,-0.44 0.41,-0.456C0.382,-0.471 0.352,-0.478 0.319,-0.478C0.286,-0.478 0.255,-0.471 0.228,-0.456C0.2,-0.44 0.178,-0.418 0.161,-0.387C0.144,-0.356 0.136,-0.319 0.136,-0.275C0.136,-0.23 0.144,-0.193 0.161,-0.162C0.177,-0.131 0.199,-0.109 0.226,-0.094C0.253,-0.079 0.283,-0.071 0.316,-0.071Z" style="fill:rgb(170,170,170);fill-rule:nonzero;"/>
                </g>
                <g transform="matrix(156.746,0,0,156.746,1330.66,780.341)">
                    <path d="M0.168,-0.459C0.184,-0.49 0.207,-0.515 0.237,-0.532C0.266,-0.549 0.302,-0.558 0.345,-0.558L0.345,-0.464L0.321,-0.464C0.219,-0.464 0.168,-0.409 0.168,-0.298L0.168,-0L0.077,-0L0.077,-0.548L0.168,-0.548L0.168,-0.459Z" style="fill:rgb(170,170,170);fill-rule:nonzero;"/>
                </g>
            </g>
            <g transform="matrix(0.169567,0,0,0.169567,1945.12,2551.45)">
                <g transform="matrix(62.6074,0,0,62.6074,152.238,780.341)">
                    <path d="M0.298,0.007C0.252,0.007 0.211,-0.001 0.175,-0.018C0.138,-0.034 0.11,-0.057 0.089,-0.086C0.068,-0.115 0.058,-0.148 0.057,-0.186L0.154,-0.186C0.157,-0.153 0.171,-0.126 0.195,-0.104C0.218,-0.081 0.253,-0.07 0.298,-0.07C0.341,-0.07 0.376,-0.081 0.401,-0.103C0.426,-0.124 0.438,-0.152 0.438,-0.186C0.438,-0.213 0.431,-0.234 0.416,-0.251C0.401,-0.268 0.383,-0.28 0.361,-0.289C0.339,-0.298 0.309,-0.307 0.272,-0.317C0.226,-0.329 0.189,-0.341 0.162,-0.353C0.134,-0.365 0.11,-0.384 0.091,-0.41C0.071,-0.435 0.061,-0.47 0.061,-0.513C0.061,-0.551 0.071,-0.585 0.09,-0.614C0.109,-0.643 0.137,-0.666 0.172,-0.682C0.207,-0.698 0.247,-0.706 0.292,-0.706C0.357,-0.706 0.411,-0.69 0.453,-0.657C0.494,-0.624 0.518,-0.581 0.523,-0.527L0.423,-0.527C0.42,-0.554 0.406,-0.577 0.381,-0.598C0.356,-0.618 0.324,-0.628 0.283,-0.628C0.245,-0.628 0.214,-0.618 0.19,-0.599C0.166,-0.579 0.154,-0.551 0.154,-0.516C0.154,-0.491 0.161,-0.47 0.176,-0.454C0.19,-0.438 0.208,-0.426 0.229,-0.418C0.25,-0.409 0.279,-0.4 0.317,-0.389C0.363,-0.376 0.4,-0.364 0.428,-0.352C0.456,-0.339 0.48,-0.32 0.5,-0.295C0.52,-0.269 0.53,-0.234 0.53,-0.19C0.53,-0.156 0.521,-0.124 0.503,-0.094C0.485,-0.064 0.458,-0.04 0.423,-0.021C0.388,-0.002 0.346,0.007 0.298,0.007Z" style="fill:rgb(170,170,170);fill-rule:nonzero;"/>
                </g>
                <g transform="matrix(62.6074,0,0,62.6074,188.989,780.341)">
                    <path d="M0.577,-0.295C0.577,-0.278 0.576,-0.259 0.574,-0.24L0.136,-0.24C0.139,-0.186 0.158,-0.144 0.192,-0.114C0.225,-0.083 0.266,-0.068 0.314,-0.068C0.353,-0.068 0.386,-0.077 0.413,-0.096C0.439,-0.114 0.457,-0.138 0.468,-0.169L0.566,-0.169C0.551,-0.116 0.522,-0.074 0.478,-0.041C0.434,-0.008 0.379,0.009 0.314,0.009C0.262,0.009 0.216,-0.003 0.175,-0.026C0.134,-0.049 0.101,-0.083 0.078,-0.126C0.055,-0.169 0.043,-0.218 0.043,-0.275C0.043,-0.332 0.054,-0.381 0.077,-0.424C0.1,-0.467 0.132,-0.5 0.173,-0.523C0.214,-0.546 0.261,-0.557 0.314,-0.557C0.366,-0.557 0.412,-0.546 0.452,-0.523C0.492,-0.5 0.523,-0.469 0.545,-0.43C0.566,-0.39 0.577,-0.345 0.577,-0.295ZM0.483,-0.314C0.483,-0.349 0.475,-0.379 0.46,-0.404C0.445,-0.429 0.424,-0.448 0.398,-0.461C0.371,-0.474 0.342,-0.48 0.31,-0.48C0.264,-0.48 0.225,-0.465 0.193,-0.436C0.16,-0.407 0.142,-0.366 0.137,-0.314L0.483,-0.314Z" style="fill:rgb(170,170,170);fill-rule:nonzero;"/>
                </g>
                <g transform="matrix(62.6074,0,0,62.6074,227.805,780.341)">
                    <rect x="0.077" y="-0.74" width="0.091" height="0.74" style="fill:rgb(170,170,170);fill-rule:nonzero;"/>
                </g>
                <g transform="matrix(62.6074,0,0,62.6074,243.207,780.341)">
                    <path d="M0.577,-0.295C0.577,-0.278 0.576,-0.259 0.574,-0.24L0.136,-0.24C0.139,-0.186 0.158,-0.144 0.192,-0.114C0.225,-0.083 0.266,-0.068 0.314,-0.068C0.353,-0.068 0.386,-0.077 0.413,-0.096C0.439,-0.114 0.457,-0.138 0.468,-0.169L0.566,-0.169C0.551,-0.116 0.522,-0.074 0.478,-0.041C0.434,-0.008 0.379,0.009 0.314,0.009C0.262,0.009 0.216,-0.003 0.175,-0.026C0.134,-0.049 0.101,-0.083 0.078,-0.126C0.055,-0.169 0.043,-0.218 0.043,-0.275C0.043,-0.332 0.054,-0.381 0.077,-0.424C0.1,-0.467 0.132,-0.5 0.173,-0.523C0.214,-0.546 0.261,-0.557 0.314,-0.557C0.366,-0.557 0.412,-0.546 0.452,-0.523C0.492,-0.5 0.523,-0.469 0.545,-0.43C0.566,-0.39 0.577,-0.345 0.577,-0.295ZM0.483,-0.314C0.483,-0.349 0.475,-0.379 0.46,-0.404C0.445,-0.429 0.424,-0.448 0.398,-0.461C0.371,-0.474 0.342,-0.48 0.31,-0.48C0.264,-0.48 0.225,-0.465 0.193,-0.436C0.16,-0.407 0.142,-0.366 0.137,-0.314L0.483,-0.314Z" style="fill:rgb(170,170,170);fill-rule:nonzero;"/>
                </g>
                <g transform="matrix(62.6074,0,0,62.6074,282.023,780.341)">
                    <path d="M0.043,-0.275C0.043,-0.332 0.054,-0.381 0.077,-0.424C0.1,-0.466 0.131,-0.499 0.172,-0.522C0.212,-0.545 0.258,-0.557 0.31,-0.557C0.377,-0.557 0.433,-0.541 0.477,-0.508C0.52,-0.475 0.549,-0.43 0.563,-0.372L0.465,-0.372C0.456,-0.405 0.438,-0.432 0.411,-0.451C0.384,-0.47 0.35,-0.48 0.31,-0.48C0.258,-0.48 0.216,-0.462 0.184,-0.427C0.152,-0.391 0.136,-0.34 0.136,-0.275C0.136,-0.209 0.152,-0.158 0.184,-0.122C0.216,-0.086 0.258,-0.068 0.31,-0.068C0.35,-0.068 0.383,-0.077 0.41,-0.096C0.437,-0.115 0.455,-0.141 0.465,-0.176L0.563,-0.176C0.548,-0.12 0.519,-0.075 0.475,-0.042C0.431,-0.008 0.376,0.009 0.31,0.009C0.258,0.009 0.212,-0.003 0.172,-0.026C0.131,-0.049 0.1,-0.082 0.077,-0.125C0.054,-0.168 0.043,-0.218 0.043,-0.275Z" style="fill:rgb(170,170,170);fill-rule:nonzero;"/>
                </g>
                <g transform="matrix(62.6074,0,0,62.6074,320.026,780.341)">
                    <path d="M0.188,-0.473L0.188,-0.15C0.188,-0.123 0.194,-0.105 0.205,-0.094C0.216,-0.083 0.236,-0.077 0.264,-0.077L0.331,-0.077L0.331,-0L0.249,-0C0.198,-0 0.16,-0.012 0.135,-0.035C0.11,-0.058 0.097,-0.097 0.097,-0.15L0.097,-0.473L0.026,-0.473L0.026,-0.548L0.097,-0.548L0.097,-0.686L0.188,-0.686L0.188,-0.548L0.331,-0.548L0.331,-0.473L0.188,-0.473Z" style="fill:rgb(170,170,170);fill-rule:nonzero;"/>
                </g>
                <g transform="matrix(62.6074,0,0,62.6074,359.531,780.341)">
                    <path d="M0.549,-0.548L0.219,0.258L0.125,0.258L0.233,-0.006L0.012,-0.548L0.113,-0.548L0.285,-0.104L0.455,-0.548L0.549,-0.548Z" style="fill:rgb(170,170,170);fill-rule:nonzero;"/>
                </g>
                <g transform="matrix(62.6074,0,0,62.6074,394.779,780.341)">
                    <path d="M0.316,0.009C0.265,0.009 0.218,-0.003 0.177,-0.026C0.135,-0.049 0.102,-0.083 0.079,-0.126C0.055,-0.169 0.043,-0.218 0.043,-0.275C0.043,-0.331 0.055,-0.381 0.08,-0.424C0.104,-0.466 0.137,-0.5 0.179,-0.523C0.221,-0.546 0.268,-0.557 0.32,-0.557C0.372,-0.557 0.419,-0.546 0.461,-0.523C0.503,-0.5 0.536,-0.467 0.561,-0.424C0.585,-0.381 0.597,-0.332 0.597,-0.275C0.597,-0.218 0.584,-0.169 0.56,-0.126C0.535,-0.083 0.501,-0.049 0.458,-0.026C0.415,-0.003 0.368,0.009 0.316,0.009ZM0.316,-0.071C0.349,-0.071 0.379,-0.079 0.408,-0.094C0.437,-0.109 0.46,-0.132 0.478,-0.163C0.495,-0.194 0.504,-0.231 0.504,-0.275C0.504,-0.319 0.495,-0.356 0.478,-0.387C0.461,-0.418 0.438,-0.44 0.41,-0.456C0.382,-0.471 0.352,-0.478 0.319,-0.478C0.286,-0.478 0.255,-0.471 0.228,-0.456C0.2,-0.44 0.178,-0.418 0.161,-0.387C0.144,-0.356 0.136,-0.319 0.136,-0.275C0.136,-0.23 0.144,-0.193 0.161,-0.162C0.177,-0.131 0.199,-0.109 0.226,-0.094C0.253,-0.079 0.283,-0.071 0.316,-0.071Z" style="fill:rgb(170,170,170);fill-rule:nonzero;"/>
                </g>
                <g transform="matrix(62.6074,0,0,62.6074,434.848,780.341)">
                    <path d="M0.563,-0.548L0.563,-0L0.472,-0L0.472,-0.081C0.455,-0.053 0.431,-0.031 0.4,-0.016C0.369,0 0.334,0.008 0.297,0.008C0.254,0.008 0.216,-0.001 0.182,-0.019C0.148,-0.036 0.121,-0.063 0.102,-0.098C0.082,-0.133 0.072,-0.176 0.072,-0.227L0.072,-0.548L0.162,-0.548L0.162,-0.239C0.162,-0.185 0.176,-0.143 0.203,-0.115C0.23,-0.086 0.268,-0.071 0.315,-0.071C0.364,-0.071 0.402,-0.086 0.43,-0.116C0.458,-0.146 0.472,-0.19 0.472,-0.247L0.472,-0.548L0.563,-0.548Z" style="fill:rgb(170,170,170);fill-rule:nonzero;"/>
                </g>
                <g transform="matrix(62.6074,0,0,62.6074,474.917,780.341)">
                    <path d="M0.168,-0.459C0.184,-0.49 0.207,-0.515 0.237,-0.532C0.266,-0.549 0.302,-0.558 0.345,-0.558L0.345,-0.464L0.321,-0.464C0.219,-0.464 0.168,-0.409 0.168,-0.298L0.168,-0L0.077,-0L0.077,-0.548L0.168,-0.548L0.168,-0.459Z" style="fill:rgb(170,170,170);fill-rule:nonzero;"/>
                </g>
                <g transform="matrix(62.6074,0,0,62.6074,514.985,780.341)">
                    <path d="M0.043,-0.275C0.043,-0.332 0.054,-0.381 0.077,-0.424C0.1,-0.466 0.131,-0.499 0.172,-0.522C0.212,-0.545 0.258,-0.557 0.31,-0.557C0.377,-0.557 0.433,-0.541 0.477,-0.508C0.52,-0.475 0.549,-0.43 0.563,-0.372L0.465,-0.372C0.456,-0.405 0.438,-0.432 0.411,-0.451C0.384,-0.47 0.35,-0.48 0.31,-0.48C0.258,-0.48 0.216,-0.462 0.184,-0.427C0.152,-0.391 0.136,-0.34 0.136,-0.275C0.136,-0.209 0.152,-0.158 0.184,-0.122C0.216,-0.086 0.258,-0.068 0.31,-0.068C0.35,-0.068 0.383,-0.077 0.41,-0.096C0.437,-0.115 0.455,-0.141 0.465,-0.176L0.563,-0.176C0.548,-0.12 0.519,-0.075 0.475,-0.042C0.431,-0.008 0.376,0.009 0.31,0.009C0.258,0.009 0.212,-0.003 0.172,-0.026C0.131,-0.049 0.1,-0.082 0.077,-0.125C0.054,-0.168 0.043,-0.218 0.043,-0.275Z" style="fill:rgb(170,170,170);fill-rule:nonzero;"/>
                </g>
                <g transform="matrix(62.6074,0,0,62.6074,552.988,780.341)">
                    <path d="M0.316,0.009C0.265,0.009 0.218,-0.003 0.177,-0.026C0.135,-0.049 0.102,-0.083 0.079,-0.126C0.055,-0.169 0.043,-0.218 0.043,-0.275C0.043,-0.331 0.055,-0.381 0.08,-0.424C0.104,-0.466 0.137,-0.5 0.179,-0.523C0.221,-0.546 0.268,-0.557 0.32,-0.557C0.372,-0.557 0.419,-0.546 0.461,-0.523C0.503,-0.5 0.536,-0.467 0.561,-0.424C0.585,-0.381 0.597,-0.332 0.597,-0.275C0.597,-0.218 0.584,-0.169 0.56,-0.126C0.535,-0.083 0.501,-0.049 0.458,-0.026C0.415,-0.003 0.368,0.009 0.316,0.009ZM0.316,-0.071C0.349,-0.071 0.379,-0.079 0.408,-0.094C0.437,-0.109 0.46,-0.132 0.478,-0.163C0.495,-0.194 0.504,-0.231 0.504,-0.275C0.504,-0.319 0.495,-0.356 0.478,-0.387C0.461,-0.418 0.438,-0.44 0.41,-0.456C0.382,-0.471 0.352,-0.478 0.319,-0.478C0.286,-0.478 0.255,-0.471 0.228,-0.456C0.2,-0.44 0.178,-0.418 0.161,-0.387C0.144,-0.356 0.136,-0.319 0.136,-0.275C0.136,-0.23 0.144,-0.193 0.161,-0.162C0.177,-0.131 0.199,-0.109 0.226,-0.094C0.253,-0.079 0.283,-0.071 0.316,-0.071Z" style="fill:rgb(170,170,170);fill-rule:nonzero;"/>
                </g>
                <g transform="matrix(62.6074,0,0,62.6074,593.057,780.341)">
                    <path d="M0.563,-0.548L0.563,-0L0.472,-0L0.472,-0.081C0.455,-0.053 0.431,-0.031 0.4,-0.016C0.369,0 0.334,0.008 0.297,0.008C0.254,0.008 0.216,-0.001 0.182,-0.019C0.148,-0.036 0.121,-0.063 0.102,-0.098C0.082,-0.133 0.072,-0.176 0.072,-0.227L0.072,-0.548L0.162,-0.548L0.162,-0.239C0.162,-0.185 0.176,-0.143 0.203,-0.115C0.23,-0.086 0.268,-0.071 0.315,-0.071C0.364,-0.071 0.402,-0.086 0.43,-0.116C0.458,-0.146 0.472,-0.19 0.472,-0.247L0.472,-0.548L0.563,-0.548Z" style="fill:rgb(170,170,170);fill-rule:nonzero;"/>
                </g>
                <g transform="matrix(62.6074,0,0,62.6074,633.125,780.341)">
                    <path d="M0.168,-0.459C0.184,-0.49 0.207,-0.515 0.237,-0.532C0.266,-0.549 0.302,-0.558 0.345,-0.558L0.345,-0.464L0.321,-0.464C0.219,-0.464 0.168,-0.409 0.168,-0.298L0.168,-0L0.077,-0L0.077,-0.548L0.168,-0.548L0.168,-0.459Z" style="fill:rgb(170,170,170);fill-rule:nonzero;"/>
                </g>
                <g transform="matrix(62.6074,0,0,62.6074,656.478,780.341)">
                    <path d="M0.271,0.009C0.229,0.009 0.191,0.002 0.158,-0.013C0.125,-0.027 0.098,-0.047 0.079,-0.073C0.06,-0.098 0.049,-0.128 0.047,-0.161L0.141,-0.161C0.144,-0.134 0.157,-0.111 0.18,-0.094C0.202,-0.077 0.233,-0.068 0.27,-0.068C0.305,-0.068 0.332,-0.076 0.352,-0.091C0.372,-0.106 0.382,-0.126 0.382,-0.149C0.382,-0.173 0.371,-0.191 0.35,-0.203C0.329,-0.214 0.296,-0.226 0.251,-0.237C0.21,-0.248 0.177,-0.259 0.152,-0.27C0.126,-0.281 0.104,-0.297 0.086,-0.319C0.067,-0.34 0.058,-0.369 0.058,-0.404C0.058,-0.432 0.066,-0.458 0.083,-0.481C0.1,-0.504 0.123,-0.523 0.154,-0.537C0.185,-0.55 0.22,-0.557 0.259,-0.557C0.32,-0.557 0.369,-0.542 0.406,-0.511C0.443,-0.48 0.463,-0.438 0.466,-0.385L0.375,-0.385C0.373,-0.414 0.362,-0.437 0.341,-0.454C0.32,-0.471 0.291,-0.48 0.256,-0.48C0.223,-0.48 0.197,-0.473 0.178,-0.459C0.159,-0.445 0.149,-0.427 0.149,-0.404C0.149,-0.386 0.155,-0.371 0.167,-0.36C0.178,-0.348 0.193,-0.339 0.211,-0.332C0.228,-0.325 0.253,-0.317 0.284,-0.308C0.323,-0.297 0.355,-0.287 0.38,-0.277C0.405,-0.266 0.426,-0.251 0.444,-0.23C0.461,-0.209 0.47,-0.182 0.471,-0.149C0.471,-0.119 0.463,-0.092 0.446,-0.068C0.429,-0.044 0.406,-0.025 0.376,-0.012C0.345,0.002 0.31,0.009 0.271,0.009Z" style="fill:rgb(170,170,170);fill-rule:nonzero;"/>
                </g>
                <g transform="matrix(62.6074,0,0,62.6074,689.159,780.341)">
                    <path d="M0.577,-0.295C0.577,-0.278 0.576,-0.259 0.574,-0.24L0.136,-0.24C0.139,-0.186 0.158,-0.144 0.192,-0.114C0.225,-0.083 0.266,-0.068 0.314,-0.068C0.353,-0.068 0.386,-0.077 0.413,-0.096C0.439,-0.114 0.457,-0.138 0.468,-0.169L0.566,-0.169C0.551,-0.116 0.522,-0.074 0.478,-0.041C0.434,-0.008 0.379,0.009 0.314,0.009C0.262,0.009 0.216,-0.003 0.175,-0.026C0.134,-0.049 0.101,-0.083 0.078,-0.126C0.055,-0.169 0.043,-0.218 0.043,-0.275C0.043,-0.332 0.054,-0.381 0.077,-0.424C0.1,-0.467 0.132,-0.5 0.173,-0.523C0.214,-0.546 0.261,-0.557 0.314,-0.557C0.366,-0.557 0.412,-0.546 0.452,-0.523C0.492,-0.5 0.523,-0.469 0.545,-0.43C0.566,-0.39 0.577,-0.345 0.577,-0.295ZM0.483,-0.314C0.483,-0.349 0.475,-0.379 0.46,-0.404C0.445,-0.429 0.424,-0.448 0.398,-0.461C0.371,-0.474 0.342,-0.48 0.31,-0.48C0.264,-0.48 0.225,-0.465 0.193,-0.436C0.16,-0.407 0.142,-0.366 0.137,-0.314L0.483,-0.314Z" style="fill:rgb(170,170,170);fill-rule:nonzero;"/>
                </g>
                <g transform="matrix(62.6074,0,0,62.6074,727.976,780.341)">
                    <path d="M0.271,0.009C0.229,0.009 0.191,0.002 0.158,-0.013C0.125,-0.027 0.098,-0.047 0.079,-0.073C0.06,-0.098 0.049,-0.128 0.047,-0.161L0.141,-0.161C0.144,-0.134 0.157,-0.111 0.18,-0.094C0.202,-0.077 0.233,-0.068 0.27,-0.068C0.305,-0.068 0.332,-0.076 0.352,-0.091C0.372,-0.106 0.382,-0.126 0.382,-0.149C0.382,-0.173 0.371,-0.191 0.35,-0.203C0.329,-0.214 0.296,-0.226 0.251,-0.237C0.21,-0.248 0.177,-0.259 0.152,-0.27C0.126,-0.281 0.104,-0.297 0.086,-0.319C0.067,-0.34 0.058,-0.369 0.058,-0.404C0.058,-0.432 0.066,-0.458 0.083,-0.481C0.1,-0.504 0.123,-0.523 0.154,-0.537C0.185,-0.55 0.22,-0.557 0.259,-0.557C0.32,-0.557 0.369,-0.542 0.406,-0.511C0.443,-0.48 0.463,-0.438 0.466,-0.385L0.375,-0.385C0.373,-0.414 0.362,-0.437 0.341,-0.454C0.32,-0.471 0.291,-0.48 0.256,-0.48C0.223,-0.48 0.197,-0.473 0.178,-0.459C0.159,-0.445 0.149,-0.427 0.149,-0.404C0.149,-0.386 0.155,-0.371 0.167,-0.36C0.178,-0.348 0.193,-0.339 0.211,-0.332C0.228,-0.325 0.253,-0.317 0.284,-0.308C0.323,-0.297 0.355,-0.287 0.38,-0.277C0.405,-0.266 0.426,-0.251 0.444,-0.23C0.461,-0.209 0.47,-0.182 0.471,-0.149C0.471,-0.119 0.463,-0.092 0.446,-0.068C0.429,-0.044 0.406,-0.025 0.376,-0.012C0.345,0.002 0.31,0.009 0.271,0.009Z" style="fill:rgb(170,170,170);fill-rule:nonzero;"/>
                </g>
            </g>
            <g transform="matrix(0.518838,0,0,0.518838,2216.19,2271.13)">
                <circle cx="146.123" cy="762.296" r="40.751" style="fill:none;stroke:rgb(239,233,233);stroke-width:5.2px;"/>
            </g>
            <g transform="matrix(0.190169,0,0,0.190169,2270.57,2523.16)">
                <path d="M76.776,792.442C90.047,781.783 100.445,773.032 107.969,766.187C115.492,759.343 121.841,752.184 127.013,744.713C132.186,737.241 134.772,729.9 134.772,722.69C134.772,715.898 133.126,710.542 129.835,706.624C126.543,702.705 121.24,700.746 113.925,700.746C106.819,700.746 101.307,702.966 97.388,707.407C93.469,711.848 91.353,717.779 91.04,725.198L77.246,725.198C77.664,713.494 81.217,704.455 87.905,698.081C94.593,691.706 103.214,688.519 113.768,688.519C124.531,688.519 133.074,691.497 139.396,697.454C145.718,703.41 148.879,711.613 148.879,722.063C148.879,730.736 146.293,739.175 141.12,747.378C135.948,755.581 130.07,762.791 123.486,769.009C116.903,775.226 108.491,782.463 98.25,790.718L152.171,790.718L152.171,802.631L76.776,802.631L76.776,792.442Z" style="fill:rgb(217,217,217);fill-rule:nonzero;stroke:rgb(169,169,169);stroke-width:1px;stroke-linecap:butt;stroke-miterlimit:2;"/>
            </g>
            <g transform="matrix(0.165743,0,0,0.165743,2301.9,2539.18)">
                <g transform="matrix(156.746,0,0,156.746,152.238,780.341)">
                    <path d="M0.506,-0.697L0.506,-0.623L0.316,-0.623L0.316,-0L0.225,-0L0.225,-0.623L0.034,-0.623L0.034,-0.697L0.506,-0.697Z" style="fill:rgb(170,170,170);fill-rule:nonzero;"/>
                </g>
                <g transform="matrix(156.746,0,0,156.746,237.038,780.341)">
                    <path d="M0.577,-0.295C0.577,-0.278 0.576,-0.259 0.574,-0.24L0.136,-0.24C0.139,-0.186 0.158,-0.144 0.192,-0.114C0.225,-0.083 0.266,-0.068 0.314,-0.068C0.353,-0.068 0.386,-0.077 0.413,-0.096C0.439,-0.114 0.457,-0.138 0.468,-0.169L0.566,-0.169C0.551,-0.116 0.522,-0.074 0.478,-0.041C0.434,-0.008 0.379,0.009 0.314,0.009C0.262,0.009 0.216,-0.003 0.175,-0.026C0.134,-0.049 0.101,-0.083 0.078,-0.126C0.055,-0.169 0.043,-0.218 0.043,-0.275C0.043,-0.332 0.054,-0.381 0.077,-0.424C0.1,-0.467 0.132,-0.5 0.173,-0.523C0.214,-0.546 0.261,-0.557 0.314,-0.557C0.366,-0.557 0.412,-0.546 0.452,-0.523C0.492,-0.5 0.523,-0.469 0.545,-0.43C0.566,-0.39 0.577,-0.345 0.577,-0.295ZM0.483,-0.314C0.483,-0.349 0.475,-0.379 0.46,-0.404C0.445,-0.429 0.424,-0.448 0.398,-0.461C0.371,-0.474 0.342,-0.48 0.31,-0.48C0.264,-0.48 0.225,-0.465 0.193,-0.436C0.16,-0.407 0.142,-0.366 0.137,-0.314L0.483,-0.314Z" style="fill:rgb(170,170,170);fill-rule:nonzero;"/>
                </g>
                <g transform="matrix(156.746,0,0,156.746,334.221,780.341)">
                    <path d="M0.168,-0.459C0.184,-0.49 0.207,-0.515 0.237,-0.532C0.266,-0.549 0.302,-0.558 0.345,-0.558L0.345,-0.464L0.321,-0.464C0.219,-0.464 0.168,-0.409 0.168,-0.298L0.168,-0L0.077,-0L0.077,-0.548L0.168,-0.548L0.168,-0.459Z" style="fill:rgb(170,170,170);fill-rule:nonzero;"/>
                </g>
                <g transform="matrix(156.746,0,0,156.746,392.687,780.341)">
                    <path d="M0.736,-0.558C0.779,-0.558 0.817,-0.549 0.85,-0.532C0.883,-0.514 0.91,-0.487 0.929,-0.452C0.948,-0.417 0.958,-0.374 0.958,-0.323L0.958,-0L0.868,-0L0.868,-0.31C0.868,-0.365 0.854,-0.407 0.828,-0.436C0.801,-0.464 0.764,-0.479 0.718,-0.479C0.671,-0.479 0.633,-0.464 0.605,-0.434C0.577,-0.403 0.563,-0.359 0.563,-0.302L0.563,-0L0.473,-0L0.473,-0.31C0.473,-0.365 0.46,-0.407 0.433,-0.436C0.405,-0.464 0.369,-0.479 0.323,-0.479C0.276,-0.479 0.238,-0.464 0.21,-0.434C0.182,-0.403 0.168,-0.359 0.168,-0.302L0.168,-0L0.077,-0L0.077,-0.548L0.168,-0.548L0.168,-0.469C0.186,-0.498 0.21,-0.52 0.241,-0.535C0.271,-0.55 0.304,-0.558 0.341,-0.558C0.387,-0.558 0.428,-0.548 0.463,-0.527C0.498,-0.506 0.525,-0.476 0.542,-0.436C0.557,-0.475 0.583,-0.505 0.618,-0.526C0.653,-0.547 0.693,-0.558 0.736,-0.558Z" style="fill:rgb(170,170,170);fill-rule:nonzero;"/>
                </g>
                <g transform="matrix(156.746,0,0,156.746,595.987,780.341)">
                    <path d="M0.543,-0.493C0.543,-0.435 0.523,-0.387 0.484,-0.349C0.444,-0.31 0.383,-0.291 0.302,-0.291L0.168,-0.291L0.168,-0L0.077,-0L0.077,-0.697L0.302,-0.697C0.381,-0.697 0.44,-0.678 0.482,-0.64C0.523,-0.602 0.543,-0.553 0.543,-0.493ZM0.302,-0.366C0.353,-0.366 0.39,-0.377 0.414,-0.399C0.438,-0.421 0.45,-0.452 0.45,-0.493C0.45,-0.579 0.401,-0.622 0.302,-0.622L0.168,-0.622L0.168,-0.366L0.302,-0.366Z" style="fill:rgb(170,170,170);fill-rule:nonzero;"/>
                </g>
                <g transform="matrix(156.746,0,0,156.746,686.743,780.341)">
                    <rect x="0.077" y="-0.74" width="0.091" height="0.74" style="fill:rgb(170,170,170);fill-rule:nonzero;"/>
                </g>
                <g transform="matrix(156.746,0,0,156.746,725.303,780.341)">
                    <path d="M0.043,-0.276C0.043,-0.332 0.054,-0.381 0.077,-0.424C0.1,-0.466 0.131,-0.499 0.171,-0.522C0.21,-0.545 0.254,-0.557 0.303,-0.557C0.351,-0.557 0.393,-0.547 0.428,-0.526C0.463,-0.505 0.49,-0.479 0.507,-0.448L0.507,-0.548L0.599,-0.548L0.599,-0L0.507,-0L0.507,-0.102C0.489,-0.07 0.462,-0.044 0.427,-0.023C0.391,-0.001 0.349,0.009 0.302,0.009C0.253,0.009 0.209,-0.003 0.17,-0.027C0.131,-0.051 0.1,-0.085 0.077,-0.128C0.054,-0.171 0.043,-0.221 0.043,-0.276ZM0.507,-0.275C0.507,-0.316 0.499,-0.352 0.482,-0.383C0.465,-0.414 0.443,-0.437 0.415,-0.454C0.386,-0.47 0.355,-0.478 0.321,-0.478C0.287,-0.478 0.256,-0.47 0.228,-0.454C0.2,-0.438 0.178,-0.415 0.161,-0.384C0.144,-0.353 0.136,-0.317 0.136,-0.276C0.136,-0.234 0.144,-0.198 0.161,-0.167C0.178,-0.135 0.2,-0.112 0.228,-0.096C0.256,-0.079 0.287,-0.071 0.321,-0.071C0.355,-0.071 0.386,-0.079 0.415,-0.096C0.443,-0.112 0.465,-0.135 0.482,-0.167C0.499,-0.198 0.507,-0.234 0.507,-0.275Z" style="fill:rgb(170,170,170);fill-rule:nonzero;"/>
                </g>
                <g transform="matrix(156.746,0,0,156.746,831.264,780.341)">
                    <path d="M0.344,-0.558C0.411,-0.558 0.465,-0.538 0.506,-0.498C0.547,-0.457 0.568,-0.399 0.568,-0.323L0.568,-0L0.478,-0L0.478,-0.31C0.478,-0.365 0.464,-0.407 0.437,-0.436C0.41,-0.464 0.372,-0.479 0.325,-0.479C0.277,-0.479 0.239,-0.464 0.211,-0.434C0.182,-0.404 0.168,-0.36 0.168,-0.303L0.168,-0L0.077,-0L0.077,-0.548L0.168,-0.548L0.168,-0.47C0.186,-0.498 0.211,-0.52 0.242,-0.535C0.273,-0.55 0.307,-0.558 0.344,-0.558Z" style="fill:rgb(170,170,170);fill-rule:nonzero;"/>
                </g>
                <g transform="matrix(156.746,0,0,156.746,931.581,780.341)">
                    <path d="M0.344,-0.558C0.411,-0.558 0.465,-0.538 0.506,-0.498C0.547,-0.457 0.568,-0.399 0.568,-0.323L0.568,-0L0.478,-0L0.478,-0.31C0.478,-0.365 0.464,-0.407 0.437,-0.436C0.41,-0.464 0.372,-0.479 0.325,-0.479C0.277,-0.479 0.239,-0.464 0.211,-0.434C0.182,-0.404 0.168,-0.36 0.168,-0.303L0.168,-0L0.077,-0L0.077,-0.548L0.168,-0.548L0.168,-0.47C0.186,-0.498 0.211,-0.52 0.242,-0.535C0.273,-0.55 0.307,-0.558 0.344,-0.558Z" style="fill:rgb(170,170,170);fill-rule:nonzero;"/>
                </g>
                <g transform="matrix(156.746,0,0,156.746,1031.9,780.341)">
                    <path d="M0.577,-0.295C0.577,-0.278 0.576,-0.259 0.574,-0.24L0.136,-0.24C0.139,-0.186 0.158,-0.144 0.192,-0.114C0.225,-0.083 0.266,-0.068 0.314,-0.068C0.353,-0.068 0.386,-0.077 0.413,-0.096C0.439,-0.114 0.457,-0.138 0.468,-0.169L0.566,-0.169C0.551,-0.116 0.522,-0.074 0.478,-0.041C0.434,-0.008 0.379,0.009 0.314,0.009C0.262,0.009 0.216,-0.003 0.175,-0.026C0.134,-0.049 0.101,-0.083 0.078,-0.126C0.055,-0.169 0.043,-0.218 0.043,-0.275C0.043,-0.332 0.054,-0.381 0.077,-0.424C0.1,-0.467 0.132,-0.5 0.173,-0.523C0.214,-0.546 0.261,-0.557 0.314,-0.557C0.366,-0.557 0.412,-0.546 0.452,-0.523C0.492,-0.5 0.523,-0.469 0.545,-0.43C0.566,-0.39 0.577,-0.345 0.577,-0.295ZM0.483,-0.314C0.483,-0.349 0.475,-0.379 0.46,-0.404C0.445,-0.429 0.424,-0.448 0.398,-0.461C0.371,-0.474 0.342,-0.48 0.31,-0.48C0.264,-0.48 0.225,-0.465 0.193,-0.436C0.16,-0.407 0.142,-0.366 0.137,-0.314L0.483,-0.314Z" style="fill:rgb(170,170,170);fill-rule:nonzero;"/>
                </g>
                <g transform="matrix(156.746,0,0,156.746,1129.08,780.341)">
                    <path d="M0.168,-0.459C0.184,-0.49 0.207,-0.515 0.237,-0.532C0.266,-0.549 0.302,-0.558 0.345,-0.558L0.345,-0.464L0.321,-0.464C0.219,-0.464 0.168,-0.409 0.168,-0.298L0.168,-0L0.077,-0L0.077,-0.548L0.168,-0.548L0.168,-0.459Z" style="fill:rgb(170,170,170);fill-rule:nonzero;"/>
                </g>
            </g>
            <g transform="matrix(0.169567,0,0,0.169567,2305.93,2553.32)">
                <g transform="matrix(62.6074,0,0,62.6074,152.238,780.341)">
                    <path d="M0.543,-0.493C0.543,-0.435 0.523,-0.387 0.484,-0.349C0.444,-0.31 0.383,-0.291 0.302,-0.291L0.168,-0.291L0.168,-0L0.077,-0L0.077,-0.697L0.302,-0.697C0.381,-0.697 0.44,-0.678 0.482,-0.64C0.523,-0.602 0.543,-0.553 0.543,-0.493ZM0.302,-0.366C0.353,-0.366 0.39,-0.377 0.414,-0.399C0.438,-0.421 0.45,-0.452 0.45,-0.493C0.45,-0.579 0.401,-0.622 0.302,-0.622L0.168,-0.622L0.168,-0.366L0.302,-0.366Z" style="fill:rgb(170,170,170);fill-rule:nonzero;"/>
                </g>
                <g transform="matrix(62.6074,0,0,62.6074,188.488,780.341)">
                    <rect x="0.077" y="-0.74" width="0.091" height="0.74" style="fill:rgb(170,170,170);fill-rule:nonzero;"/>
                </g>
                <g transform="matrix(62.6074,0,0,62.6074,203.889,780.341)">
                    <path d="M0.043,-0.276C0.043,-0.332 0.054,-0.381 0.077,-0.424C0.1,-0.466 0.131,-0.499 0.171,-0.522C0.21,-0.545 0.254,-0.557 0.303,-0.557C0.351,-0.557 0.393,-0.547 0.428,-0.526C0.463,-0.505 0.49,-0.479 0.507,-0.448L0.507,-0.548L0.599,-0.548L0.599,-0L0.507,-0L0.507,-0.102C0.489,-0.07 0.462,-0.044 0.427,-0.023C0.391,-0.001 0.349,0.009 0.302,0.009C0.253,0.009 0.209,-0.003 0.17,-0.027C0.131,-0.051 0.1,-0.085 0.077,-0.128C0.054,-0.171 0.043,-0.221 0.043,-0.276ZM0.507,-0.275C0.507,-0.316 0.499,-0.352 0.482,-0.383C0.465,-0.414 0.443,-0.437 0.415,-0.454C0.386,-0.47 0.355,-0.478 0.321,-0.478C0.287,-0.478 0.256,-0.47 0.228,-0.454C0.2,-0.438 0.178,-0.415 0.161,-0.384C0.144,-0.353 0.136,-0.317 0.136,-0.276C0.136,-0.234 0.144,-0.198 0.161,-0.167C0.178,-0.135 0.2,-0.112 0.228,-0.096C0.256,-0.079 0.287,-0.071 0.321,-0.071C0.355,-0.071 0.386,-0.079 0.415,-0.096C0.443,-0.112 0.465,-0.135 0.482,-0.167C0.499,-0.198 0.507,-0.234 0.507,-0.275Z" style="fill:rgb(170,170,170);fill-rule:nonzero;"/>
                </g>
                <g transform="matrix(62.6074,0,0,62.6074,246.212,780.341)">
                    <path d="M0.344,-0.558C0.411,-0.558 0.465,-0.538 0.506,-0.498C0.547,-0.457 0.568,-0.399 0.568,-0.323L0.568,-0L0.478,-0L0.478,-0.31C0.478,-0.365 0.464,-0.407 0.437,-0.436C0.41,-0.464 0.372,-0.479 0.325,-0.479C0.277,-0.479 0.239,-0.464 0.211,-0.434C0.182,-0.404 0.168,-0.36 0.168,-0.303L0.168,-0L0.077,-0L0.077,-0.548L0.168,-0.548L0.168,-0.47C0.186,-0.498 0.211,-0.52 0.242,-0.535C0.273,-0.55 0.307,-0.558 0.344,-0.558Z" style="fill:rgb(170,170,170);fill-rule:nonzero;"/>
                </g>
                <g transform="matrix(62.6074,0,0,62.6074,302.997,780.341)">
                    <path d="M0.549,-0.548L0.219,0.258L0.125,0.258L0.233,-0.006L0.012,-0.548L0.113,-0.548L0.285,-0.104L0.455,-0.548L0.549,-0.548Z" style="fill:rgb(170,170,170);fill-rule:nonzero;"/>
                </g>
                <g transform="matrix(62.6074,0,0,62.6074,338.245,780.341)">
                    <path d="M0.316,0.009C0.265,0.009 0.218,-0.003 0.177,-0.026C0.135,-0.049 0.102,-0.083 0.079,-0.126C0.055,-0.169 0.043,-0.218 0.043,-0.275C0.043,-0.331 0.055,-0.381 0.08,-0.424C0.104,-0.466 0.137,-0.5 0.179,-0.523C0.221,-0.546 0.268,-0.557 0.32,-0.557C0.372,-0.557 0.419,-0.546 0.461,-0.523C0.503,-0.5 0.536,-0.467 0.561,-0.424C0.585,-0.381 0.597,-0.332 0.597,-0.275C0.597,-0.218 0.584,-0.169 0.56,-0.126C0.535,-0.083 0.501,-0.049 0.458,-0.026C0.415,-0.003 0.368,0.009 0.316,0.009ZM0.316,-0.071C0.349,-0.071 0.379,-0.079 0.408,-0.094C0.437,-0.109 0.46,-0.132 0.478,-0.163C0.495,-0.194 0.504,-0.231 0.504,-0.275C0.504,-0.319 0.495,-0.356 0.478,-0.387C0.461,-0.418 0.438,-0.44 0.41,-0.456C0.382,-0.471 0.352,-0.478 0.319,-0.478C0.286,-0.478 0.255,-0.471 0.228,-0.456C0.2,-0.44 0.178,-0.418 0.161,-0.387C0.144,-0.356 0.136,-0.319 0.136,-0.275C0.136,-0.23 0.144,-0.193 0.161,-0.162C0.177,-0.131 0.199,-0.109 0.226,-0.094C0.253,-0.079 0.283,-0.071 0.316,-0.071Z" style="fill:rgb(170,170,170);fill-rule:nonzero;"/>
                </g>
                <g transform="matrix(62.6074,0,0,62.6074,378.313,780.341)">
                    <path d="M0.563,-0.548L0.563,-0L0.472,-0L0.472,-0.081C0.455,-0.053 0.431,-0.031 0.4,-0.016C0.369,0 0.334,0.008 0.297,0.008C0.254,0.008 0.216,-0.001 0.182,-0.019C0.148,-0.036 0.121,-0.063 0.102,-0.098C0.082,-0.133 0.072,-0.176 0.072,-0.227L0.072,-0.548L0.162,-0.548L0.162,-0.239C0.162,-0.185 0.176,-0.143 0.203,-0.115C0.23,-0.086 0.268,-0.071 0.315,-0.071C0.364,-0.071 0.402,-0.086 0.43,-0.116C0.458,-0.146 0.472,-0.19 0.472,-0.247L0.472,-0.548L0.563,-0.548Z" style="fill:rgb(170,170,170);fill-rule:nonzero;"/>
                </g>
                <g transform="matrix(62.6074,0,0,62.6074,418.382,780.341)">
                    <path d="M0.168,-0.459C0.184,-0.49 0.207,-0.515 0.237,-0.532C0.266,-0.549 0.302,-0.558 0.345,-0.558L0.345,-0.464L0.321,-0.464C0.219,-0.464 0.168,-0.409 0.168,-0.298L0.168,-0L0.077,-0L0.077,-0.548L0.168,-0.548L0.168,-0.459Z" style="fill:rgb(170,170,170);fill-rule:nonzero;"/>
                </g>
                <g transform="matrix(62.6074,0,0,62.6074,458.451,780.341)">
                    <path d="M0.506,-0.697L0.506,-0.623L0.316,-0.623L0.316,-0L0.225,-0L0.225,-0.623L0.034,-0.623L0.034,-0.697L0.506,-0.697Z" style="fill:rgb(170,170,170);fill-rule:nonzero;"/>
                </g>
                <g transform="matrix(62.6074,0,0,62.6074,492.321,780.341)">
                    <path d="M0.577,-0.295C0.577,-0.278 0.576,-0.259 0.574,-0.24L0.136,-0.24C0.139,-0.186 0.158,-0.144 0.192,-0.114C0.225,-0.083 0.266,-0.068 0.314,-0.068C0.353,-0.068 0.386,-0.077 0.413,-0.096C0.439,-0.114 0.457,-0.138 0.468,-0.169L0.566,-0.169C0.551,-0.116 0.522,-0.074 0.478,-0.041C0.434,-0.008 0.379,0.009 0.314,0.009C0.262,0.009 0.216,-0.003 0.175,-0.026C0.134,-0.049 0.101,-0.083 0.078,-0.126C0.055,-0.169 0.043,-0.218 0.043,-0.275C0.043,-0.332 0.054,-0.381 0.077,-0.424C0.1,-0.467 0.132,-0.5 0.173,-0.523C0.214,-0.546 0.261,-0.557 0.314,-0.557C0.366,-0.557 0.412,-0.546 0.452,-0.523C0.492,-0.5 0.523,-0.469 0.545,-0.43C0.566,-0.39 0.577,-0.345 0.577,-0.295ZM0.483,-0.314C0.483,-0.349 0.475,-0.379 0.46,-0.404C0.445,-0.429 0.424,-0.448 0.398,-0.461C0.371,-0.474 0.342,-0.48 0.31,-0.48C0.264,-0.48 0.225,-0.465 0.193,-0.436C0.16,-0.407 0.142,-0.366 0.137,-0.314L0.483,-0.314Z" style="fill:rgb(170,170,170);fill-rule:nonzero;"/>
                </g>
                <g transform="matrix(62.6074,0,0,62.6074,531.138,780.341)">
                    <path d="M0.168,-0.459C0.184,-0.49 0.207,-0.515 0.237,-0.532C0.266,-0.549 0.302,-0.558 0.345,-0.558L0.345,-0.464L0.321,-0.464C0.219,-0.464 0.168,-0.409 0.168,-0.298L0.168,-0L0.077,-0L0.077,-0.548L0.168,-0.548L0.168,-0.459Z" style="fill:rgb(170,170,170);fill-rule:nonzero;"/>
                </g>
                <g transform="matrix(62.6074,0,0,62.6074,554.49,780.341)">
                    <path d="M0.736,-0.558C0.779,-0.558 0.817,-0.549 0.85,-0.532C0.883,-0.514 0.91,-0.487 0.929,-0.452C0.948,-0.417 0.958,-0.374 0.958,-0.323L0.958,-0L0.868,-0L0.868,-0.31C0.868,-0.365 0.854,-0.407 0.828,-0.436C0.801,-0.464 0.764,-0.479 0.718,-0.479C0.671,-0.479 0.633,-0.464 0.605,-0.434C0.577,-0.403 0.563,-0.359 0.563,-0.302L0.563,-0L0.473,-0L0.473,-0.31C0.473,-0.365 0.46,-0.407 0.433,-0.436C0.405,-0.464 0.369,-0.479 0.323,-0.479C0.276,-0.479 0.238,-0.464 0.21,-0.434C0.182,-0.403 0.168,-0.359 0.168,-0.302L0.168,-0L0.077,-0L0.077,-0.548L0.168,-0.548L0.168,-0.469C0.186,-0.498 0.21,-0.52 0.241,-0.535C0.271,-0.55 0.304,-0.558 0.341,-0.558C0.387,-0.558 0.428,-0.548 0.463,-0.527C0.498,-0.506 0.525,-0.476 0.542,-0.436C0.557,-0.475 0.583,-0.505 0.618,-0.526C0.653,-0.547 0.693,-0.558 0.736,-0.558Z" style="fill:rgb(170,170,170);fill-rule:nonzero;"/>
                </g>
                <g transform="matrix(62.6074,0,0,62.6074,618.976,780.341)">
                    <path d="M0.271,0.009C0.229,0.009 0.191,0.002 0.158,-0.013C0.125,-0.027 0.098,-0.047 0.079,-0.073C0.06,-0.098 0.049,-0.128 0.047,-0.161L0.141,-0.161C0.144,-0.134 0.157,-0.111 0.18,-0.094C0.202,-0.077 0.233,-0.068 0.27,-0.068C0.305,-0.068 0.332,-0.076 0.352,-0.091C0.372,-0.106 0.382,-0.126 0.382,-0.149C0.382,-0.173 0.371,-0.191 0.35,-0.203C0.329,-0.214 0.296,-0.226 0.251,-0.237C0.21,-0.248 0.177,-0.259 0.152,-0.27C0.126,-0.281 0.104,-0.297 0.086,-0.319C0.067,-0.34 0.058,-0.369 0.058,-0.404C0.058,-0.432 0.066,-0.458 0.083,-0.481C0.1,-0.504 0.123,-0.523 0.154,-0.537C0.185,-0.55 0.22,-0.557 0.259,-0.557C0.32,-0.557 0.369,-0.542 0.406,-0.511C0.443,-0.48 0.463,-0.438 0.466,-0.385L0.375,-0.385C0.373,-0.414 0.362,-0.437 0.341,-0.454C0.32,-0.471 0.291,-0.48 0.256,-0.48C0.223,-0.48 0.197,-0.473 0.178,-0.459C0.159,-0.445 0.149,-0.427 0.149,-0.404C0.149,-0.386 0.155,-0.371 0.167,-0.36C0.178,-0.348 0.193,-0.339 0.211,-0.332C0.228,-0.325 0.253,-0.317 0.284,-0.308C0.323,-0.297 0.355,-0.287 0.38,-0.277C0.405,-0.266 0.426,-0.251 0.444,-0.23C0.461,-0.209 0.47,-0.182 0.471,-0.149C0.471,-0.119 0.463,-0.092 0.446,-0.068C0.429,-0.044 0.406,-0.025 0.376,-0.012C0.345,0.002 0.31,0.009 0.271,0.009Z" style="fill:rgb(170,170,170);fill-rule:nonzero;"/>
                </g>
            </g>
        </g>
    </g>
</svg>
