<?xml version="1.0" encoding="iso-8859-1"?>
<!-- Generator: Adobe Illustrator 18.0.0, SVG Export Plug-In . SVG Version: 6.00 Build 0)  -->
<!DOCTYPE svg PUBLIC "-//W3C//DTD SVG 1.1//EN" "http://www.w3.org/Graphics/SVG/1.1/DTD/svg11.dtd">
<svg version="1.1" id="Capa_1" xmlns="http://www.w3.org/2000/svg" xmlns:xlink="http://www.w3.org/1999/xlink" x="0px" y="0px"
	 viewBox="0 0 225 225" style="enable-background:new 0 0 225 225;" xml:space="preserve">
<path d="M215.2,64.961h-32.301V0H42.102v64.961H9.8V225H215.2V64.961z M57.102,15h110.797v49.961H57.102V15z M200.2,210H24.8V79.961
	H200.2V210z M93.635,161.402v18.059c0,10.376,8.442,18.817,18.818,18.817s18.817-8.441,18.817-18.817v-18.059
	c6.876-5.616,11.003-14.128,11.003-23.124c0-16.443-13.377-29.82-29.821-29.82c-16.443,0-29.821,13.377-29.821,29.82
	C82.632,147.273,86.76,155.785,93.635,161.402z M112.453,123.459c8.172,0,14.821,6.648,14.821,14.82
	c0,5.221-2.802,10.116-7.312,12.775l-3.691,2.176v26.231c0,2.105-1.712,3.817-3.817,3.817c-2.105,0-3.818-1.712-3.818-3.817V153.23
	l-3.69-2.176c-4.511-2.66-7.313-7.555-7.313-12.776C97.632,130.106,104.281,123.459,112.453,123.459z"/>
</svg>
