<?xml version="1.0" standalone="no"?>
<!DOCTYPE svg PUBLIC "-//W3C//DTD SVG 20010904//EN"
 "http://www.w3.org/TR/2001/REC-SVG-20010904/DTD/svg10.dtd">
<svg version="1.0" xmlns="http://www.w3.org/2000/svg"
 width="100%" height="100%" viewBox="0 0 512.000000 512.000000"
 preserveAspectRatio="xMidYMid meet">

<g transform="translate(0.000000,512.000000) scale(0.100000,-0.100000)"
fill="#ffffff" stroke="none">
<path d="M1215 5106 c-37 -17 -70 -52 -84 -89 -6 -16 -11 -88 -11 -162 l0
-133 -292 -4 c-287 -3 -295 -4 -369 -30 -208 -73 -353 -217 -426 -423 l-28
-80 0 -1825 0 -1825 28 -80 c73 -206 217 -349 426 -423 l76 -27 2025 0 2025 0
80 28 c206 73 349 217 423 426 l27 76 0 1825 0 1825 -27 76 c-74 209 -217 353
-423 426 -79 27 -82 28 -372 31 l-292 4 -3 148 c-3 162 -8 177 -72 224 -39 29
-133 29 -172 0 -64 -47 -69 -62 -72 -225 l-3 -149 -1119 0 -1119 0 -3 149 c-3
162 -8 178 -70 224 -34 25 -113 32 -153 13z m-93 -815 c3 -118 12 -141 72
-185 39 -29 133 -29 172 0 60 44 69 67 72 185 l4 109 1118 0 1118 0 4 -109 c3
-118 12 -141 72 -185 39 -29 133 -29 172 0 60 44 69 67 72 185 l4 110 271 -3
272 -3 57 -28 c72 -35 130 -93 165 -165 28 -57 28 -58 31 -289 l3 -233 -2240
0 -2241 0 0 213 c0 158 4 226 14 262 31 101 118 192 219 227 45 15 89 17 309
18 l256 0 4 -109z m3676 -2323 l-3 -1393 -27 -55 c-35 -71 -97 -133 -167 -168
l-56 -27 -1985 0 -1985 0 -55 27 c-71 35 -133 97 -168 167 l-27 56 -3 1393 -2
1392 2240 0 2240 0 -2 -1392z"/>
</g>
</svg>
