<svg width="248" height="127" viewBox="0 0 248 127" fill="none" xmlns="http://www.w3.org/2000/svg">
<g filter="url(#filter0_d_698_2829)">
<path d="M36.6591 94.0227C31.2727 94.0227 26.6364 92.9318 22.75 90.75C18.8864 88.5455 15.9091 85.4318 13.8182 81.4091C11.7273 77.3636 10.6818 72.5795 10.6818 67.0568C10.6818 61.6705 11.7273 56.9432 13.8182 52.875C15.9091 48.8068 18.8523 45.6364 22.6477 43.3636C26.4659 41.0909 30.9432 39.9545 36.0795 39.9545C39.5341 39.9545 42.75 40.5114 45.7273 41.625C48.7273 42.7159 51.3409 44.3636 53.5682 46.5682C55.8182 48.7727 57.5682 51.5455 58.8182 54.8864C60.0682 58.2045 60.6932 62.0909 60.6932 66.5455V70.5341H16.4773V61.5341H47.0227C47.0227 59.4432 46.5682 57.5909 45.6591 55.9773C44.75 54.3636 43.4886 53.1023 41.875 52.1932C40.2841 51.2614 38.4318 50.7955 36.3182 50.7955C34.1136 50.7955 32.1591 51.3068 30.4545 52.3295C28.7727 53.3295 27.4545 54.6818 26.5 56.3864C25.5455 58.0682 25.0568 59.9432 25.0341 62.0114V70.5682C25.0341 73.1591 25.5114 75.3977 26.4659 77.2841C27.4432 79.1705 28.8182 80.625 30.5909 81.6477C32.3636 82.6705 34.4659 83.1818 36.8977 83.1818C38.5114 83.1818 39.9886 82.9545 41.3295 82.5C42.6705 82.0455 43.8182 81.3636 44.7727 80.4545C45.7273 79.5455 46.4545 78.4318 46.9545 77.1136L60.3864 78C59.7045 81.2273 58.3068 84.0455 56.1932 86.4545C54.1023 88.8409 51.3977 90.7045 48.0795 92.0455C44.7841 93.3636 40.9773 94.0227 36.6591 94.0227ZM85.1023 93.9886C81.7614 93.9886 78.7841 93.4091 76.1705 92.25C73.5568 91.0682 71.4886 89.3295 69.9659 87.0341C68.4659 84.7159 67.7159 81.8295 67.7159 78.375C67.7159 75.4659 68.25 73.0227 69.3182 71.0455C70.3864 69.0682 71.8409 67.4773 73.6818 66.2727C75.5227 65.0682 77.6136 64.1591 79.9545 63.5455C82.3182 62.9318 84.7955 62.5 87.3864 62.25C90.4318 61.9318 92.8864 61.6364 94.75 61.3636C96.6136 61.0682 97.9659 60.6364 98.8068 60.0682C99.6477 59.5 100.068 58.6591 100.068 57.5455V57.3409C100.068 55.1818 99.3864 53.5114 98.0227 52.3295C96.6818 51.1477 94.7727 50.5568 92.2955 50.5568C89.6818 50.5568 87.6023 51.1364 86.0568 52.2955C84.5114 53.4318 83.4886 54.8636 82.9886 56.5909L69.5568 55.5C70.2386 52.3182 71.5795 49.5682 73.5795 47.25C75.5795 44.9091 78.1591 43.1136 81.3182 41.8636C84.5 40.5909 88.1818 39.9545 92.3636 39.9545C95.2727 39.9545 98.0568 40.2955 100.716 40.9773C103.398 41.6591 105.773 42.7159 107.841 44.1477C109.932 45.5795 111.58 47.4205 112.784 49.6705C113.989 51.8977 114.591 54.5682 114.591 57.6818V93H100.818V85.7386H100.409C99.5682 87.375 98.4432 88.8182 97.0341 90.0682C95.625 91.2955 93.9318 92.2614 91.9545 92.9659C89.9773 93.6477 87.6932 93.9886 85.1023 93.9886ZM89.2614 83.9659C91.3977 83.9659 93.2841 83.5455 94.9205 82.7045C96.5568 81.8409 97.8409 80.6818 98.7727 79.2273C99.7045 77.7727 100.17 76.125 100.17 74.2841V68.7273C99.7159 69.0227 99.0909 69.2955 98.2955 69.5455C97.5227 69.7727 96.6477 69.9886 95.6705 70.1932C94.6932 70.375 93.7159 70.5455 92.7386 70.7045C91.7614 70.8409 90.875 70.9659 90.0795 71.0795C88.375 71.3295 86.8864 71.7273 85.6136 72.2727C84.3409 72.8182 83.3523 73.5568 82.6477 74.4886C81.9432 75.3977 81.5909 76.5341 81.5909 77.8977C81.5909 79.875 82.3068 81.3864 83.7386 82.4318C85.1932 83.4545 87.0341 83.9659 89.2614 83.9659ZM169.426 55.5682L156.131 56.3864C155.903 55.25 155.415 54.2273 154.665 53.3182C153.915 52.3864 152.926 51.6477 151.699 51.1023C150.494 50.5341 149.051 50.25 147.369 50.25C145.119 50.25 143.222 50.7273 141.676 51.6818C140.131 52.6136 139.358 53.8636 139.358 55.4318C139.358 56.6818 139.858 57.7386 140.858 58.6023C141.858 59.4659 143.574 60.1591 146.006 60.6818L155.483 62.5909C160.574 63.6364 164.369 65.3182 166.869 67.6364C169.369 69.9545 170.619 73 170.619 76.7727C170.619 80.2045 169.608 83.2159 167.585 85.8068C165.585 88.3977 162.835 90.4205 159.335 91.875C155.858 93.3068 151.847 94.0227 147.301 94.0227C140.369 94.0227 134.847 92.5795 130.733 89.6932C126.642 86.7841 124.244 82.8295 123.54 77.8295L137.824 77.0795C138.256 79.1932 139.301 80.8068 140.96 81.9205C142.619 83.0114 144.744 83.5568 147.335 83.5568C149.881 83.5568 151.926 83.0682 153.472 82.0909C155.04 81.0909 155.835 79.8068 155.858 78.2386C155.835 76.9205 155.278 75.8409 154.188 75C153.097 74.1364 151.415 73.4773 149.142 73.0227L140.074 71.2159C134.96 70.1932 131.153 68.4205 128.653 65.8977C126.176 63.375 124.938 60.1591 124.938 56.25C124.938 52.8864 125.847 49.9886 127.665 47.5568C129.506 45.125 132.085 43.25 135.403 41.9318C138.744 40.6136 142.653 39.9545 147.131 39.9545C153.744 39.9545 158.949 41.3523 162.744 44.1477C166.563 46.9432 168.79 50.75 169.426 55.5682ZM188.73 112.636C186.889 112.636 185.162 112.489 183.548 112.193C181.957 111.92 180.639 111.568 179.594 111.136L182.866 100.295C184.571 100.818 186.105 101.102 187.469 101.148C188.855 101.193 190.048 100.875 191.048 100.193C192.071 99.5114 192.901 98.3523 193.537 96.7159L194.389 94.5L175.605 40.6364H190.878L201.719 79.0909H202.264L213.207 40.6364H228.582L208.23 98.6591C207.253 101.477 205.923 103.932 204.241 106.023C202.582 108.136 200.48 109.761 197.935 110.898C195.389 112.057 192.321 112.636 188.73 112.636Z" fill="url(#paint0_linear_698_2829)"/>
</g>
<g filter="url(#filter1_d_698_2829)">
<rect x="13" y="102" width="161" height="10" fill="#4F8BFF"/>
</g>
<g filter="url(#filter2_d_698_2829)">
<rect x="220" y="102" width="10" height="10" fill="#4F8BFF"/>
</g>
<defs>
<filter id="filter0_d_698_2829" x="0.681824" y="33.9541" width="237.901" height="92.6826" filterUnits="userSpaceOnUse" color-interpolation-filters="sRGB">
<feFlood flood-opacity="0" result="BackgroundImageFix"/>
<feColorMatrix in="SourceAlpha" type="matrix" values="0 0 0 0 0 0 0 0 0 0 0 0 0 0 0 0 0 0 127 0" result="hardAlpha"/>
<feOffset dy="4"/>
<feGaussianBlur stdDeviation="5"/>
<feComposite in2="hardAlpha" operator="out"/>
<feColorMatrix type="matrix" values="0 0 0 0 0 0 0 0 0 0 0 0 0 0 0 0 0 0 0.25 0"/>
<feBlend mode="normal" in2="BackgroundImageFix" result="effect1_dropShadow_698_2829"/>
<feBlend mode="normal" in="SourceGraphic" in2="effect1_dropShadow_698_2829" result="shape"/>
</filter>
<filter id="filter1_d_698_2829" x="9" y="102" width="169" height="18" filterUnits="userSpaceOnUse" color-interpolation-filters="sRGB">
<feFlood flood-opacity="0" result="BackgroundImageFix"/>
<feColorMatrix in="SourceAlpha" type="matrix" values="0 0 0 0 0 0 0 0 0 0 0 0 0 0 0 0 0 0 127 0" result="hardAlpha"/>
<feOffset dy="4"/>
<feGaussianBlur stdDeviation="2"/>
<feComposite in2="hardAlpha" operator="out"/>
<feColorMatrix type="matrix" values="0 0 0 0 0 0 0 0 0 0 0 0 0 0 0 0 0 0 0.25 0"/>
<feBlend mode="normal" in2="BackgroundImageFix" result="effect1_dropShadow_698_2829"/>
<feBlend mode="normal" in="SourceGraphic" in2="effect1_dropShadow_698_2829" result="shape"/>
</filter>
<filter id="filter2_d_698_2829" x="216" y="102" width="18" height="18" filterUnits="userSpaceOnUse" color-interpolation-filters="sRGB">
<feFlood flood-opacity="0" result="BackgroundImageFix"/>
<feColorMatrix in="SourceAlpha" type="matrix" values="0 0 0 0 0 0 0 0 0 0 0 0 0 0 0 0 0 0 127 0" result="hardAlpha"/>
<feOffset dy="4"/>
<feGaussianBlur stdDeviation="2"/>
<feComposite in2="hardAlpha" operator="out"/>
<feColorMatrix type="matrix" values="0 0 0 0 0 0 0 0 0 0 0 0 0 0 0 0 0 0 0.25 0"/>
<feBlend mode="normal" in2="BackgroundImageFix" result="effect1_dropShadow_698_2829"/>
<feBlend mode="normal" in="SourceGraphic" in2="effect1_dropShadow_698_2829" result="shape"/>
</filter>
<linearGradient id="paint0_linear_698_2829" x1="19.5" y1="-67" x2="360" y2="116" gradientUnits="userSpaceOnUse">
<stop stop-color="white"/>
<stop offset="1" stop-color="#7A29FF"/>
</linearGradient>
</defs>
</svg>
